<svg width="136" height="32" viewBox="0 0 136 32" fill="none" xmlns="http://www.w3.org/2000/svg">
<path fill-rule="evenodd" clip-rule="evenodd" d="M15.6088 31.2005C22.3207 31.2005 26.0503 31.2005 28.4867 28.7569C30.9245 26.3132 30.9245 22.571 30.9245 15.8405C30.9245 9.11003 30.9245 5.3692 28.4867 2.92557C26.0503 0.480537 22.3207 0.480537 15.6088 0.480537C8.89834 0.480537 5.16862 0.480537 2.73087 2.92557C0.295898 5.36781 0.295898 9.11148 0.295898 15.8405C0.295898 22.571 0.295898 26.3132 2.73087 28.7569C5.16862 31.1992 8.89834 31.2005 15.6088 31.2005ZM7.82913 13.8493L17.0734 13.8675L17.5968 11.5858L25.4768 11.5593L24.5509 13.8312L17.0804 13.8675L16.5639 16.1491L22.0826 16.1589L21.2709 18.4406L16.039 18.4308L15.5252 20.7097H19.688L18.8053 23.0011H17.2071C16.0543 23.0011 15.2148 21.8603 15.5127 20.7097L7.82774 20.6929V18.4112L16.039 18.4281L16.5527 16.1491L7.82774 16.1324L7.82913 13.8493ZM7.82913 9.27761L16.2506 9.2958C17.2029 9.2958 17.9018 10.2188 17.6832 11.1795L17.5955 11.5775L7.82774 11.5607L7.82913 9.27761ZM35.9509 20.4797H46.6133V17.4513H39.3199V15.946H46.3445V12.9354H39.3199V11.5018H46.6133V8.47335H35.9509V20.4797ZM47.3021 18.186C47.3021 19.7271 48.449 20.659 50.4919 20.659C52.4451 20.659 53.5562 19.8525 53.8967 18.5802H54.0759V20.4797H57.2298V15.3367C57.2298 12.81 55.7066 11.2689 52.5527 11.2689C49.4883 11.2689 47.4813 12.81 47.4813 15.2113V15.2471H50.8503V15.1754C50.8503 14.4228 51.1907 14.2077 52.3018 14.2077C53.5024 14.2077 53.8967 14.3511 53.8967 15.265V15.4442L50.2231 15.8026C48.1802 15.9998 47.3021 16.9137 47.3021 18.186ZM51.4954 18.3114C50.9757 18.3114 50.689 18.2577 50.689 17.9709C50.689 17.7738 50.8144 17.6663 51.1191 17.6305L53.8787 17.3079C53.7891 18.1143 53.1261 18.3114 51.4954 18.3114ZM63.0847 20.659C59.895 20.659 58.1926 19.4225 58.1926 17.3438V17.2721H61.5615V17.4513C61.5615 17.953 61.8841 18.0068 63.1026 18.0068C64.2674 18.0068 64.4466 17.8813 64.4466 17.5767C64.4466 17.29 64.3033 17.2183 63.461 17.1287L60.8447 16.842C58.981 16.6449 57.9775 15.7668 57.9775 14.2436C57.9775 12.6487 59.2498 11.2689 62.6367 11.2689C65.7727 11.2689 67.4393 12.3978 67.4393 14.6199V14.6916H64.0703V14.5841C64.0703 14.1181 63.8911 13.9031 62.5292 13.9031C61.4361 13.9031 61.2927 14.0465 61.2927 14.3869C61.2927 14.6378 61.4361 14.7633 62.4934 14.8708L64.2854 15.0679C66.9196 15.3546 67.7618 16.2327 67.7618 17.7559C67.7618 19.4404 66.0774 20.659 63.0847 20.659ZM68.9293 23.5261H70.56C73.1943 23.5261 74.5741 22.9706 75.5418 20.8382L79.8247 11.4481H76.0615L74.7175 14.9604L74.1261 17.0749H73.8931L73.248 14.9962L71.689 11.4481H67.8541L72.1728 20.3722C72.0295 20.4439 71.8144 20.4797 71.5456 20.4797H68.9293V23.5261ZM83.5599 20.4797H80.1909V8.47335H84.7605L86.9647 13.4551L88.1474 16.5553H88.3803L89.5093 13.4551L91.6059 8.47335H96.1755V20.4797H92.8066V15.5159L92.932 13.5089H92.6991L92.0181 15.5159L90.2261 19.763H86.1403L84.3483 15.5159L83.6674 13.5089H83.4344L83.5599 15.5159V20.4797ZM96.9846 18.186C96.9846 19.7271 98.1315 20.659 100.174 20.659C102.128 20.659 103.239 19.8525 103.579 18.5802H103.758V20.4797H106.912V15.3367C106.912 12.81 105.389 11.2689 102.235 11.2689C99.1708 11.2689 97.1638 12.81 97.1638 15.2113V15.2471H100.533V15.1754C100.533 14.4228 100.873 14.2077 101.984 14.2077C103.185 14.2077 103.579 14.3511 103.579 15.265V15.4442L99.9056 15.8026C97.8627 15.9998 96.9846 16.9137 96.9846 18.186ZM101.178 18.3114C100.658 18.3114 100.371 18.2577 100.371 17.9709C100.371 17.7738 100.497 17.6663 100.802 17.6305L103.561 17.3079C103.472 18.1143 102.809 18.3114 101.178 18.3114ZM111.28 20.4797H107.911V11.4481H111.065V13.8135H111.244C111.495 12.3261 112.427 11.2689 114.219 11.2689C116.208 11.2689 116.996 12.577 116.996 14.3869V16.1789H113.627V15.1217C113.627 14.369 113.341 14.1002 112.463 14.1002C111.549 14.1002 111.28 14.369 111.28 15.0858V20.4797ZM122.101 20.4797H124.467V17.4513H122.854C122.083 17.4513 121.868 17.2721 121.868 16.5553V14.2077H124.467V11.4481H121.868V9.88903H118.499V11.4481H117.173V14.2077H118.499V17.0391C118.499 19.3866 119.843 20.4797 122.101 20.4797Z" fill="#B6349A"/>
</svg>
