<svg width="16" height="16" viewBox="0 0 16 16" fill="none" xmlns="http://www.w3.org/2000/svg">
<path d="M8.00065 1.33334C4.32732 1.33334 1.33398 4.32668 1.33398 8.00001C1.33398 11.6733 4.32732 14.6667 8.00065 14.6667C11.674 14.6667 14.6673 11.6733 14.6673 8.00001C14.6673 4.32668 11.674 1.33334 8.00065 1.33334ZM11.1873 6.46668L7.40732 10.2467C7.31398 10.34 7.18732 10.3933 7.05398 10.3933C6.92065 10.3933 6.79398 10.34 6.70065 10.2467L4.81398 8.36001C4.62065 8.16668 4.62065 7.84668 4.81398 7.65334C5.00732 7.46001 5.32732 7.46001 5.52065 7.65334L7.05398 9.18668L10.4807 5.76001C10.674 5.56668 10.994 5.56668 11.1873 5.76001C11.3807 5.95334 11.3807 6.26668 11.1873 6.46668Z" fill="#E7E6E7"/>
</svg>
