<svg width="16" height="16" viewBox="0 0 16 16" fill="none" xmlns="http://www.w3.org/2000/svg">
<mask id="mask0_8873_9715" style="mask-type:luminance" maskUnits="userSpaceOnUse" x="1" y="9" width="11" height="6">
<path fill-rule="evenodd" clip-rule="evenodd" d="M1.32812 9.30493H11.4507V14.038H1.32812V9.30493Z" fill="white"/>
</mask>
<g mask="url(#mask0_8873_9715)">
<path fill-rule="evenodd" clip-rule="evenodd" d="M6.38653 10.3049C4.53386 10.3049 2.3252 10.5429 2.3252 11.6796C2.3252 12.5809 3.69186 13.0383 6.38653 13.0383C9.0812 13.0383 10.4479 12.5763 10.4479 11.6663C10.4479 10.7629 9.0812 10.3049 6.38653 10.3049ZM6.38653 14.0383C5.00253 14.0383 1.3252 14.0383 1.3252 11.6796C1.3252 9.30493 5.13453 9.30493 6.38653 9.30493C8.5592 9.30493 11.4479 9.5496 11.4479 11.6663C11.4479 14.0383 7.63853 14.0383 6.38653 14.0383Z" fill="#212121"/>
</g>
<mask id="mask1_8873_9715" style="mask-type:luminance" maskUnits="userSpaceOnUse" x="11" y="8" width="4" height="5">
<path fill-rule="evenodd" clip-rule="evenodd" d="M11.8906 8.98901H14.6465V12.3074H11.8906V8.98901Z" fill="white"/>
</mask>
<g mask="url(#mask1_8873_9715)">
<path fill-rule="evenodd" clip-rule="evenodd" d="M13.2575 12.3074C13.0555 12.3074 12.8655 12.184 12.7901 11.9847C12.6921 11.7267 12.8221 11.4374 13.0801 11.34C13.6468 11.1254 13.6468 10.8634 13.6468 10.7514C13.6468 10.3734 13.1995 10.1147 12.3175 9.98337C12.0441 9.94203 11.8555 9.68737 11.8961 9.4147C11.9375 9.14137 12.1968 8.95803 12.4648 8.99337C14.2688 9.26337 14.6468 10.0987 14.6468 10.7514C14.6468 11.2374 14.4368 11.8954 13.4348 12.2747C13.3768 12.2967 13.3168 12.3074 13.2575 12.3074Z" fill="#212121"/>
</g>
<path fill-rule="evenodd" clip-rule="evenodd" d="M10.9868 7.42142C10.7415 7.42142 10.5275 7.24076 10.4921 6.99076C10.4541 6.71742 10.6441 6.46409 10.9175 6.42609C11.7495 6.30942 12.3775 5.58742 12.3788 4.74609C12.3788 3.91009 11.7801 3.20475 10.9568 3.07009C10.6841 3.02475 10.4995 2.76809 10.5441 2.49542C10.5888 2.22275 10.8468 2.03942 11.1181 2.08275C12.4281 2.29742 13.3788 3.41809 13.3788 4.74675C13.3761 6.08342 12.3781 7.23142 11.0568 7.41676C11.0335 7.42009 11.0101 7.42142 10.9868 7.42142Z" fill="#212121"/>
<path fill-rule="evenodd" clip-rule="evenodd" d="M6.38982 2.33358C5.05315 2.33358 3.96582 3.42091 3.96582 4.75691C3.96582 6.09291 5.05315 7.18024 6.38982 7.18024H6.41049C7.05315 7.17758 7.65849 6.92491 8.11249 6.46691C8.56715 6.01024 8.81582 5.40291 8.81315 4.75891C8.81315 3.42091 7.72582 2.33358 6.38982 2.33358ZM6.38982 8.18016C4.50182 8.18016 2.96582 6.64416 2.96582 4.75683C2.96582 2.8695 4.50182 1.3335 6.38982 1.3335C8.27715 1.3335 9.81315 2.8695 9.81315 4.75683C9.81715 5.66616 9.46449 6.52483 8.82182 7.1715C8.18049 7.81883 7.32382 8.17683 6.41249 8.18016H6.38982Z" fill="#212121"/>
</svg>
