<svg width="18" height="18" viewBox="0 0 18 18" fill="none" xmlns="http://www.w3.org/2000/svg">
<g clip-path="url(#clip0_8873_8732)">
<path d="M18 9C18 13.9706 13.9706 18 9 18C8.95674 18 8.91376 17.999 8.87064 17.9984C8.68744 13.2339 4.80089 9.41954 0.00755311 9.35197C0.00302124 9.23511 0 9.11797 0 9C0 4.02937 4.02937 0 9 0C13.9706 0 18 4.02937 18 9Z" fill="#E43950"/>
<path d="M16.7084 8.43387C15.3496 9.45189 13.6555 9.77008 12.1503 9.37142C12.3697 10.2447 12.2044 11.0757 12.0171 12.0823C11.8693 12.8766 11.7741 13.8332 11.3859 14.6399C11.1346 15.1619 10.8343 15.6799 10.4861 16.1855C10.2396 16.5436 9.86375 16.7549 9.57001 17.0977C9.35495 17.3486 9.23286 17.7352 8.99295 17.9751C8.98471 17.9833 8.9762 17.9914 8.96796 17.9997C4.11749 17.9829 0.171616 14.1292 0.00585938 9.31497C0.0592804 9.25977 0.113251 9.2047 0.167908 9.15004C0.474701 8.84338 0.791382 8.73256 1.11548 8.46655C1.58583 8.08066 2.07198 7.5621 2.56636 7.2641C3.46188 6.7244 4.3846 6.33095 5.29015 6.092C5.80156 5.957 6.30762 5.97678 6.80008 5.94176C7.2924 5.90674 7.77127 5.81706 8.22858 5.8849C8.41328 5.91237 8.59456 5.94821 8.77171 5.99271C8.37305 4.48758 8.69124 2.79335 9.70926 1.43462C9.89314 1.18921 10.2454 1.13991 10.5221 1.31912C11.6917 2.07704 12.8721 3.0286 13.9932 4.14975C15.1144 5.27091 16.0659 6.45125 16.8239 7.62102C17.0032 7.89774 16.9539 8.24999 16.7084 8.43387Z" fill="#FDE5BD"/>
<path d="M17.7284 6.27656C15.7792 7.97327 13.6032 8.86906 11.9521 8.75027C12.2193 9.43156 12.2354 10.1911 12.2178 10.9929C12.1922 12.1566 11.9786 13.409 11.386 14.6398C11.1349 15.1618 10.8344 15.6798 10.4864 16.1854C10.2417 16.5408 9.97346 16.6792 9.68233 17.0195C9.46535 17.2731 9.23546 17.7326 8.99321 17.9749C8.98483 17.9832 8.97659 17.9913 8.96822 17.9995C5.00874 17.9858 1.65173 15.4153 0.461914 11.8527C0.898483 11.2504 1.39699 10.6634 1.95564 10.1046C4.08507 7.97519 6.62387 6.71423 8.86604 6.47047C9.05281 6.45015 9.23958 6.4507 9.42319 6.47075C9.17325 4.79108 10.0722 2.47598 11.8664 0.414672C12.0789 0.170638 12.4278 0.0957938 12.7198 0.235183C13.796 0.748794 14.8293 1.46991 15.7512 2.3918C16.6732 3.31383 17.3943 4.34709 17.9079 5.42334C18.0473 5.7153 17.9725 6.06412 17.7284 6.27656Z" fill="#FFF5F5"/>
<path d="M15.7603 5.3948C14.2065 6.74118 12.6975 7.67639 11.5868 8.01394C11.4065 7.7202 11.1932 7.44677 10.9449 7.19848C10.9419 7.19546 10.9389 7.19244 10.9357 7.18928C10.6426 6.89801 10.2857 6.68803 9.89941 6.5691C10.1826 5.44397 11.147 3.85012 12.5714 2.20588C12.6029 2.16977 12.6585 2.16784 12.6924 2.20163C12.7213 2.23046 12.7244 2.27633 12.7 2.30915C11.1707 4.36442 10.4949 6.16645 11.1473 6.8189C11.7999 7.47136 13.6019 6.7957 15.6572 5.2664C15.69 5.24195 15.7359 5.24511 15.7647 5.27395C15.7985 5.30787 15.7966 5.36349 15.7603 5.3948Z" fill="#FDE5BD"/>
<path d="M10.4859 16.1853C10.0588 16.8056 9.56053 17.4074 8.99295 17.9749C8.98471 17.9832 8.97633 17.9913 8.96796 17.9995C8.87155 17.9991 8.77542 17.9969 8.6797 17.9936C8.50021 17.8351 8.3243 17.6705 8.1525 17.4987C5.01645 14.3625 4.04883 9.90934 5.29015 6.092C6.31311 5.82201 7.31396 5.74868 8.22858 5.88436C6.66083 9.00379 7.25162 12.9917 9.95549 15.6956C10.1273 15.8674 10.3043 16.0305 10.4859 16.1853ZM7.01926 17.7808C6.18567 17.3651 5.4007 16.8075 4.70169 16.1084C2.27014 13.677 1.54765 10.2073 2.56664 7.26438C1.73126 7.76783 0.919647 8.3983 0.167908 9.14991C0.113251 9.2047 0.0592804 9.25977 0.00585938 9.31511C0.148819 13.4648 3.10043 16.9006 7.01926 17.7808ZM10.9444 7.19846C10.7837 7.03778 10.6123 6.8918 10.4319 6.75969C9.7749 9.3467 10.0969 12.1657 11.3858 14.6396C12.735 11.8369 12.6671 8.92112 10.9444 7.19846Z" fill="#FDBF43"/>
<path d="M8.22871 5.88445C8.10553 6.12944 7.99649 6.38021 7.89995 6.63495C6.91118 6.86086 5.88657 7.26859 4.88104 7.84729C4.96783 7.25225 5.10393 6.66503 5.29015 6.09209C6.31311 5.82196 7.3141 5.74863 8.22871 5.88445ZM0.00585938 9.31507C0.0363464 10.1992 0.194 11.0512 0.461792 11.8528C0.898087 11.2503 1.39673 10.6634 1.95538 10.1047C2.00963 10.0505 2.06415 9.99718 2.11894 9.94417C2.11949 9.03189 2.26836 8.12552 2.56664 7.26433C1.73126 7.76778 0.919647 8.39826 0.167908 9.14986C0.113251 9.20465 0.0592804 9.25972 0.00585938 9.31507Z" fill="#FDA800"/>
</g>
<defs>
<clipPath id="clip0_8873_8732">
<rect width="18" height="18" fill="white"/>
</clipPath>
</defs>
</svg>
