<svg width="20" height="21" viewBox="0 0 20 21" fill="none" xmlns="http://www.w3.org/2000/svg">
<path fill-rule="evenodd" clip-rule="evenodd" d="M9.34286 9.6637L8.47036 12.4529L11.2587 11.5795L12.132 8.79036L9.34286 9.6637ZM7.51706 14.0302C7.35373 14.0302 7.19373 13.9661 7.07456 13.8477C6.9104 13.6827 6.8504 13.4402 6.9204 13.2194L8.2479 8.97857C8.30873 8.7819 8.46206 8.6294 8.65706 8.56857L12.8979 7.24107C13.1204 7.17024 13.3621 7.23107 13.5271 7.39524C13.6912 7.56024 13.7512 7.80274 13.6812 8.02357L12.3546 12.2644C12.2937 12.4602 12.1396 12.6136 11.9446 12.6744L7.70373 14.0019C7.64206 14.0211 7.57873 14.0302 7.51706 14.0302Z" fill="#EEF5EE"/>
<mask id="mask0_8966_26054" style="mask-type:luminance" maskUnits="userSpaceOnUse" x="1" y="1" width="18" height="19">
<path fill-rule="evenodd" clip-rule="evenodd" d="M1.66699 1.9873H18.9352V19.2554H1.66699V1.9873Z" fill="white"/>
</mask>
<g mask="url(#mask0_8966_26054)">
<path fill-rule="evenodd" clip-rule="evenodd" d="M10.3012 3.23722C6.22957 3.23722 2.91707 6.55056 2.91707 10.6214C2.91707 14.6931 6.22957 18.0056 10.3012 18.0056C14.3729 18.0056 17.6854 14.6931 17.6854 10.6214C17.6854 6.55056 14.3729 3.23722 10.3012 3.23722ZM10.3012 19.2556C5.54033 19.2556 1.66699 15.3823 1.66699 10.6215C1.66699 5.86064 5.54033 1.9873 10.3012 1.9873C15.062 1.9873 18.9353 5.86064 18.9353 10.6215C18.9353 15.3823 15.062 19.2556 10.3012 19.2556Z" fill="#EEF5EE"/>
</g>
</svg>
