<svg width="50" height="50" viewBox="0 0 50 50" fill="none" xmlns="http://www.w3.org/2000/svg">
<path fill-rule="evenodd" clip-rule="evenodd" d="M46.0204 46.0228C42.0432 50 35.9546 50 24.9978 50C14.0432 50 7.95454 49.9978 3.975 46.0228C0 42.0454 0 35.9546 0 25C0 14.0478 0 7.95454 3.975 3.97954C7.95454 -2.48353e-07 14.0432 0 24.9978 0C35.9546 0 42.0432 -2.48353e-07 46.0204 3.97954C50 7.95682 50 14.0454 50 25C50 35.9546 50 42.0454 46.0204 46.0228ZM27.3887 21.7887L12.2977 21.7591L12.2954 25.475L26.5387 25.5022L25.7 29.2114L12.2954 29.1841V32.8978L24.8613 32.925H24.8409C24.3546 34.7978 25.725 36.6546 27.6068 36.6546H30.2159L31.6568 32.925H24.8613L25.7 29.2159L34.2409 29.2318L35.5659 25.5182L26.5568 25.5022L27.4 21.7887L39.5954 21.7296L41.1068 18.0318L28.2432 18.075L27.3887 21.7887ZM26.0454 14.3478L12.2977 14.3182L12.2954 18.0341L28.2409 18.0614L28.3841 17.4137C28.7409 15.85 27.6 14.3478 26.0454 14.3478Z" fill="#B6349A"/>
</svg>
