<svg width="20" height="20" viewBox="0 0 20 20" fill="none" xmlns="http://www.w3.org/2000/svg">
<mask id="mask0_8936_10256" style="mask-type:luminance" maskUnits="userSpaceOnUse" x="1" y="1" width="17" height="17">
<path fill-rule="evenodd" clip-rule="evenodd" d="M1.67188 1.66797H17.9025V17.8988H1.67188V1.66797Z" fill="white"/>
</mask>
<g mask="url(#mask0_8936_10256)">
<path fill-rule="evenodd" clip-rule="evenodd" d="M9.79064 2.91797C6.00481 2.91797 2.9248 5.99714 2.9248 9.78297C2.9248 13.5688 6.00481 16.6488 9.79064 16.6488C13.5756 16.6488 16.6556 13.5688 16.6556 9.78297C16.6556 5.99714 13.5756 2.91797 9.79064 2.91797ZM9.79064 17.8988C5.31564 17.8988 1.6748 14.258 1.6748 9.78297C1.6748 5.30797 5.31564 1.66797 9.79064 1.66797C14.2656 1.66797 17.9056 5.30797 17.9056 9.78297C17.9056 14.258 14.2656 17.8988 9.79064 17.8988Z" fill="#B6349A"/>
</g>
<mask id="mask1_8936_10256" style="mask-type:luminance" maskUnits="userSpaceOnUse" x="14" y="14" width="5" height="5">
<path fill-rule="evenodd" clip-rule="evenodd" d="M14.3721 14.7578H18.5588V18.9368H14.3721V14.7578Z" fill="white"/>
</mask>
<g mask="url(#mask1_8936_10256)">
<path fill-rule="evenodd" clip-rule="evenodd" d="M17.9339 18.9368C17.7748 18.9368 17.6148 18.8759 17.4923 18.7543L14.5556 15.8259C14.3114 15.5818 14.3106 15.1859 14.5548 14.9418C14.7981 14.6959 15.1939 14.6976 15.4389 14.9401L18.3756 17.8693C18.6198 18.1134 18.6206 18.5084 18.3764 18.7526C18.2548 18.8759 18.0939 18.9368 17.9339 18.9368Z" fill="#B6349A"/>
</g>
</svg>
