<svg width="18" height="18" viewBox="0 0 18 18" fill="none" xmlns="http://www.w3.org/2000/svg">
<g clip-path="url(#clip0_8873_7571)">
<path d="M18 9C18 13.9706 13.9706 18 9 18C4.02937 18 0 13.9706 0 9C0 4.02937 4.02937 0 9 0C13.9706 0 18 4.02937 18 9Z" fill="#84DEEA"/>
<path d="M6.61922 3.59392C6.68719 3.52169 6.80145 3.5199 6.87149 3.59008L7.30106 4.01964C7.42493 4.14351 7.48233 4.31902 7.45541 4.49205L7.37933 4.98246C7.37206 5.02942 7.41257 5.07007 7.45967 5.06279L7.95007 4.98671C8.12311 4.9598 8.29861 5.0172 8.42249 5.14093C8.54636 5.2648 8.60362 5.44031 8.57684 5.61348L8.50076 6.10389C8.49348 6.15099 8.534 6.1915 8.58096 6.18409L9.07137 6.10801C9.24454 6.08123 9.42004 6.13849 9.54391 6.26236C9.66765 6.38623 9.72505 6.56174 9.69814 6.73478L9.62206 7.22532C9.61478 7.27228 9.65543 7.31279 9.70239 7.30552L10.1928 7.22943C10.3658 7.20252 10.5413 7.25992 10.6652 7.38379C10.7891 7.50766 10.8465 7.68317 10.8196 7.8562L10.7435 8.34661C10.7362 8.39371 10.7767 8.43422 10.8237 8.42694L11.3141 8.35086C11.4873 8.32395 11.6628 8.38135 11.7866 8.50522C11.9105 8.62896 11.9678 8.8046 11.941 8.97763L11.8649 9.46804C11.8576 9.515 11.8981 9.55565 11.9451 9.54824L12.4355 9.47216C12.6087 9.44538 12.7842 9.50264 12.9079 9.62651C13.0318 9.75039 13.0892 9.92589 13.0623 10.0991L12.9862 10.5895C12.9789 10.6364 13.0194 10.6769 13.0665 10.6697L13.5569 10.5936C13.73 10.5667 13.9055 10.6241 14.0294 10.7479L14.4159 11.1344C14.4857 11.2043 14.4843 11.3179 14.4129 11.386L12.7286 12.9274L5.07715 5.27607L6.61922 3.59392Z" fill="#962437"/>
<path d="M16.0782 9.91598C16.0782 11.3436 14.6039 10.7947 12.7851 10.7947C10.9663 10.7947 9.49193 11.3436 9.49193 9.91598C9.49193 8.48816 10.9663 6.9027 12.7851 6.9027C14.6039 6.9027 16.0782 8.48816 16.0782 9.91598ZM14.8596 5.15189C16.1457 3.8658 16.0671 1.70218 15.0576 0.692541C14.048 -0.316965 13.3936 1.11373 12.1076 2.39982C10.8216 3.6859 9.39072 4.34028 10.4004 5.34992C11.4099 6.35943 13.5735 6.43784 14.8596 5.15189ZM8.28976 4.41031C7.01397 3.7694 6.84272 5.3333 6.02616 6.95846C5.20974 8.58375 4.05727 9.65478 5.33306 10.2957C6.60885 10.9366 8.68746 10.3308 9.50402 8.70569C10.3204 7.0804 9.56568 5.05123 8.28976 4.41031Z" fill="#FDBF43"/>
<path d="M16.0782 9.91598C16.0782 11.3436 14.6039 10.7947 12.7851 10.7947C10.9663 10.7947 9.49193 11.3436 9.49193 9.91598C9.49193 9.75475 9.51088 9.5916 9.54672 9.42901C9.82921 10.3284 11.1716 9.89647 12.7851 9.89647C14.3986 9.89647 15.741 10.3284 16.0234 9.42901C16.0593 9.5916 16.0782 9.75475 16.0782 9.91598ZM10.7834 5.65534C10.3472 4.81956 11.6017 4.17576 12.7426 3.03483C13.8836 1.8939 14.5274 0.639395 15.363 1.07569C15.2735 0.935202 15.1716 0.806524 15.0576 0.692541C14.048 -0.316965 13.3936 1.11373 12.1076 2.39982C10.8216 3.6859 9.39072 4.34028 10.4004 5.34978C10.5142 5.46377 10.643 5.56566 10.7834 5.65534ZM6.02629 6.95859C5.20973 8.58375 4.05727 9.65478 5.33306 10.2957C5.47711 10.3681 5.63133 10.4244 5.79283 10.4653C5.11594 9.80913 6.10443 8.80347 6.82871 7.36179C7.55312 5.91997 7.76982 4.52663 8.70023 4.67797C8.571 4.57277 8.43381 4.48269 8.28975 4.41031C7.01396 3.7694 6.84271 5.3333 6.02629 6.95859Z" fill="#FCB30B"/>
<path d="M13.6832 7.03355C13.892 7.09508 14.0923 7.17679 14.282 7.27525V10.8737C14.0923 10.8606 13.892 10.8446 13.6832 10.8304V7.03355ZM12.4857 6.91751V10.7995C12.5843 10.7965 12.6842 10.7947 12.7851 10.7947C12.886 10.7947 12.9859 10.7965 13.0845 10.7995V6.91751C12.9859 6.90804 12.8862 6.90282 12.7851 6.90282C12.6842 6.90282 12.5843 6.90804 12.4857 6.91751ZM14.8807 7.66801V10.8985C15.108 10.898 15.3096 10.8803 15.4795 10.8322V8.28641C15.3095 8.06146 15.108 7.85217 14.8807 7.66801ZM10.0907 8.28641V10.8322C10.2607 10.8803 10.4622 10.898 10.6895 10.8985V7.66801C10.4622 7.85217 10.2607 8.06146 10.0907 8.28641ZM11.2882 10.8737C11.4779 10.8608 11.6782 10.8447 11.887 10.8304V7.03355C11.6782 7.09508 11.4779 7.17679 11.2882 7.27525V10.8737ZM11.4474 3.00981C11.2897 3.14742 11.1366 3.2776 10.9934 3.40257L13.5378 5.94701C13.7416 5.8826 13.941 5.79869 14.1322 5.6946L11.4474 3.00981ZM12.316 2.18488C12.2483 2.2567 12.1791 2.32852 12.1077 2.39993C12.0362 2.47134 11.9644 2.5407 11.8926 2.60826L14.6375 5.35333C14.714 5.2903 14.7882 5.22328 14.8596 5.15201C14.931 5.0806 14.9979 5.0063 15.0611 4.92995L12.316 2.18488ZM12.8367 6.09285L10.5524 3.80838C10.3921 3.96947 10.2621 4.12451 10.1758 4.27873L11.976 6.07884C12.2554 6.11784 12.5459 6.1232 12.8367 6.09285ZM15.7866 2.26837L13.9863 0.468262C13.8322 0.554504 13.6772 0.684418 13.5161 0.844681L15.8004 3.12915C15.8309 2.83815 15.8254 2.5477 15.7866 2.26837ZM12.7175 1.73965L15.4023 4.42444C15.5063 4.23328 15.5902 4.03387 15.6547 3.83008L13.1103 1.28564C12.9853 1.42902 12.855 1.582 12.7175 1.73965ZM5.28377 8.26086L8.49919 9.87627C8.67236 9.75089 8.83524 9.60861 8.98396 9.44972L5.59125 7.74519C5.48482 7.92537 5.38045 8.09717 5.28377 8.26086ZM6.02631 6.95871C5.98099 7.0488 5.93457 7.13724 5.8876 7.22403L9.35654 8.96674C9.40927 8.88283 9.45871 8.79604 9.50403 8.70581C9.54935 8.61559 9.58945 8.52412 9.62529 8.4317L6.15636 6.689C6.11475 6.77853 6.07162 6.86848 6.02631 6.95871ZM4.7832 9.34947L7.05806 10.4923C7.33546 10.4415 7.61301 10.3554 7.87956 10.235L4.99277 8.78477C4.89128 8.98802 4.81657 9.17603 4.7832 9.34947ZM9.47725 5.67702L7.20226 4.53416C7.08305 4.66449 6.9769 4.8367 6.87431 5.03954L9.76097 6.48973C9.69849 6.20395 9.60194 5.92998 9.47725 5.67702ZM6.62767 5.58569C6.55406 5.76093 6.47853 5.94714 6.39764 6.14009L9.79036 7.84462C9.82909 7.63039 9.84598 7.41464 9.84309 7.20096L6.62767 5.58569Z" fill="#FC9302"/>
<path d="M0.0205078 9.60217C0.483307 9.19444 0.954895 8.79646 1.43637 8.40974C1.77805 8.13522 2.12411 7.86578 2.47485 7.60211L3.58543 6.76756L4.8284 5.52459L5.66844 4.63195C5.73642 4.55972 5.85068 4.55807 5.92085 4.62811L6.30661 5.01387C6.43048 5.13774 6.48775 5.31338 6.46097 5.48642L6.38489 5.97682C6.37747 6.02379 6.41812 6.0643 6.46509 6.05702L6.95549 5.98094C7.12866 5.95416 7.30417 6.01143 7.4279 6.1353C7.55177 6.25917 7.60918 6.43467 7.58226 6.60785L7.50618 7.09825C7.4989 7.14521 7.53955 7.18573 7.58652 7.17845L8.07692 7.10237C8.24995 7.07545 8.42546 7.13286 8.54933 7.25673C8.6732 7.3806 8.73061 7.5561 8.70369 7.72914L8.62761 8.21954C8.62033 8.26664 8.66084 8.30716 8.70781 8.29988L9.19821 8.2238C9.37138 8.19688 9.54689 8.25428 9.67076 8.37816C9.79463 8.50203 9.8519 8.67753 9.82512 8.85057L9.74904 9.34097C9.74176 9.38794 9.78227 9.42859 9.82924 9.42117L10.3196 9.34509C10.4928 9.31831 10.6682 9.37558 10.7921 9.49945C10.9159 9.62332 10.9733 9.79883 10.9464 9.972L10.8703 10.4624C10.8631 10.5094 10.9036 10.5499 10.9507 10.5426L11.4411 10.4665C11.6141 10.4396 11.7896 10.497 11.9135 10.6209C12.0374 10.7447 12.0946 10.9203 12.0678 11.0933L11.9918 11.5837C11.9845 11.6307 12.025 11.6713 12.072 11.664L12.5625 11.5879C12.7355 11.561 12.911 11.6184 13.0349 11.7423L13.3716 12.079C13.4415 12.1488 13.4402 12.2625 13.3686 12.3306L12.4807 13.1767L12.4798 13.1759L11.2369 14.4189L11.2293 14.4265L10.4012 15.5283C10.1384 15.8782 9.86975 16.2232 9.59605 16.5639C9.20947 17.0454 8.81149 17.517 8.4039 17.9798C3.91035 17.6859 0.317276 14.0948 0.0205078 9.60217Z" fill="#E43950"/>
<path d="M11.4934 12.7196C11.3526 12.8431 11.1372 12.8274 11.0048 12.6951L5.47069 7.16111C5.3335 7.02378 5.11089 7.02378 4.97356 7.16111C4.83623 7.2983 4.83623 7.52091 4.97356 7.65824L10.516 13.2007C10.6534 13.338 10.6534 13.5606 10.516 13.698C10.3788 13.8352 10.1562 13.8352 10.0189 13.698L4.40831 8.0874C4.28444 7.96353 4.08847 7.94979 3.94853 8.05499L3.36571 8.49293C2.79126 8.92469 2.22903 9.37156 1.67903 9.8323C1.19083 10.2411 0.713196 10.6619 0.245178 11.0928C0.130234 10.6099 0.0542908 10.1118 0.0205078 9.60214C0.483307 9.19441 0.955032 8.79643 1.43651 8.40971C1.77818 8.13519 2.12425 7.86575 2.47499 7.60207L3.58557 6.76753L4.82854 5.52456L5.66858 4.63206C5.73656 4.55969 5.85081 4.55804 5.92099 4.62821L6.30675 5.01397C6.43062 5.13784 6.48788 5.31335 6.46111 5.48638L6.43488 5.65502L5.95312 6.16685C5.82294 6.30528 5.82623 6.52212 5.96054 6.65643L11.5104 12.2064C11.6532 12.3491 11.6475 12.5841 11.4934 12.7196ZM1.29369 11.4362C0.976318 11.7534 0.807678 12.1797 0.776093 12.6605C1.68013 14.6883 3.31174 16.3199 5.33954 17.2239C5.82033 17.1923 6.24646 17.0237 6.56383 16.7063C7.52486 15.7453 7.12427 13.7864 5.66885 12.3311C4.21358 10.8757 2.25471 10.4751 1.29369 11.4362Z" fill="#C92E43"/>
</g>
<defs>
<clipPath id="clip0_8873_7571">
<rect width="18" height="18" fill="white"/>
</clipPath>
</defs>
</svg>
