<svg width="18" height="18" viewBox="0 0 18 18" fill="none" xmlns="http://www.w3.org/2000/svg">
<g clip-path="url(#clip0_8873_8680)">
<path d="M18 9C18 13.9706 13.9706 18 9 18C4.02937 18 0 13.9706 0 9C0 4.02937 4.02937 0 9 0C13.9706 0 18 4.02937 18 9Z" fill="#84DEEA"/>
<path d="M13.2539 13.7461C13.2539 15.0005 12.997 16.1947 12.5335 17.2796C11.4486 17.7431 10.2544 18 9 18C7.26334 18 5.64189 17.5075 4.26668 16.6556C4.43298 16.3429 4.52637 15.9945 4.52637 15.627C4.52637 14.2776 3.27502 13.1836 1.73145 13.1836C1.50238 13.1836 1.28004 13.2082 1.06705 13.2536C0.386444 11.9869 0 10.5386 0 9.00001C0 7.74565 0.256943 6.55143 0.720428 5.46653C1.33896 5.20231 1.99292 5.00552 2.67325 4.88495C2.77913 4.65574 2.81401 4.27191 2.77679 3.73784C2.74603 3.29577 2.88913 2.86813 3.17999 2.53373C3.47086 2.19934 3.87447 1.99829 4.31653 1.96739C4.68938 1.94116 5.04918 2.06215 5.33084 2.307C5.6125 2.55214 5.78197 2.89203 5.80792 3.26446C5.8299 3.58114 5.72745 3.88739 5.51912 4.12689C5.31079 4.36639 5.02171 4.51045 4.7049 4.53256C4.43298 4.55137 4.16972 4.46348 3.964 4.28441C3.75815 4.10547 3.63441 3.85704 3.61546 3.58499C3.60201 3.39122 3.74812 3.22326 3.94176 3.20981C4.1358 3.19593 4.30348 3.34233 4.31694 3.5361C4.32916 3.71092 4.48132 3.84275 4.65614 3.83108C4.78537 3.82216 4.90347 3.76324 4.98848 3.66546C5.07362 3.56768 5.11551 3.44258 5.10645 3.31321C5.09354 3.12823 5.00935 2.95932 4.86942 2.83751C4.72948 2.71583 4.55026 2.65582 4.36542 2.66873C4.11067 2.68644 3.87817 2.80249 3.71049 2.99502C3.54295 3.1877 3.46042 3.43406 3.47827 3.68881C3.50107 4.01593 3.51054 4.41583 3.43488 4.7836C3.70473 4.75929 3.97774 4.74611 4.25391 4.74611C9.22453 4.74611 13.2539 8.77548 13.2539 13.7461Z" fill="#06995F"/>
<path d="M11.5104 15.1776C11.4019 16.1057 11.169 16.9888 10.8316 17.8134C10.2402 17.9357 9.62759 18 9 18C8.63388 18 8.27298 17.9776 7.91826 17.935C8.3606 16.9876 8.66176 15.9548 8.78989 14.8594C9.28894 10.5927 7.04265 6.63863 3.43488 4.78358C3.7094 4.75845 3.97293 4.74609 4.25391 4.74609C4.35141 4.74609 4.44823 4.74815 4.54504 4.75131C8.75432 6.37234 12.0495 10.5686 11.5104 15.1776ZM0.720428 5.46652C0.256943 6.55142 0 7.74564 0 9C0 10.6488 0.44371 12.1939 1.21783 13.5228C2.44899 11.049 2.56544 8.14828 1.54674 5.16083C1.26508 5.24954 0.989456 5.35172 0.720428 5.46652ZM2.54031 4.90993C2.37126 4.94261 2.20386 4.97969 2.03838 5.02158C3.98749 8.05476 4.16203 11.9539 2.44102 15.162C2.4472 15.1687 2.45352 15.1753 2.4597 15.1819C3.43982 16.2184 5.18239 15.7202 5.48163 14.3253C6.19753 10.9872 5.18156 7.38322 2.54031 4.90993Z" fill="#08B772"/>
<path d="M16.838 8.99999C16.5193 11.0014 15.5857 12.9292 14.0376 14.4774C13.0266 15.4885 11.8536 16.2375 10.6039 16.7243C7.04973 18.1089 2.98973 16.7063 1.13304 13.3745C1.10818 13.3298 1.08374 13.2851 1.05957 13.2399L13.801 0.498492C13.8788 0.420627 14.0148 0.428592 14.1039 0.517718C14.1045 0.518268 14.105 0.518817 14.1056 0.519366C16.4082 2.82183 17.3167 5.99399 16.838 8.99999Z" fill="#06995F"/>
<path d="M16.128 11.4216C15.6428 12.5297 14.9463 13.569 14.0379 14.4775C11.6994 16.8159 8.495 17.7531 5.47856 17.2849C5.0674 17.1099 4.67203 16.905 4.29492 16.6734C4.42772 16.2698 4.52083 15.8416 4.56848 15.3959C4.93034 15.6012 5.30759 15.7844 5.69843 15.9429C8.86523 16.4111 12.2291 15.4739 14.684 13.1356C15.2411 12.6047 15.7225 12.0293 16.128 11.4216Z" fill="#006E42"/>
<path d="M15.9145 8.99995C15.416 10.6397 14.486 12.2286 13.1374 13.577C11.1627 15.5516 8.67296 16.6295 6.26256 16.7681C4.93459 16.8445 3.63518 16.3472 2.68706 15.414C2.0412 14.7783 1.49092 14.0458 1.05957 13.2399L8.9998 5.29976L13.8011 0.498456C13.879 0.420591 14.0057 0.419355 14.0837 0.497358C14.0841 0.49777 14.0847 0.498319 14.0851 0.498731C16.2686 2.68226 16.848 5.93023 15.9145 8.99995Z" fill="#FD5CA6"/>
<path d="M15.9143 9.00012C15.4158 10.6398 14.4858 12.2287 13.1373 13.5772C11.1932 15.5212 8.75 16.5961 6.37476 16.7611C4.97002 16.8588 3.59384 16.3316 2.60315 15.3307C1.99341 14.7147 1.47197 14.0108 1.05957 13.24L1.60587 12.6936C2.99014 13.5925 4.58989 14.1062 6.29456 14.1062C11.5517 14.1062 15.8139 9.22562 15.8198 3.20264C16.4895 4.98997 16.5129 7.03165 15.9143 9.00012Z" fill="#FD3D96"/>
<path d="M15.9144 9.00007C15.4157 10.6398 14.4859 12.2287 13.1373 13.5771C10.6129 16.1015 7.24669 17.1603 4.28079 16.6645C3.69604 16.3039 3.15579 15.8782 2.66992 15.3974C5.73538 16.0747 9.30649 15.0387 11.9527 12.3925C12.9732 11.372 13.754 10.2138 14.2897 9.00007C15.5702 6.09899 15.4485 2.88069 13.8434 0.466302C13.9196 0.422631 14.0187 0.432519 14.0836 0.497476C14.084 0.497888 14.0846 0.498437 14.085 0.498849C16.2685 2.68238 16.8479 5.93035 15.9144 9.00007Z" fill="#D3F1F5"/>
<path d="M10.7793 10.5974C10.7793 10.9409 10.5009 11.2191 10.1576 11.2191C9.87828 11.2191 9.63314 11.0329 9.55857 10.7636L9.29065 9.79775C9.27925 9.75683 9.31701 9.71906 9.35794 9.73046L10.3238 9.99839C10.5929 10.0731 10.7793 10.3181 10.7793 10.5974ZM11.8189 6.45489C11.6792 6.21292 11.3954 6.09399 11.1248 6.16389L10.1544 6.41479C10.1132 6.42536 10.0995 6.477 10.1299 6.5068L10.8448 7.20924C11.0441 7.40507 11.3495 7.44393 11.5913 7.30427C11.8888 7.13247 11.9905 6.75234 11.8189 6.45489ZM6.06684 10.5697C6.03704 10.5393 5.98555 10.5531 5.97497 10.5943L5.72393 11.5646C5.65403 11.8352 5.7731 12.119 6.01507 12.2587C6.31239 12.4304 6.69265 12.3286 6.86431 12.0311C7.00398 11.7893 6.96511 11.4839 6.76942 11.2846L6.06684 10.5697Z" fill="#813873"/>
</g>
<defs>
<clipPath id="clip0_8873_8680">
<rect width="18" height="18" fill="white"/>
</clipPath>
</defs>
</svg>
