<svg width="18" height="18" viewBox="0 0 18 18" fill="none" xmlns="http://www.w3.org/2000/svg">
<g clip-path="url(#clip0_8873_7542)">
<path d="M18 9C18 13.9706 13.9706 18 9 18C8.05325 18 7.14084 17.8535 6.28377 17.5824C5.40294 14.7965 3.20348 12.5971 0.417618 11.7162C0.14653 10.8592 0 9.94675 0 9C0 4.02937 4.02937 0 9 0C13.9706 0 18 4.02937 18 9Z" fill="#04D481"/>
<path d="M15.8538 4.93182C15.7324 5.05322 15.6776 5.22832 15.7025 5.41055C15.8537 6.51825 15.7009 7.57074 15.2597 8.45171C15.1244 8.72169 14.7666 8.78281 14.553 8.56926C13.3919 7.40814 11.937 6.58444 10.344 6.18619C9.7491 6.03746 9.17342 5.82927 8.6252 5.56642C7.92427 5.23024 7.74657 4.31247 8.26499 3.73308C8.34821 3.63997 8.41536 3.56746 8.46288 3.51981C9.48241 2.50027 10.9776 2.07744 12.5893 2.29744C12.7714 2.3223 12.9467 2.2675 13.0681 2.1461L13.8172 1.39697C14.9382 2.10875 15.8911 3.06168 16.6029 4.18269L15.8538 4.93182Z" fill="#84DEEA"/>
<path d="M15.8537 4.93185C15.7323 5.05325 15.6775 5.22835 15.7023 5.41058C15.8535 6.51828 15.7008 7.57077 15.2596 8.45174C15.1243 8.72173 14.7664 8.78284 14.5529 8.56929C13.3918 7.40817 11.9369 6.58447 10.3439 6.18622C9.67715 6.0195 9.03473 5.77808 8.42773 5.46867C8.85922 4.95987 9.20406 4.56161 9.35429 4.41138C10.3738 3.39185 11.8689 2.96887 13.4808 3.18887C13.6629 3.21373 13.838 3.15894 13.9595 3.03754L14.8422 2.15479C15.525 2.73816 16.1195 3.42151 16.6028 4.18272L15.8537 4.93185Z" fill="#D3F1F5"/>
<path d="M16.0446 4.6707L13.3295 1.95557C13.1923 1.81824 13.1923 1.59563 13.3295 1.4583L13.9466 0.841278C14.0839 0.703949 14.3066 0.703949 14.4437 0.841278L17.1589 3.55641C17.2962 3.6936 17.2962 3.91621 17.1589 4.05354L16.5419 4.6707C16.4045 4.80789 16.1819 4.80789 16.0446 4.6707Z" fill="#C2186C"/>
<path d="M16.0447 4.6707L14.1557 2.7816C14.0184 2.64441 14.0184 2.4218 14.1557 2.28447L14.7729 1.66745C14.9101 1.53012 15.1327 1.53012 15.27 1.66745L17.159 3.55641C17.2963 3.6936 17.2963 3.91621 17.159 4.05354L16.542 4.6707C16.4046 4.80789 16.182 4.80789 16.0447 4.6707Z" fill="#E31E7F"/>
<path d="M15.4472 8.02113C15.233 8.59283 14.9097 9.10713 14.4802 9.53683C13.94 10.077 10.1937 13.1307 9.62791 13.6965C9.06226 14.2622 7.62936 15.8157 7.24168 16.4235L7.23715 16.4305C6.99559 16.8091 6.7131 17.16 6.39505 17.4771L6.28807 17.5836C3.49864 16.7034 1.29643 14.5011 0.416016 11.7117L0.516266 11.6112C0.837341 11.289 1.19289 11.003 1.57631 10.7581C2.18413 10.3704 3.73759 8.93753 4.30325 8.37187C4.84213 7.83299 7.63843 4.40842 8.36957 3.61768L8.62775 3.87599C9.47809 4.7262 10.5435 5.32948 11.7101 5.62117C12.8767 5.91286 13.9421 6.51601 14.7924 7.36635L15.4472 8.02113Z" fill="#FDBFDC"/>
<path d="M10.1182 11.8179C9.02216 13.0358 7.14473 13.0729 6.00105 11.9292C5.26373 11.1919 5.01791 10.1497 5.26208 9.20848C4.64685 9.81671 3.13815 11.2032 2.5372 11.5866C2.1465 11.8361 1.78436 12.1275 1.45711 12.4559L0.929077 12.9857C0.727203 12.5776 0.554993 12.152 0.416016 11.7119L0.516266 11.6113C0.837341 11.289 1.19289 11.003 1.57631 10.7581C2.18413 10.3704 3.73759 8.93767 4.30325 8.37187C4.84213 7.83299 7.63843 4.40855 8.36957 3.61768L8.62775 3.87599C8.84294 4.09119 9.07201 4.29045 9.31288 4.47296C8.87947 4.96103 8.07445 5.92302 7.2925 6.85493C7.18675 6.981 7.2973 7.17244 7.4588 7.14072C8.37451 6.96109 9.3615 7.23561 10.0584 7.96497C11.0771 9.03078 11.1043 10.722 10.1182 11.8179Z" fill="#FDA2CD"/>
<path d="M9.3942 12.1069C9.24314 12.8173 8.52107 13.2598 7.81052 13.0557C7.20394 12.8816 6.81681 12.2721 6.91569 11.6489C6.97323 11.2862 7.17758 10.9877 7.45594 10.7998C7.62019 10.6891 7.83318 10.6916 8.00608 10.7881C8.11334 10.8479 8.2313 10.8929 8.35778 10.9198C8.48412 10.9468 8.61006 10.9536 8.73242 10.9426C8.93072 10.9248 9.12669 11.0103 9.23174 11.1794C9.39777 11.4462 9.46479 11.7753 9.3942 12.1069ZM7.13088 10.4748C7.24171 10.3107 7.2391 10.0977 7.14269 9.92476C7.08282 9.81737 7.03777 9.69954 7.01086 9.57306C6.98408 9.44672 6.97721 9.32065 6.9882 9.19842C7.00591 9.00012 6.9205 8.80415 6.75144 8.6991C6.48448 8.53306 6.15557 8.46605 5.82392 8.53664C5.11338 8.6877 4.67104 9.40977 4.87512 10.1203C5.04925 10.7268 5.65872 11.114 6.28191 11.0152C6.64446 10.9576 6.94315 10.7533 7.13088 10.4748Z" fill="#C2186C"/>
<path d="M9.78146 8.59505C9.11047 9.26604 8.71098 10.1164 8.71263 10.8699C8.71304 11.0439 8.57228 11.1853 8.39815 11.1858C8.31094 11.1859 8.23184 11.1506 8.17471 11.0935C8.11772 11.0365 8.08257 10.9581 8.08243 10.8713C8.08147 10.4454 8.18199 9.99814 8.36849 9.56239C7.93274 9.74889 7.48532 9.84941 7.0596 9.84845C6.97281 9.84831 6.89439 9.81302 6.8374 9.75616C6.78027 9.69904 6.74498 9.61993 6.74512 9.53259C6.74553 9.3586 6.88698 9.21783 7.06097 9.21825C7.8145 9.21989 8.66484 8.8204 9.33583 8.14941C9.45888 8.02637 9.65842 8.02637 9.78146 8.14941C9.90451 8.27246 9.90451 8.472 9.78146 8.59505Z" fill="#037E4B"/>
</g>
<defs>
<clipPath id="clip0_8873_7542">
<rect width="18" height="18" fill="white"/>
</clipPath>
</defs>
</svg>
