<svg width="45" height="44" viewBox="0 0 45 44" fill="none" xmlns="http://www.w3.org/2000/svg">
<g clip-path="url(#clip0_8789_16979)">
<path d="M44.25 22C44.25 34.1504 34.4004 44 22.25 44C21.5148 44 20.7887 43.9631 20.072 43.8929C19.0488 33.4814 10.7686 25.2012 0.357086 24.178C0.286926 23.4613 0.25 22.7352 0.25 22C0.25 9.84958 10.0996 0 22.25 0C34.4004 0 44.25 9.84958 44.25 22Z" fill="#E43950"/>
<path d="M41.0798 11.0702C39.9052 12.2447 38.0005 12.2447 36.8259 11.0702C36.8159 11.0597 36.8068 11.049 36.7967 11.0386L26.4654 21.3702L22.8799 17.785L33.2115 7.45339C33.2011 7.44332 33.1904 7.43426 33.18 7.42419C32.0054 6.2496 32.0054 4.34521 33.18 3.17062C34.3546 1.99603 36.2593 1.99603 37.4339 3.17062C38.2076 3.94439 38.4712 5.03472 38.2258 6.02468C39.2154 5.77895 40.3061 6.04281 41.0798 6.81658C42.2544 7.99117 42.2544 9.89556 41.0798 11.0702Z" fill="#F7E6B0"/>
<path d="M36.7964 11.0386L26.4648 21.3702L24.3076 19.2131L35.0038 8.51686C35.1327 8.38762 35.3043 8.30907 35.4862 8.29866C35.4892 8.29833 35.4919 8.29833 35.4946 8.29799C35.7521 8.28255 35.9676 8.49269 35.9511 8.75017C35.8991 9.5696 36.1811 10.4058 36.7964 11.0386ZM41.0795 6.81658C40.3058 6.0428 39.2151 5.77895 38.2255 6.02468C38.4709 5.03472 38.2073 3.94438 37.4336 3.17061C36.4701 2.20717 35.0159 2.03462 33.8759 2.65129C33.2589 3.79131 33.4318 5.24553 34.3949 6.20897C34.9431 6.75716 35.65 7.04921 36.3677 7.0858C36.7947 7.10729 37.1425 7.45507 37.1643 7.8824C37.2006 8.59978 37.493 9.30675 38.0412 9.85494C39.0043 10.8184 40.4585 10.9909 41.5985 10.3739C42.2155 9.2339 42.0426 7.77968 41.0795 6.81658Z" fill="#F9EECF"/>
<path d="M21.209 13.1981C21.7545 13.0857 22.3191 13.0256 22.8979 13.0256C27.4965 13.0256 31.2247 16.7538 31.2247 21.3524C31.2247 21.9312 31.1646 22.4962 31.0522 23.0417C30.4392 22.6653 29.8497 22.2048 29.3052 21.6603C28.0309 20.386 27.2102 18.8687 26.8762 17.3745C25.3817 17.0401 23.8647 16.2194 22.5904 14.9454C22.0455 14.4006 21.585 13.8111 21.209 13.1981Z" fill="#FDD78D"/>
<path d="M24.3188 16.316C23.7126 15.9417 23.1295 15.4845 22.5904 14.9454C22.0455 14.4006 21.585 13.8111 21.209 13.1981C21.7545 13.0857 22.3191 13.0256 22.8979 13.0256C25.9923 13.0256 28.6926 14.7138 30.1277 17.2191C28.9098 16.5211 27.4989 16.1223 25.9946 16.1223C25.4159 16.1223 24.8509 16.1824 24.3054 16.2949C24.3098 16.3019 24.3145 16.309 24.3188 16.316Z" fill="#FDCB6B"/>
<path d="M29.2285 20.4877C29.834 21.0933 30.5071 21.5723 31.2043 21.9211C31.0019 24.9232 29.2086 27.4889 26.6601 28.7823C26.8487 29.7102 26.9478 30.671 26.9478 31.6545C26.9478 36.8329 24.2051 41.3698 20.0939 43.8943C15.2022 43.4152 10.44 41.303 6.69336 37.5564C2.94669 33.8097 0.834167 29.0475 0.355469 24.1558C2.87988 20.0443 7.41678 17.302 12.5948 17.302C13.5788 17.302 14.5392 17.401 15.4674 17.5897C16.7608 15.0411 19.3265 13.2478 22.3286 13.0454C22.6774 13.7426 23.1564 14.4157 23.762 15.0213C24.799 16.0586 26.0343 16.7269 27.2509 16.9988C27.5231 18.2154 28.1912 19.4504 29.2285 20.4877Z" fill="#FDBF43"/>
<path d="M13.9772 25.8974C14.3129 26.2328 14.3129 26.7769 13.9772 27.1126C13.6415 27.4483 13.0974 27.4483 12.762 27.1126C12.4263 26.7769 12.4263 26.2328 12.762 25.8974C13.0974 25.5617 13.6415 25.5617 13.9772 25.8974ZM23.0923 20.4283C22.7566 20.764 22.7566 21.3081 23.0923 21.6435C23.428 21.9792 23.9718 21.9792 24.3075 21.6435C24.6432 21.3081 24.6432 20.764 24.3075 20.4283C23.9718 20.0926 23.428 20.0926 23.0923 20.4283ZM6.13409 32.525C5.7984 32.8607 5.7984 33.4048 6.13409 33.7402C6.46979 34.0759 7.01395 34.0759 7.3493 33.7402C7.685 33.4048 7.685 32.8607 7.3493 32.525C7.01395 32.1893 6.46979 32.1893 6.13409 32.525ZM6.6853 27.1126C6.34961 27.4483 6.34961 27.9925 6.6853 28.3278C7.02066 28.6635 7.56482 28.6635 7.90051 28.3278C8.23621 27.9925 8.23621 27.4483 7.90051 27.1126C7.56482 26.7769 7.02066 26.7769 6.6853 27.1126ZM23.1719 16.8743C23.1678 16.8693 23.1642 16.8642 23.1605 16.8592C23.0829 16.7598 23.1235 16.6145 23.2427 16.5728C23.8614 16.3577 24.513 16.2126 25.188 16.1489C24.6875 15.842 24.2065 15.4657 23.762 15.0213C23.1564 14.4157 22.6774 13.7426 22.3286 13.0454C19.3265 13.2478 16.7608 15.0411 15.4674 17.5897C14.5395 17.401 13.5788 17.302 12.5952 17.3016C7.41711 17.3016 2.87988 20.0443 0.355469 24.1558C0.567963 26.3264 1.10339 28.4715 1.95941 30.5139C2.90271 27.4476 4.84604 24.8195 7.40805 23.0094C7.51111 22.9366 7.65042 22.992 7.68735 23.1125C7.72729 23.2431 7.79913 23.3656 7.90286 23.4687C8.22647 23.7903 8.76492 23.7976 9.09726 23.4848C9.45142 23.1508 9.45779 22.5928 9.11606 22.2511C9.11505 22.2504 9.11438 22.2498 9.11371 22.2491C9.02341 22.1595 9.04187 22.0104 9.15533 21.9523C9.95496 21.5435 10.7982 21.2071 11.6761 20.9526C11.7848 20.9211 11.8966 20.9969 11.906 21.1094C11.9255 21.3383 12.0359 21.5606 12.2383 21.7177C12.5529 21.9617 13.0078 21.9517 13.3126 21.6959C13.5992 21.4548 13.6859 21.0768 13.5731 20.7529C13.5365 20.6475 13.6107 20.5347 13.7211 20.5196C14.3616 20.4323 15.0152 20.3867 15.6795 20.3867C16.2787 20.3867 16.8696 20.4232 17.4496 20.4948C17.978 20.5599 18.4984 20.382 18.871 20.0208C18.9264 19.967 19.0083 19.9563 19.0781 19.9892C19.397 20.1406 19.7898 20.0845 20.0536 19.8207C20.3893 19.485 20.3893 18.9408 20.0536 18.6051C20.0516 18.6031 20.0489 18.6011 20.0466 18.5988C20.4497 18.1889 20.8952 17.8206 21.3759 17.501C21.482 17.4305 21.622 17.4883 21.6545 17.6115C21.6918 17.7528 21.7657 17.8867 21.8768 17.9979C22.2064 18.3275 22.7378 18.3332 23.0745 18.015C23.3874 17.7192 23.4283 17.2201 23.1719 16.8743ZM17.0156 22.859C16.6799 23.1944 16.6799 23.7386 17.0156 24.0742C17.351 24.4099 17.8951 24.4099 18.2308 24.0742C18.5665 23.7386 18.5665 23.1944 18.2308 22.859C17.8951 22.5233 17.3513 22.5233 17.0156 22.859Z" fill="#FDA800"/>
</g>
<defs>
<clipPath id="clip0_8789_16979">
<rect width="44" height="44" fill="white" transform="translate(0.25)"/>
</clipPath>
</defs>
</svg>
