<svg width="45" height="44" viewBox="0 0 45 44" fill="none" xmlns="http://www.w3.org/2000/svg">
<g clip-path="url(#clip0_8789_10330)">
<path d="M44.25 22C44.25 34.1504 34.4004 44 22.25 44C20.9153 44 19.6081 43.8805 18.3388 43.6529C16.33 42.5679 14.1333 41.7858 11.8096 41.3692C8.07602 39.3523 4.992 36.2874 2.95099 32.5686C3.05237 32.1057 3.10742 31.6257 3.10742 31.1322C3.10742 29.0173 2.12585 27.1358 0.599121 25.9226C0.369843 24.6496 0.25 23.3387 0.25 22C0.25 9.84958 10.0996 0 22.25 0C34.4004 0 44.25 9.84958 44.25 22Z" fill="#2B6C7E"/>
<path d="M15.5472 37.9394C20.5813 32.9053 22.5944 26.7568 20.0438 24.2062C17.4932 21.6556 11.3447 23.6687 6.31061 28.7028C5.21222 29.8012 4.25818 30.9523 3.46359 32.1074C3.32159 32.3138 1.49005 28.2053 1.06641 25.7933C2.02112 20.3857 5.05612 14.9165 9.875 10.0977C15.5308 4.44189 21.9308 1.06918 28.0978 0.787201C35.5471 2.83627 40.8259 8.36313 42.875 15.8125C42.593 21.9795 39.5933 28.8911 33.9375 34.5469C29.4305 39.0539 24.5643 42.3175 19.4708 43.4558C19.1187 43.5347 11.9362 40.9284 12.1426 40.7864C13.2977 39.9918 14.4488 39.0378 15.5472 37.9394Z" fill="#FD5CA6"/>
<path d="M40.4142 23.6016C40.4142 24.0763 40.0295 24.461 39.5548 24.461C39.3175 24.461 39.1026 24.3646 38.9472 24.2092C38.7915 24.0538 38.6954 23.8389 38.6954 23.6016C38.6954 18.9344 36.9146 14.6758 33.9967 11.4686L32.283 13.1823C35.6306 16.8736 37.255 21.8184 36.8673 27.2079C36.833 27.6813 36.4218 28.0374 35.9485 28.0035C35.734 27.9881 35.5436 27.8951 35.4026 27.7545C35.2324 27.5839 35.1344 27.3436 35.1529 27.0847C35.504 22.2028 34.0572 17.7333 31.0665 14.3989L28.7381 16.7273C32.086 20.4185 33.7101 25.3633 33.3223 30.7529C33.2884 31.2262 32.8769 31.5824 32.4035 31.5485C32.189 31.533 31.9987 31.44 31.858 31.299C31.6875 31.1288 31.5895 30.8885 31.6083 30.6293C31.9594 25.7477 30.5122 21.2783 27.5219 17.9438L25.4933 19.9721C27.0261 21.7053 28.1124 23.7976 28.7247 26.2059C29.4276 28.972 29.4709 32.0342 28.8536 35.3069C28.7653 35.7732 28.3161 36.08 27.8495 35.992C27.6733 35.9588 27.5199 35.8739 27.4017 35.7557C27.2077 35.5617 27.11 35.2784 27.1647 34.9883C28.2181 29.4054 27.1922 24.5449 24.2761 21.1896L22.8913 22.5747C24.7417 25.1186 25.2536 28.4302 24.3301 31.9385C23.3986 35.4771 21.1058 38.8092 17.8737 41.3205C17.528 41.5891 17.0412 41.5521 16.7394 41.2503C16.7142 41.2252 16.6901 41.198 16.6679 41.1691C16.3765 40.7941 16.4443 40.2543 16.819 39.9633C19.755 37.6819 21.8322 34.6768 22.6681 31.5008C23.4295 28.6085 23.0686 25.8997 21.657 23.8087L20.573 24.8927C20.426 24.6419 20.2501 24.4123 20.044 24.2062C19.8382 24.0004 19.6083 23.8245 19.3578 23.6771L20.4418 22.5935C18.3507 21.1816 15.642 20.821 12.7497 21.5824C9.57371 22.4183 6.56825 24.4955 4.28721 27.4312C3.99616 27.8062 3.45603 27.874 3.0814 27.5826C2.70576 27.2922 2.63895 26.7514 2.93 26.3768C5.44132 23.1447 8.77342 20.8516 12.312 19.92C15.8203 18.9966 19.1319 19.5085 21.6758 21.3592L23.0609 19.9741C19.7053 17.0579 14.8451 16.032 9.26218 17.0858C8.79591 17.1737 8.34641 16.8669 8.25846 16.4006C8.17051 15.934 8.47733 15.4849 8.94361 15.3966C12.2163 14.7792 15.2785 14.8225 18.0446 15.5255C20.4529 16.1378 22.5452 17.2241 24.2784 18.7569L26.3067 16.7286C22.9722 13.7379 18.5028 12.2907 13.6212 12.6422C13.1475 12.6761 12.7363 12.3199 12.702 11.8466C12.6681 11.3733 13.0243 10.9617 13.4976 10.9278C18.8872 10.5401 23.8319 12.1642 27.5232 15.5121L29.8516 13.1837C26.5172 10.1933 22.0477 8.74615 17.1657 9.09729C16.6924 9.13153 16.2809 8.77536 16.247 8.30203C16.2131 7.82837 16.5692 7.41714 17.0425 7.3829C22.4321 6.99518 27.3769 8.6196 31.0682 11.9675L32.7819 10.2534C29.575 7.33557 25.316 5.55505 20.6489 5.55472C20.1746 5.55472 19.7895 5.17001 19.7895 4.69534C19.7895 4.22067 20.1742 3.83597 20.6489 3.83597C25.6447 3.83597 30.3548 5.67389 34.0072 9.02814L36.4517 6.58362C36.787 6.24826 37.3312 6.24826 37.6669 6.58362C38.0026 6.91931 38.0026 7.46347 37.6669 7.79916L35.2224 10.2433C38.5763 13.8957 40.4142 18.6058 40.4142 23.6016Z" fill="#E31E7F"/>
<path d="M41.2267 25.0937C39.693 28.5188 37.3958 31.8899 34.3846 34.901C29.5658 39.7199 23.8251 42.7119 18.4174 43.6666C16.0051 43.243 13.7288 42.4259 11.6555 41.2846C11.7747 41.0983 11.9358 40.9284 12.1423 40.7864C12.6445 40.4413 13.1453 40.064 13.6418 39.6595C19.3228 40.0979 26.0779 37.131 31.3463 31.8627C33.4289 29.7804 35.15 27.4839 36.4458 25.0937C37.6902 22.7989 38.5425 20.4179 38.9427 18.0563C39.6678 13.7738 38.7829 10.1312 36.4508 7.79915C34.1188 5.46676 30.4758 4.58187 26.1934 5.3073C23.8318 5.70711 21.4507 6.55944 19.1559 7.80385C16.7658 9.09963 14.4693 10.8207 12.387 12.9034C7.11862 18.1717 4.15176 24.9269 4.59018 30.6078C4.18567 31.1043 3.80835 31.6055 3.46326 32.1074C3.32126 32.3138 3.1514 32.475 2.96509 32.5941C1.82373 30.5209 1.00665 28.2446 0.583008 25.8323C1.53772 20.4246 4.52975 14.6839 9.34863 9.86501C12.3598 6.85384 15.7308 4.55669 19.1559 3.02291C26.8013 -0.400157 34.7146 -0.0141098 39.4889 4.76046C44.2634 9.53502 44.6498 17.4483 41.2267 25.0937Z" fill="#E1EBF0"/>
<path d="M40.5681 5.99044C35.201 1.84798 26.8601 2.21792 19.1559 6.48793C16.5355 7.94048 13.9886 9.84319 11.6575 12.1742C5.72549 18.1063 2.56125 25.4355 2.55957 31.8207C1.62936 29.9593 0.95462 27.9481 0.583008 25.8323C1.53738 20.4246 4.52975 14.6839 9.34863 9.86501C12.3598 6.85384 15.7308 4.55669 19.1559 3.02291C26.8013 -0.400157 34.7146 -0.0141097 39.4889 4.76046C39.8783 5.14986 40.2371 5.56142 40.5681 5.99044Z" fill="#B4D2D7"/>
</g>
<defs>
<clipPath id="clip0_8789_10330">
<rect width="44" height="44" fill="white" transform="translate(0.25)"/>
</clipPath>
</defs>
</svg>
