<svg width="45" height="44" viewBox="0 0 45 44" fill="none" xmlns="http://www.w3.org/2000/svg">
<g clip-path="url(#clip0_8789_10624)">
<path d="M44.75 22C44.75 34.1504 34.9004 43.9999 22.75 43.9999C10.5999 43.9999 0.75 34.1504 0.75 22C0.75 9.8499 10.5999 0 22.75 0C34.9004 0 44.75 9.8499 44.75 22Z" fill="#84DEEA"/>
<path d="M7.74315 37.0068C5.05827 34.3219 5.05827 29.969 7.74315 27.2841L27.7965 7.23117L37.5191 16.9538L17.4658 37.0068C14.781 39.6917 10.428 39.6917 7.74315 37.0068Z" fill="#E43950"/>
<path d="M9.80895 29.3503L29.8619 9.29702L27.7957 7.23117L7.74276 27.2841C5.4389 29.588 5.11395 33.1198 6.76455 35.7724C6.76455 35.7721 6.76422 35.7721 6.76422 35.7721C6.43289 35.7825 6.10357 35.8681 5.8048 36.0309C6.68298 37.0907 7.65884 38.0666 8.71862 38.9451C8.88143 38.646 8.96737 38.3167 8.97778 37.9853C8.94656 37.9662 8.91635 37.9461 8.88546 37.9263C7.17242 35.2645 7.47924 31.6797 9.80895 29.3503Z" fill="#C92E43"/>
<path d="M28.4042 17.5614L27.1886 16.3459C24.8395 13.9967 24.8395 10.1879 27.1886 7.83876L28.4042 6.62321C30.7534 4.27403 34.5621 4.27403 36.9117 6.62321L38.1269 7.83876C40.4761 10.1879 40.4761 13.9967 38.1269 16.3459L36.9117 17.5614C34.5621 19.9106 30.7534 19.9106 28.4042 17.5614Z" fill="#FD3D96"/>
<path d="M38.1265 16.3459L36.9113 17.5614C34.6319 19.8405 30.9789 19.9083 28.618 17.7649C26.4746 15.4036 26.5421 11.7506 28.8211 9.47158L30.0366 8.25604C32.3156 5.97702 35.969 5.90921 38.3299 8.05261C40.4733 10.4139 40.4059 14.0669 38.1265 16.3459Z" fill="#FD5CA6"/>
<path d="M28.9505 13.2471C29.454 13.7503 29.454 14.5664 28.9505 15.0699C28.4469 15.5735 27.6309 15.5735 27.1277 15.0699C26.6241 14.5664 26.6241 13.7503 27.1277 13.2471C27.6309 12.7436 28.4469 12.7436 28.9505 13.2471ZM34.1158 14.7661C33.4444 14.0951 32.3561 14.0951 31.685 14.7661C31.0136 15.4372 31.0136 16.5255 31.685 17.1969C32.3564 17.8679 33.4444 17.8679 34.1158 17.1969C34.7868 16.5255 34.7868 15.4372 34.1158 14.7661Z" fill="#FDA2CD"/>
<path d="M30.8349 13.9155C28.1501 11.2306 28.1501 6.87768 30.8349 4.19281L32.6578 2.36966L42.3804 12.0923L40.5576 13.9155C37.8728 16.6004 33.5198 16.6004 30.8349 13.9155Z" fill="#E43950"/>
<path d="M29.6726 12.3676C28.2341 9.75557 28.6202 6.40704 30.8348 4.19281L32.6576 2.36966L34.7238 4.43585L31.6854 7.4742C30.3346 8.8247 29.6642 10.5975 29.6726 12.3676Z" fill="#C92E43"/>
<path d="M33.2652 12.6999L32.05 11.4847C29.7008 9.13553 29.7008 5.32676 32.05 2.97724L33.2652 1.76204C35.6147 -0.587142 39.4235 -0.587142 41.7727 1.76204L42.9879 2.97724C45.3374 5.32676 45.3374 9.13553 42.9879 11.4847L41.7727 12.6999C39.4235 15.0494 35.6147 15.0494 33.2652 12.6999Z" fill="#FD5CA6"/>
<path d="M33.4794 12.9034C33.4068 12.8376 33.3353 12.7701 33.2655 12.6999L32.05 11.4847C29.7008 9.13554 29.7008 5.32643 32.05 2.97725L33.2655 1.76204C35.6147 -0.58747 39.4235 -0.58747 41.7727 1.76204L42.9882 2.97725C43.058 3.04741 43.1255 3.11858 43.1916 3.19109C40.8304 1.04803 37.1774 1.1155 34.898 3.39452L33.6828 4.61006C31.4034 6.88942 31.336 10.5424 33.4794 12.9034Z" fill="#FD3D96"/>
<path d="M38.6731 5.34725C37.8342 6.18614 36.474 6.18614 35.6348 5.34725C34.7959 4.50835 34.7959 3.14779 35.6348 2.30889C36.474 1.46999 37.8342 1.46999 38.6731 2.30889C39.512 3.14779 39.512 4.50835 38.6731 5.34725ZM32.5964 7.778C32.0929 8.2812 32.0929 9.09761 32.5964 9.60081C33.0999 10.1043 33.916 10.1043 34.4196 9.60081C34.9228 9.09761 34.9228 8.2812 34.4196 7.778C33.916 7.27446 33.0999 7.27446 32.5964 7.778ZM41.4077 7.4742C40.7363 6.80281 39.6483 6.80281 38.9769 7.4742C38.3059 8.14525 38.3059 9.23356 38.9769 9.90461C39.6483 10.576 40.7366 10.576 41.4077 9.90461C42.0787 9.23356 42.0787 8.14525 41.4077 7.4742Z" fill="#FDA2CD"/>
</g>
<defs>
<clipPath id="clip0_8789_10624">
<rect width="44" height="44" fill="white" transform="translate(0.75)"/>
</clipPath>
</defs>
</svg>
