<svg width="183" height="191" viewBox="0 0 183 191" fill="none" xmlns="http://www.w3.org/2000/svg">
<path opacity="0.3" d="M91.8991 190.687C127.814 190.687 156.929 183.524 156.929 174.689C156.929 165.854 127.814 158.691 91.8991 158.691C55.9841 158.691 26.8691 165.854 26.8691 174.689C26.8691 183.524 55.9841 190.687 91.8991 190.687Z" fill="#9FD7F4"/>
<path d="M174.379 94.662C176.009 105.849 168.831 176.985 92.6199 176.985C20.4809 176.985 8.93393 106.595 11.1079 93.692C13.0109 82.393 47.4649 73.908 92.6199 73.908C137.772 73.908 172.537 82.02 174.379 94.662Z" fill="#9FD7F4"/>
<path d="M174.376 96.34C174.376 115.119 137.772 130.337 92.6203 130.337C47.4653 130.337 10.8643 115.119 10.8643 96.34C10.8643 77.566 47.4653 62.347 92.6203 62.347C137.772 62.347 174.376 77.566 174.376 96.34Z" fill="#CCEFFF"/>
<path d="M169.858 96.34C169.858 112.713 135.275 125.979 92.6199 125.979C49.9599 125.979 15.3789 112.713 15.3789 96.34C15.3789 79.973 49.9599 66.705 92.6199 66.705C135.275 66.705 169.858 79.973 169.858 96.34Z" fill="#9FD7F4"/>
<mask id="mask0_6601_74130" style="mask-type:luminance" maskUnits="userSpaceOnUse" x="0" y="0" width="183" height="126">
<path d="M169.858 96.34C169.858 112.713 135.275 125.979 92.6204 125.979C49.9604 125.979 15.3794 112.713 15.3794 96.34C15.3794 79.973 -49.1016 0.315002 92.6204 0.315002C229.897 0.314002 169.858 79.973 169.858 96.34Z" fill="white"/>
</mask>
<g mask="url(#mask0_6601_74130)">
<path opacity="0.5" d="M166.395 103.168C167.263 100.904 169.954 99.963 170.828 97.701C171.232 94.539 168.935 91.417 169.348 88.705C169.744 84.645 178.162 74.162 169.137 73.387C170.49 68.241 168.457 65.981 164.866 65.381C165.759 61.966 165.507 59.216 163.477 57.909C157.014 63.546 159.863 53.3 158.551 50.891C153.346 43.52 154.803 52.683 150.498 53.767C148.542 54.164 147.844 53.299 147.328 52.286C147.745 50.434 147.753 48.789 144.955 48.578C145.507 40.277 138.979 45.123 134.198 47.125C131.806 41.504 134.618 37.658 125.701 39.532C121.985 40.534 122.76 42.214 119.724 38.725C118.043 36.851 118.851 33.523 115.233 35.396C114.974 30.42 107.448 28.901 104.022 32.521C101.663 35.138 102.245 43.021 100.888 46.703C98.8194 51.937 94.9094 56.494 92.2304 61.5C89.8374 66.476 87.4144 71.16 81.7614 73.262L80.9534 76.59C87.4474 76.749 93.2924 79.044 99.6914 75.684C106.864 71.356 113.519 67.671 121.854 65.864C124.806 65.157 128.624 64.951 132.477 64.661C134.181 67.596 136.097 70.553 137.179 72.86C132.131 75.317 127.455 79.871 121.917 80.801C121.506 80.853 121.077 80.85 120.638 80.824C116.796 80.59 112.278 77.928 111.138 83.204L111.144 83.654C109.847 86.735 109.228 89.968 109.15 93.273C106.105 91.453 98.7094 92.673 95.0344 91.712C89.6234 90.161 84.7104 86.714 79.4684 84.532C74.2814 82.634 69.3854 80.678 66.7454 75.254L63.3544 74.775C63.8264 81.252 62.1104 87.294 66.0754 93.336C69.5724 98.029 72.7154 102.513 75.1904 107.55C74.4584 107.329 73.6884 107.15 72.8644 107.031C64.5144 106.341 56.9624 105.428 49.1504 102.011C42.6054 99.32 33.8274 91.663 27.0384 91.182C21.4134 91.025 24.4314 93.408 23.2814 95.444C21.9864 97.737 16.6574 99.426 20.3014 102.494C14.9914 108.901 23.1204 108.797 28.1714 109.974C26.8164 115.931 22.2864 117.403 30.6114 121.105C34.2074 122.468 34.5654 120.654 34.9854 125.262C35.2504 127.761 32.6464 129.988 36.6744 130.587C33.9704 134.775 39.1834 140.41 44.0774 139.481C47.5244 138.743 51.6684 132.011 54.9254 129.823C59.6684 126.79 65.5034 125.387 70.6074 122.9C73.4494 121.357 76.2404 119.909 79.2334 119.292C80.5234 125.818 81.2604 133.93 84.5094 138.186C88.1124 142.509 87.9024 138.669 90.1914 138.181C92.7674 137.637 97.5604 140.516 97.4504 135.752C105.769 135.497 100.31 129.47 97.8524 124.902C103.216 121.978 107.315 124.402 104.584 115.711C103.228 112.111 101.631 113.041 104.808 109.681C106.509 107.828 109.9 108.308 107.683 104.891C108.84 104.716 109.758 104.154 110.45 103.37C112.866 112.436 118.339 121.382 124.385 128.539C129.237 134.435 130.156 134.419 134.301 132.111C134.851 131.804 135.455 131.461 136.137 131.081C138.824 129.692 136.997 127.914 141.509 128.304C144.219 128.716 145.608 131.4 148.318 131.813C157.787 132.132 152.255 123.196 156.697 118.629C158.474 116.799 162.543 117.644 164.322 115.817C167.881 112.612 166.07 111.737 166.912 107.669C167.337 106.311 165.968 104.978 166.395 103.168Z" fill="#B2D3F6"/>
<g opacity="0.5">
<path d="M71.8835 128.713C71.8175 127.789 71.4375 126.873 70.6575 126.085C69.7105 125.128 68.4595 124.482 67.1445 124.211C64.4475 123.664 61.6345 124.858 60.7405 127.586C60.1665 129.336 60.1925 131.322 61.4465 132.777C63.1225 134.717 66.1805 135.018 68.4355 134.02C70.5045 133.104 72.0395 130.872 71.8835 128.713ZM63.4955 131.213C62.7995 130.407 62.7855 129.303 63.1035 128.328C63.6005 126.814 65.1615 126.148 66.6605 126.454C67.3925 126.604 68.0885 126.966 68.6135 127.495C69.0485 127.933 69.2575 128.439 69.2945 128.958C69.3815 130.155 68.5305 131.397 67.3805 131.905C66.1255 132.457 64.4255 132.294 63.4955 131.213Z" fill="#B2D3F6"/>
</g>
<path d="M73.3391 130.175C73.2751 129.247 72.8941 128.335 72.1151 127.544C71.1661 126.59 69.9161 125.941 68.6011 125.673C65.9051 125.122 63.0911 126.32 62.1971 129.048C61.6241 130.795 61.6491 132.785 62.9031 134.237C64.5781 136.179 67.6371 136.477 69.8921 135.48C71.9611 134.566 73.4961 132.33 73.3391 130.175ZM64.9531 132.675C64.2581 131.866 64.2431 130.761 64.5601 129.787C65.0581 128.275 66.6191 127.609 68.1181 127.916C68.8511 128.066 69.5471 128.425 70.0711 128.957C70.5061 129.395 70.7151 129.901 70.7531 130.416C70.8391 131.616 69.9891 132.855 68.8391 133.363C67.5831 133.919 65.8831 133.753 64.9531 132.675Z" fill="#505235"/>
<path d="M165.82 84.805C165.409 87.517 167.706 90.638 167.301 93.8C166.426 96.062 163.737 97.003 162.868 99.267C162.44 101.077 163.809 102.411 163.381 103.769C162.538 107.836 164.349 108.711 160.791 111.916C159.012 113.743 154.943 112.898 153.167 114.728C148.723 119.294 154.254 128.231 144.787 127.912C142.076 127.499 140.689 124.814 137.978 124.401C133.467 124.012 135.294 125.791 132.606 127.178C131.926 127.559 131.321 127.903 130.77 128.21C131.758 127.581 132.828 126.85 133.942 125.807C140.162 119.411 133.853 119.499 134.217 113.185C141 114.895 149.587 116.576 141.793 107.221C137.667 101.869 129.511 98.827 124.049 94.849C120.855 92.188 118.121 89.973 116.267 86.394C113.04 81.029 114.848 81.456 116.595 77.374C116.595 77.374 116.811 77.186 117.109 76.921C117.548 76.947 117.977 76.95 118.388 76.899C124.236 75.917 129.122 70.89 134.501 68.562C140.32 65.777 169.89 53.201 165.609 69.486C174.635 70.261 166.218 80.744 165.82 84.805Z" fill="#A4B835"/>
<path d="M116.268 86.395C118.122 89.974 120.855 92.189 124.05 94.85C129.512 98.829 137.668 101.871 141.794 107.222C149.588 116.577 141.001 114.896 134.218 113.186C133.854 119.5 140.163 119.413 133.943 125.808C132.828 126.851 131.758 127.583 130.771 128.211C126.628 130.518 125.708 130.534 120.857 124.638C110.317 112.165 101.506 94.262 107.616 79.753L107.61 79.302C108.75 74.025 113.268 76.688 117.111 76.922C116.813 77.188 116.597 77.375 116.597 77.375C114.849 81.457 113.041 81.029 116.268 86.395Z" fill="#BFD760"/>
<g opacity="0.4">
<path d="M109.936 84.679C110.201 88.307 110.904 91.87 111.991 95.304C113.089 98.735 114.51 102.057 116.217 105.228C117.905 108.411 119.876 111.441 122.004 114.36C123.069 115.821 124.197 117.235 125.358 118.625L127.12 120.697C127.734 121.364 128.341 122.04 128.942 122.724C128.265 122.118 127.593 121.504 126.929 120.881L124.993 118.952C123.75 117.619 122.546 116.248 121.395 114.829C119.098 111.988 117.072 108.924 115.336 105.699C113.623 102.465 112.196 99.062 111.256 95.519C110.785 93.749 110.43 91.951 110.179 90.14C110.065 89.233 110.028 88.318 109.95 87.411C109.913 86.499 109.932 85.586 109.936 84.679Z" fill="#E5F298"/>
</g>
<g opacity="0.4">
<path d="M117.321 97.196C119.453 98.946 121.353 100.889 123.355 102.698C125.339 104.533 127.412 106.22 129.636 107.842C127.029 106.916 124.715 105.284 122.681 103.435C120.655 101.561 118.868 99.472 117.321 97.196Z" fill="#E5F298"/>
</g>
<g opacity="0.4">
<path d="M121.214 85.424C123.758 85.293 126.292 85.192 128.81 84.967C131.325 84.73 133.829 84.433 136.292 83.928C138.759 83.448 141.18 82.764 143.544 81.907C145.907 81.042 148.188 79.948 150.414 78.71C149.907 79.094 149.393 79.472 148.871 79.841L147.257 80.877C146.702 81.196 146.132 81.486 145.569 81.793C144.997 82.081 144.412 82.343 143.832 82.62C141.484 83.665 139.002 84.395 136.487 84.907C133.966 85.398 131.41 85.674 128.854 85.73C126.298 85.798 123.747 85.705 121.214 85.424Z" fill="#D1DB6F"/>
</g>
<g opacity="0.4">
<path d="M131.634 89.337C133.787 89.877 135.932 90.372 138.096 90.751C140.261 91.119 142.433 91.433 144.618 91.645C146.801 91.881 148.996 92.017 151.196 92.167C152.296 92.241 153.398 92.299 154.502 92.353C155.606 92.437 156.711 92.478 157.817 92.577C156.713 92.705 155.607 92.761 154.5 92.843C153.393 92.889 152.284 92.917 151.174 92.936C148.954 92.967 146.731 92.855 144.515 92.639C142.303 92.399 140.095 92.054 137.935 91.5C135.776 90.958 133.652 90.267 131.634 89.337Z" fill="#D1DB6F"/>
</g>
<g opacity="0.4">
<path d="M146.196 99.499C147.566 99.521 148.832 99.764 150.107 100.019C151.373 100.305 152.642 100.606 153.881 101.197C152.524 101.39 151.2 101.261 149.898 100.996C148.604 100.703 147.329 100.273 146.196 99.499Z" fill="#D1DB6F"/>
</g>
<path d="M62.2949 73.004C62.7669 79.481 61.0519 85.523 65.0149 91.565C70.0209 98.283 74.3349 104.549 76.9419 112.67C79.2529 119.358 79.3179 131.005 83.4469 136.416C87.0499 140.739 86.8399 136.898 89.1309 136.411C91.7059 135.867 96.4979 138.746 96.3889 133.982C104.707 133.727 99.2489 127.7 96.7909 123.132C102.154 120.207 106.254 122.632 103.524 113.941C102.168 110.341 100.57 111.271 103.748 107.911C105.448 106.058 108.84 106.538 106.624 103.121C111.552 102.379 112.332 94.739 108.397 91.684C105.562 89.588 97.7729 90.934 93.9759 89.941C88.5649 88.389 83.6519 84.942 78.4099 82.761C73.2229 80.863 68.3269 78.907 65.6869 73.483L62.2949 73.004Z" fill="#97A327"/>
<g opacity="0.4">
<path d="M66.3668 78.123C66.2368 82.401 67.0658 86.623 68.5068 90.592C69.9528 94.566 71.9278 98.34 74.2738 101.866C76.5598 105.436 79.2248 108.756 82.0308 111.947C83.4348 113.543 84.8908 115.095 86.3898 116.608C87.1278 117.376 87.8988 118.111 88.6528 118.866L90.9758 121.069C87.5828 118.47 84.4148 115.573 81.4628 112.466C78.5148 109.355 75.8238 105.991 73.4378 102.413C71.1288 98.792 69.1008 94.949 67.7828 90.839C67.4538 89.814 67.2188 88.758 66.9328 87.722C66.6988 86.672 66.5568 85.601 66.3708 84.544C66.2668 83.473 66.2438 82.395 66.1768 81.328C66.2068 80.256 66.2958 79.185 66.3668 78.123Z" fill="#D1DB6F"/>
</g>
<g opacity="0.4">
<path d="M70.9531 88.518C72.0871 90.417 73.3781 92.187 74.8311 93.809C76.2931 95.422 77.8681 96.926 79.5651 98.288C81.2471 99.668 83.0451 100.905 84.8901 102.077C85.8151 102.66 86.7611 103.211 87.7241 103.739L89.1701 104.534C89.6621 104.78 90.1521 105.032 90.6391 105.297C89.5761 104.987 88.5441 104.586 87.5101 104.181C86.4941 103.737 85.4941 103.256 84.5051 102.744C82.5351 101.709 80.6751 100.463 78.9351 99.065C77.2111 97.649 75.6021 96.075 74.2431 94.3L73.2631 92.943L72.3681 91.532L71.6001 90.051C71.3711 89.542 71.1581 89.029 70.9531 88.518Z" fill="#D1DB6F"/>
</g>
<g opacity="0.4">
<path d="M76.7539 89.088C78.8339 91.38 81.4419 92.89 84.1879 94.133C86.9279 95.396 89.8399 96.352 92.6249 97.7C89.6029 97.105 86.6189 96.32 83.7739 95.043C82.3639 94.39 80.9869 93.62 79.7639 92.635C78.5339 91.665 77.4689 90.461 76.7539 89.088Z" fill="#D1DB6F"/>
</g>
<g opacity="0.3">
<path d="M96.5099 120.898C100.371 114.96 102.952 105.062 94.3298 102.586C87.1288 100.384 79.9839 101.399 72.7979 100.968C75.5289 95.095 93.0518 98.627 97.6749 100.935C107.536 105.921 101.698 114.426 98.3699 121.695L96.5099 120.898Z" fill="#B2D3F6"/>
<path d="M68.5088 103.279C75.8988 104.521 83.7428 116.629 87.8358 122.146C92.7298 128.576 96.0698 136.036 103.076 140.289C104.537 137.62 98.2978 132.139 96.5418 129.876C93.1128 125.567 90.1078 121.107 87.3188 116.573C82.9258 110.205 77.8938 104.059 70.7598 100.812L68.5088 103.279Z" fill="#B2D3F6"/>
<path d="M89.0023 101.884C90.8743 100.595 96.3343 102.489 98.7123 102.846C102.656 103.654 106.034 105.536 109.951 106.662C116.222 108.464 124.448 111.868 130.753 111.266C130.845 108.224 123.339 107.767 121.042 106.455C117.469 105.036 114.092 103.15 110.518 101.733C103.051 98.871 95.2543 98.067 87.4443 99.347L89.0023 101.884Z" fill="#B2D3F6"/>
<path d="M75.5244 118.616C81.7174 107.733 93.5244 106.619 104.59 110.584C110.371 112.502 115.301 116.923 120.882 119.309C115.379 112.115 109.17 107.589 99.9784 106.19C90.3474 104.271 84.0414 108.728 77.0874 115.212L75.5244 118.616Z" fill="#B2D3F6"/>
<path d="M111.638 136.273C115.496 130.335 118.078 120.435 109.456 117.959C102.253 115.761 95.1089 116.775 87.9229 116.344C90.6559 110.471 108.178 114.001 112.801 116.309C122.661 121.298 116.823 129.803 113.494 137.068L111.638 136.273Z" fill="#B2D3F6"/>
<path d="M91.1562 120.156C106.099 119.948 118.065 134.413 133.736 131.212C133.412 127.333 125.897 128.963 122.882 128.553C118.567 128.358 114.844 126.766 110.832 124.83C104.693 121.435 98.6312 117.083 91.2882 118.565L91.1562 120.156Z" fill="#B2D3F6"/>
<path d="M115.811 100.74C119.519 98.176 121.441 92.138 124.028 88.258C127.798 82.835 133.115 78.59 137.449 73.462C141.486 68.9 145.454 64.124 146.165 57.985C144.289 61.88 140.683 66.306 138.245 69.9C135.887 72.999 133.328 75.445 130.337 78.026C126.698 80.806 123.691 84.103 121.317 87.912C118.794 92.008 117.237 97.696 114.229 100.993L115.811 100.74Z" fill="#B2D3F6"/>
<path d="M71.0815 131.217C71.5935 129.775 75.3185 128.649 76.7565 127.902C79.2265 126.779 81.8145 126.476 84.3935 125.539C88.5255 124.043 94.3595 122.646 97.5595 119.824C96.4075 118.128 92.1315 120.847 90.3585 121.04C87.8525 121.681 85.2665 121.99 82.7545 122.627C77.5515 124.02 72.9805 126.662 69.2295 130.449L71.0815 131.217Z" fill="#B2D3F6"/>
<path d="M85.2344 118.132C91.3474 116.509 100.403 122.624 104.936 125.229C110.319 128.23 114.72 132.505 121.246 133.2C121.762 130.76 115.546 128.91 113.63 127.87C109.905 125.91 106.48 123.7 103.205 121.362C98.2324 118.234 92.8104 115.493 86.4214 115.571L85.2344 118.132Z" fill="#B2D3F6"/>
<path d="M71.208 119.842C86.149 119.633 98.116 134.098 113.786 130.9C113.463 127.019 105.948 128.646 102.932 128.239C98.615 128.043 94.895 126.452 90.882 124.516C84.743 121.12 78.684 116.769 71.34 118.251L71.208 119.842Z" fill="#B2D3F6"/>
<path d="M51.3174 126.462C57.5104 115.579 69.3164 114.465 80.3864 118.427C86.1644 120.348 91.0954 124.77 96.6754 127.151C91.1714 119.959 84.9654 115.435 75.7724 114.037C66.1414 112.12 59.8364 116.574 52.8804 123.061L51.3174 126.462Z" fill="#B2D3F6"/>
</g>
<path d="M77.4248 72.688C83.9198 72.847 89.7648 75.142 96.1628 71.783C103.336 67.454 109.991 63.77 118.326 61.963C125.209 60.316 136.805 61.381 142.591 57.796C147.243 54.63 143.4 54.467 143.14 52.142C142.85 49.524 146.176 45.035 141.427 44.677C141.978 36.376 135.45 41.222 130.671 43.224C128.278 37.603 131.091 33.757 122.173 35.631C118.458 36.634 119.231 38.314 116.197 34.824C114.515 32.95 115.324 29.623 111.706 31.495C111.446 26.519 103.92 25 100.495 28.62C98.1348 31.237 98.7178 39.12 97.3618 42.803C95.2918 48.036 91.3828 52.593 88.7018 57.599C86.3098 62.576 83.8868 67.259 78.2328 69.361L77.4248 72.688Z" fill="#97A327"/>
<g opacity="0.4">
<path d="M82.917 69.134C87.161 69.679 91.444 69.264 95.534 68.216C99.63 67.163 103.577 65.564 107.315 63.572C111.09 61.643 114.653 59.313 118.101 56.831C119.826 55.589 121.512 54.29 123.163 52.945C123.999 52.285 124.806 51.589 125.63 50.912L128.049 48.814C125.133 51.939 121.942 54.81 118.563 57.447C115.18 60.079 111.571 62.431 107.778 64.458C103.95 66.404 99.929 68.049 95.71 68.962C94.658 69.19 93.584 69.322 92.526 69.505C91.458 69.635 90.378 69.673 89.308 69.755C88.233 69.754 87.157 69.673 86.088 69.635C85.024 69.5 83.968 69.308 82.917 69.134Z" fill="#D1DB6F"/>
</g>
<g opacity="0.4">
<path d="M93.7061 65.578C95.7061 64.634 97.5931 63.521 99.3491 62.232C101.096 60.934 102.747 59.513 104.267 57.956C105.804 56.416 107.21 54.747 108.556 53.025C109.226 52.161 109.867 51.273 110.485 50.366L111.416 49.004C111.709 48.539 112.007 48.075 112.318 47.616C111.906 48.644 111.407 49.632 110.903 50.622C110.363 51.59 109.786 52.539 109.181 53.473C107.96 55.333 106.538 57.063 104.977 58.659C103.4 60.237 101.678 61.685 99.7791 62.865L98.3331 63.708L96.8421 64.462L95.2931 65.082C94.7661 65.261 94.2351 65.423 93.7061 65.578Z" fill="#D1DB6F"/>
</g>
<g opacity="0.4">
<path d="M94.8379 59.861C97.3209 58.013 99.0769 55.565 100.581 52.952C102.104 50.347 103.339 47.543 104.951 44.902C104.066 47.852 102.995 50.745 101.447 53.453C100.66 54.793 99.7599 56.088 98.6609 57.21C97.5749 58.34 96.2739 59.283 94.8379 59.861Z" fill="#D1DB6F"/>
</g>
<path d="M87.5229 115.5C82.3529 111.568 78.9569 106.283 71.8039 105.26C63.4539 104.57 55.9019 103.658 48.0889 100.24C41.5439 97.55 32.7659 89.893 25.9779 89.411C20.3529 89.254 23.3709 91.637 22.2209 93.674C20.9259 95.967 15.5959 97.656 19.2409 100.724C13.9309 107.131 22.0599 107.026 27.1109 108.204C25.7559 114.161 21.2259 115.633 29.5509 119.335C33.1469 120.697 33.5059 118.884 33.9249 123.491C34.1899 125.991 31.5859 128.218 35.6129 128.817C32.9089 133.005 38.1219 138.64 43.0169 137.711C46.4639 136.973 50.6069 130.24 53.8639 128.053C58.6079 125.02 64.4429 123.616 69.5469 121.13C74.3999 118.494 79.1079 116.118 84.9199 117.725L87.5229 115.5Z" fill="#97A327"/>
<g opacity="0.4">
<path d="M80.9909 115.163C77.8689 112.236 74.1539 110.065 70.2239 108.52C66.2869 106.976 62.1509 105.96 57.9539 105.387C53.7639 104.74 49.5119 104.542 45.2629 104.535C43.1369 104.532 41.0099 104.597 38.8839 104.721C37.8199 104.767 36.7579 104.858 35.6939 104.924L32.5049 105.208C36.6989 104.383 40.9669 103.924 45.2499 103.766C49.5339 103.614 53.8359 103.82 58.0979 104.399C62.3409 105.063 66.5639 106.084 70.5179 107.814C71.5049 108.245 72.4519 108.767 73.4169 109.238C74.3589 109.757 75.2569 110.359 76.1719 110.919C77.0429 111.549 77.8679 112.245 78.7119 112.901C79.4979 113.633 80.2419 114.407 80.9909 115.163Z" fill="#D1DB6F"/>
</g>
<g opacity="0.4">
<path d="M70.1616 111.727C67.9876 111.321 65.8056 111.118 63.6286 111.135C61.4526 111.165 59.2816 111.35 57.1386 111.722C54.9906 112.071 52.8736 112.6 50.7746 113.209C49.7256 113.517 48.6866 113.862 47.6536 114.235L46.1016 114.794C45.5916 115 45.0786 115.201 44.5576 115.391C45.4936 114.799 46.4766 114.29 47.4646 113.783C48.4696 113.314 49.4926 112.883 50.5296 112.48C52.6086 111.687 54.7736 111.117 56.9736 110.737C59.1756 110.381 61.4206 110.215 63.6506 110.37L65.3166 110.533L66.9666 110.795L68.5856 111.199C69.1166 111.363 69.6416 111.542 70.1616 111.727Z" fill="#D1DB6F"/>
</g>
<g opacity="0.4">
<path d="M65.8955 115.7C62.8005 115.743 59.9425 116.7 57.1945 117.936C54.4345 119.155 51.7915 120.706 48.9385 121.904C51.3835 120.03 53.9455 118.312 56.7865 117.024C58.2095 116.399 59.6965 115.876 61.2455 115.61C62.7855 115.331 64.3935 115.328 65.8955 115.7Z" fill="#D1DB6F"/>
</g>
<path opacity="0.5" d="M111.557 62.251C106.147 66.116 101.013 69.534 95.0461 72.01C92.7041 70.822 90.4491 69.635 88.2651 68.386C88.5421 68.052 88.8261 67.728 89.1241 67.435C89.4361 67.127 89.7591 66.843 90.1021 66.612C95.1551 63.509 102.144 64.089 107.724 62.309C113.941 60.584 144.496 50.635 130.569 41.172C136.863 34.659 123.629 32.286 120.663 29.484C118.571 27.713 118.25 23.852 115.869 21.736C113.724 20.599 111.077 21.66 108.933 20.524C107.424 19.439 107.581 17.534 106.364 16.795C103.054 14.282 103.847 12.431 99.0581 12.356C96.5141 12.146 94.0051 15.458 91.4641 15.246C85.1121 14.724 83.4111 4.351 76.4831 10.812C74.7121 12.904 75.4291 15.841 73.6571 17.933C70.5111 21.191 70.7201 18.651 67.7831 19.37C67.0191 19.532 66.3381 19.668 65.7201 19.798C61.0791 20.781 60.3761 21.371 60.5951 29.007C60.6611 33.36 61.0781 37.923 61.9171 42.404C60.8761 41.467 59.8111 40.687 58.7201 40.149C53.6431 37.919 55.4071 41.132 53.7061 42.615C47.1971 35.931 39.7371 31.214 37.0411 40.56C28.8941 36.603 30.7511 49.919 29.0101 53.607C27.9751 56.146 24.4031 57.651 23.1321 60.574C22.7181 62.966 24.5501 65.148 24.1351 67.541C23.5741 69.312 21.7161 69.756 21.3901 71.143C20.0291 75.069 18.0241 74.892 19.4391 79.467C20.0291 81.947 23.9571 83.308 24.5471 85.787C26.0221 91.987 16.6911 96.828 24.9871 101.404C27.5261 102.438 30.0941 100.842 32.6341 101.876C36.7061 103.856 34.2281 104.445 35.8221 107.014C36.2151 107.69 36.5571 108.296 36.8731 108.841C39.2481 112.947 40.0271 113.433 47.2161 110.853C48.0861 110.553 48.9611 110.234 49.8351 109.9C49.9651 110.368 50.0881 111.002 50.2311 111.86C50.6791 114.337 48.2461 116.747 52.3081 117.049C49.9191 121.421 55.5271 126.664 60.3431 125.379C63.7251 124.387 67.3651 117.371 70.4531 114.95C74.9601 111.581 80.6781 109.751 85.5891 106.897C88.7971 104.838 91.9571 102.94 95.5481 102.33C96.2651 103.841 96.6771 105.166 99.1721 103.618C99.8161 108.561 107.438 109.494 110.572 105.618C112.722 102.827 111.534 95.013 112.605 91.238C114.262 85.859 117.806 81.016 120.095 75.817C122.093 70.67 124.148 65.813 129.625 63.282L130.171 59.901C123.683 60.242 117.677 58.407 111.557 62.251Z" fill="#B2D3F6"/>
<path d="M27.9525 51.834C26.9175 54.374 23.3455 55.879 22.0745 58.802C21.6615 61.194 23.4915 63.376 23.0775 65.769C22.5165 67.54 20.6595 67.984 20.3325 69.371C18.9715 73.297 16.9665 73.12 18.3815 77.694C18.9725 80.175 22.9005 81.536 23.4895 84.014C24.9645 90.214 15.6335 95.056 23.9295 99.632C26.4685 100.665 29.0365 99.07 31.5765 100.104C35.6485 102.083 33.1715 102.673 34.7645 105.242C35.1575 105.918 35.4995 106.524 35.8155 107.068C35.2865 106.024 34.7455 104.847 34.3215 103.382C32.2535 94.701 37.6285 98.01 40.5525 92.401C33.8505 90.392 25.6145 87.438 37.0995 83.395C43.3875 80.916 51.9485 82.481 58.6795 81.864C62.7845 81.215 66.2675 80.714 69.6925 78.589C75.2135 75.638 73.4415 75.078 74.0315 70.679C74.0315 70.679 73.9435 70.406 73.8215 70.025C73.4325 69.824 73.0625 69.605 72.7345 69.349C68.2175 65.511 66.5955 58.691 63.1705 53.938C59.6005 48.565 40.6515 22.611 35.9835 38.789C27.8355 34.831 29.6935 48.146 27.9525 51.834Z" fill="#A4B835"/>
<path d="M69.6912 78.588C66.2672 80.713 62.7842 81.214 58.6782 81.863C51.9472 82.48 43.3852 80.916 37.0982 83.394C25.6132 87.437 33.8492 90.391 40.5512 92.4C37.6272 98.009 32.2512 94.701 34.3202 103.381C34.7442 104.846 35.2852 106.023 35.8142 107.067C38.1892 111.174 38.9682 111.659 46.1572 109.08C61.5972 103.77 78.3382 92.906 80.5242 77.319L80.7602 76.934C82.4862 71.82 77.2422 71.789 73.8202 70.023C73.9422 70.405 74.0302 70.677 74.0302 70.677C73.4402 75.077 75.2122 75.637 69.6912 78.588Z" fill="#BFD760"/>
<g opacity="0.4">
<path d="M76.0093 80.357C75.5473 81.138 75.0963 81.932 74.5983 82.696C74.0663 83.434 73.5653 84.202 73.0033 84.922C71.8603 86.348 70.6343 87.711 69.3233 88.99C66.7003 91.551 63.7323 93.743 60.6043 95.643C57.4613 97.523 54.1513 99.117 50.7233 100.38C49.0083 101.009 47.2713 101.569 45.5213 102.077L42.8703 102.742C41.9803 102.937 41.0883 103.119 40.1963 103.293C41.0633 103.014 41.9303 102.744 42.7993 102.486L45.3743 101.609C47.0833 101.01 48.7773 100.373 50.4403 99.665C53.7633 98.248 57.0083 96.656 60.0883 94.787C63.1793 92.938 66.1013 90.813 68.8023 88.429C71.4933 86.037 73.9223 83.337 76.0093 80.357Z" fill="#E5F298"/>
</g>
<g opacity="0.4">
<path d="M63.2536 87.325C60.7586 88.486 58.1546 89.366 55.4546 89.938C52.7606 90.484 49.9356 90.699 47.2236 90.157C49.9656 89.906 52.6086 89.519 55.2526 88.959C57.8996 88.432 60.5266 87.735 63.2536 87.325Z" fill="#E5F298"/>
</g>
<g opacity="0.4">
<path d="M65.9416 75.221C63.6226 74.164 61.3836 72.937 59.2236 71.57C57.0576 70.213 55.0036 68.666 53.0906 66.952C51.1936 65.224 49.4356 63.325 47.9556 61.225C47.5996 60.69 47.2316 60.165 46.8876 59.624C46.5606 59.072 46.2196 58.53 45.9066 57.972L45.0516 56.255C44.7926 55.671 44.5446 55.083 44.3066 54.493C45.5846 56.697 46.9816 58.805 48.5676 60.758C50.1596 62.705 51.8876 64.533 53.7596 66.209C55.6156 67.904 57.6136 69.442 59.6526 70.935C61.6996 72.419 63.8246 73.804 65.9416 75.221Z" fill="#D1DB6F"/>
</g>
<g opacity="0.4">
<path d="M54.9908 73.243C52.7818 73.007 50.6028 72.512 48.4698 71.87C46.3318 71.239 44.2588 70.405 42.2348 69.477C40.2208 68.528 38.2538 67.485 36.3628 66.322C35.4188 65.737 34.4818 65.145 33.5538 64.539C32.6448 63.901 31.7238 63.287 30.8408 62.612C31.8418 63.094 32.8128 63.624 33.8038 64.118C34.7798 64.637 35.7558 65.151 36.7388 65.651C38.7048 66.648 40.6608 67.655 42.6568 68.571C44.6428 69.508 46.6678 70.351 48.7168 71.145C50.7698 71.928 52.8658 72.603 54.9908 73.243Z" fill="#D1DB6F"/>
</g>
<g opacity="0.4">
<path d="M37.2766 74.509C35.9066 74.594 34.5916 74.309 33.3296 73.898C32.0756 73.458 30.8726 72.891 29.8066 72.03C31.1736 72.157 32.4166 72.549 33.6516 72.952C34.8766 73.385 36.0896 73.825 37.2766 74.509Z" fill="#D1DB6F"/>
</g>
<path d="M135.123 86.624C136.496 83.259 135.522 75.438 134.44 71.134C133.433 66.198 122.997 54.338 126.064 50.216C128.348 47.283 129.584 50.323 131.91 49.642C132.9 49.44 133.657 51.136 134.643 50.938C135.988 50.457 135.939 48.206 136.926 48.004C139.256 47.324 138.145 45.904 141.661 46.011C144.191 46.317 143.022 50.671 146.971 49.866C151.276 48.782 149.82 39.619 155.024 46.991C156.335 49.399 153.487 59.645 159.95 54.01C169.179 59.944 141.72 95.771 136.238 88.046L135.123 86.624Z" fill="#BFD760"/>
<g opacity="0.4">
<path d="M138.534 55.901C139.099 58.619 139.518 61.362 139.844 64.12C140.181 66.877 140.364 69.654 140.431 72.435C140.475 75.216 140.398 78.005 140.104 80.773C139.951 82.156 139.771 83.535 139.555 84.908C139.297 86.275 139.038 87.639 138.691 88.983C138.75 88.291 138.818 87.601 138.897 86.914L139.069 84.847C139.186 83.471 139.279 82.094 139.337 80.717C139.448 77.963 139.498 75.209 139.432 72.455C139.391 69.7 139.236 66.947 139.082 64.188L138.534 55.901Z" fill="#E5F298"/>
</g>
<g opacity="0.4">
<path d="M147.622 55.081C147.818 57.785 147.77 60.504 147.571 63.212C147.384 65.923 146.986 68.616 146.468 71.283C145.927 73.945 145.264 76.584 144.426 79.165C144.003 80.454 143.561 81.736 143.094 83.008C142.589 84.267 142.097 85.528 141.529 86.76L142.628 82.855C142.999 81.558 143.356 80.258 143.686 78.952C144.344 76.34 144.974 73.726 145.487 71.088C146.024 68.454 146.442 65.799 146.808 63.134C147.164 60.466 147.405 57.782 147.622 55.081Z" fill="#E5F298"/>
</g>
<g opacity="0.4">
<path d="M155.031 60.152C154.778 62.59 154.315 65.002 153.724 67.385C153.143 69.771 152.375 72.112 151.482 74.403C150.567 76.686 149.525 78.922 148.28 81.045C147.652 82.103 146.999 83.143 146.313 84.161C145.588 85.154 144.863 86.142 144.06 87.069C144.366 86.537 144.678 86.011 144.999 85.494L145.897 83.902C146.493 82.841 147.065 81.77 147.603 80.682C148.671 78.503 149.671 76.295 150.553 74.036C151.456 71.786 152.238 69.489 152.988 67.177C153.726 64.86 154.373 62.512 155.031 60.152Z" fill="#E5F298"/>
</g>
<path d="M119.607 27.713C117.515 25.942 117.193 22.08 114.813 19.965C112.667 18.828 110.021 19.889 107.876 18.753C106.367 17.667 106.525 15.763 105.308 15.024C101.997 12.511 102.791 10.66 98.0011 10.585C95.4591 10.375 92.9481 13.686 90.4071 13.475C84.0551 12.951 82.3541 2.579 75.4271 9.041C73.6541 11.133 74.3731 14.07 72.6011 16.161C69.4551 19.42 69.6641 16.88 66.7261 17.599C65.9621 17.761 65.2801 17.897 64.6631 18.027C65.8211 17.852 67.1081 17.702 68.6311 17.755C77.5241 18.486 72.7101 22.567 77.1341 27.089C81.1241 21.343 86.4931 14.432 86.7641 26.605C87.1691 33.351 83.0211 41.003 81.5171 47.592C80.8571 51.696 80.2531 55.163 81.2071 59.079C82.2991 65.244 83.3841 63.732 87.3811 65.663C87.3811 65.663 87.6651 65.66 88.0661 65.665C88.3771 65.357 88.7001 65.073 89.0441 64.842C94.0971 61.739 101.085 62.318 106.667 60.539C112.883 58.814 143.439 48.865 129.511 39.402C135.808 32.888 122.572 30.514 119.607 27.713Z" fill="#A4B835"/>
<path d="M81.2089 59.077C80.2539 55.161 80.8589 51.694 81.5189 47.59C83.0219 41.001 87.1699 33.349 86.7659 26.603C86.4949 14.43 81.1249 21.341 77.1359 27.087C72.7119 22.565 77.5259 18.484 68.6329 17.753C67.1099 17.7 65.8229 17.851 64.6649 18.025C60.0239 19.007 59.3199 19.598 59.5389 27.234C59.7899 43.56 64.9139 62.847 79.0499 69.769L79.3409 70.113C83.6679 73.341 85.3249 68.364 88.0689 65.663C87.6679 65.658 87.3839 65.661 87.3839 65.661C83.3859 63.73 82.3009 65.242 81.2089 59.077Z" fill="#BFD760"/>
<g opacity="0.4">
<path d="M77.5616 64.531C76.9626 63.849 76.3486 63.173 75.7776 62.463C75.2406 61.728 74.6666 61.013 74.1566 60.255C73.1556 58.726 72.2416 57.137 71.4336 55.493C69.8146 52.204 68.6536 48.702 67.8196 45.138C67.0086 41.567 66.5226 37.925 66.3876 34.274C66.3226 32.448 66.3296 30.623 66.3906 28.802L66.5826 26.076C66.6736 25.17 66.7776 24.265 66.8896 23.364C66.8856 24.275 66.8726 25.183 66.8476 26.089L66.8816 28.809C66.9196 30.62 66.9986 32.427 67.1556 34.228C67.4696 37.827 67.9746 41.406 68.7936 44.914C69.5906 48.426 70.7016 51.864 72.1286 55.172C73.5676 58.475 75.3786 61.622 77.5616 64.531Z" fill="#E5F298"/>
</g>
<g opacity="0.4">
<path d="M74.9062 50.242C74.5762 47.51 74.5492 44.762 74.8442 42.017C75.1622 39.287 75.8352 36.536 77.1922 34.125C76.5812 36.809 76.1272 39.442 75.8372 42.129C75.5172 44.809 75.3622 47.522 74.9062 50.242Z" fill="#E5F298"/>
</g>
<g opacity="0.4">
<path d="M85.5752 56.56C87.3002 54.683 89.1622 52.937 91.1322 51.308C93.0952 49.671 95.2042 48.199 97.4262 46.912C99.6582 45.646 102.009 44.565 104.465 43.81C105.084 43.638 105.698 43.451 106.318 43.292C106.944 43.153 107.565 42.997 108.193 42.873L110.091 42.594C110.727 42.529 111.363 42.476 111.997 42.433C109.505 42.963 107.067 43.636 104.717 44.537C102.372 45.445 100.098 46.52 97.9232 47.779C95.7352 49.017 93.6522 50.438 91.6012 51.913C89.5562 53.397 87.5792 54.986 85.5752 56.56Z" fill="#D1DB6F"/>
</g>
<g opacity="0.4">
<path d="M90.8594 46.764C91.7694 44.737 92.9164 42.82 94.1894 40.992C95.4534 39.155 96.8904 37.444 98.4004 35.809C99.9284 34.19 101.531 32.645 103.224 31.208C104.073 30.493 104.927 29.786 105.792 29.092C106.681 28.427 107.551 27.742 108.467 27.113C107.698 27.915 106.892 28.672 106.115 29.461C105.318 30.227 104.526 30.995 103.745 31.774C102.186 33.333 100.621 34.878 99.1304 36.491C97.6224 38.088 96.1924 39.751 94.8014 41.451C93.4194 43.159 92.1274 44.942 90.8594 46.764Z" fill="#D1DB6F"/>
</g>
<g opacity="0.4">
<path d="M95.1592 29.532C95.5042 28.204 96.1832 27.041 96.9662 25.97C97.7742 24.915 98.6872 23.948 99.8372 23.202C99.2912 24.461 98.5322 25.521 97.7662 26.569C96.9712 27.6 96.1772 28.615 95.1592 29.532Z" fill="#D1DB6F"/>
</g>
<g opacity="0.7">
<path d="M34.4917 56.582C22.9577 66.358 21.5317 83.632 31.3097 95.168C41.0857 106.701 58.3567 108.124 69.8917 98.349C81.4257 88.574 82.8537 71.299 73.0777 59.765C63.3017 48.23 46.0267 46.806 34.4917 56.582ZM65.5217 93.193C56.8367 100.555 43.8287 99.482 36.4657 90.795C29.1027 82.108 30.1767 69.101 38.8617 61.739C47.5487 54.375 60.5567 55.448 67.9197 64.135C75.2817 72.822 74.2087 85.83 65.5217 93.193Z" fill="#B2D3F6"/>
</g>
<g opacity="0.7">
<path d="M118.655 85.691C128.583 74.288 127.386 56.996 115.981 47.069C105.938 38.325 91.335 38.219 81.21 46.106L85.367 51.432C92.99 45.5 103.984 45.583 111.544 52.164C120.13 59.643 121.033 72.663 113.557 81.254C112.686 82.253 111.731 83.14 110.724 83.934L114.883 89.26C116.223 88.207 117.495 87.024 118.655 85.691Z" fill="#B2D3F6"/>
</g>
<g opacity="0.7">
<path d="M120.746 70.309C109.211 80.086 107.786 97.359 117.562 108.894C127.338 120.428 144.614 121.853 156.145 112.078C167.68 102.302 169.107 85.026 159.331 73.493C149.553 61.957 132.28 60.534 120.746 70.309ZM151.776 106.922C143.09 114.282 130.083 113.21 122.719 104.523C115.355 95.836 116.431 82.83 125.117 75.467C133.802 68.103 146.812 69.176 154.175 77.863C161.536 86.55 160.463 99.56 151.776 106.922Z" fill="#B2D3F6"/>
</g>
<g opacity="0.7">
<path d="M20.726 89.95C11.992 102.29 14.914 119.376 27.258 128.109C38.126 135.801 52.667 134.443 61.95 125.582L57.28 120.701C50.289 127.365 39.344 128.383 31.161 122.595C21.867 116.015 19.665 103.149 26.242 93.853C27.009 92.772 27.871 91.794 28.792 90.903L24.122 86.02C22.894 87.201 21.747 88.505 20.726 89.95Z" fill="#B2D3F6"/>
</g>
<path d="M129.114 58.128C122.627 58.471 116.619 56.636 110.501 60.479C103.685 65.348 97.334 69.535 89.164 71.981C82.428 74.155 70.781 73.99 65.291 78.009C60.897 81.524 64.741 81.389 65.18 83.688C65.672 86.275 62.7 91.008 67.464 90.998C67.556 99.319 73.688 93.982 78.303 91.617C81.121 97.037 78.614 101.087 87.358 98.532C90.986 97.246 90.086 95.632 93.382 98.875C95.202 100.613 94.653 103.994 98.115 101.846C98.758 106.79 106.38 107.722 109.514 103.847C111.664 101.056 110.476 93.242 111.546 89.467C113.204 84.088 116.748 79.244 119.036 74.045C121.033 68.899 123.09 64.042 128.567 61.511L129.114 58.128Z" fill="#97A327"/>
<g opacity="0.4">
<path d="M123.912 62.097C119.638 61.882 115.4 62.626 111.403 63.987C107.401 65.353 103.589 67.252 100.016 69.527C96.4014 71.742 93.0294 74.34 89.7824 77.08C88.1584 78.452 86.5774 79.876 85.0354 81.345C84.2534 82.068 83.5024 82.824 82.7324 83.562L80.4824 85.84C83.1484 82.499 86.1084 79.391 89.2744 76.501C92.4444 73.616 95.8604 70.992 99.4864 68.679C103.153 66.443 107.035 64.492 111.17 63.256C112.201 62.947 113.261 62.733 114.303 62.469C115.358 62.256 116.431 62.135 117.492 61.971C118.564 61.889 119.643 61.887 120.711 61.842C121.783 61.894 122.851 62.004 123.912 62.097Z" fill="#D1DB6F"/>
</g>
<g opacity="0.4">
<path d="M113.43 66.474C111.509 67.57 109.713 68.825 108.062 70.246C106.42 71.675 104.884 73.22 103.489 74.889C102.076 76.543 100.802 78.316 99.5938 80.137C98.9928 81.05 98.4228 81.985 97.8758 82.937L97.0518 84.367C96.7958 84.853 96.5338 85.339 96.2598 85.821C96.5918 84.764 97.0128 83.74 97.4388 82.715C97.9028 81.708 98.4048 80.717 98.9358 79.74C100.01 77.791 101.294 75.957 102.727 74.245C104.177 72.55 105.783 70.973 107.585 69.649L108.962 68.697L110.391 67.83L111.887 67.092C112.398 66.872 112.914 66.669 113.43 66.474Z" fill="#D1DB6F"/>
</g>
<g opacity="0.4">
<path d="M112.742 72.263C110.41 74.297 108.848 76.874 107.55 79.594C106.232 82.308 105.218 85.2 103.814 87.957C104.469 84.947 105.314 81.98 106.649 79.162C107.33 77.766 108.127 76.405 109.137 75.201C110.131 73.992 111.355 72.95 112.742 72.263Z" fill="#D1DB6F"/>
</g>
<path d="M95.4532 119.126C99.3142 113.188 101.895 103.289 93.2742 100.814C86.0722 98.612 78.9272 99.628 71.7402 99.196C74.4722 93.323 91.9952 96.855 96.6182 99.163C106.479 104.15 100.641 112.654 97.3132 119.923L95.4532 119.126Z" fill="#A555A1"/>
<path d="M102.045 98.195C96.6032 94.653 92.8292 89.632 85.6192 89.136C77.2422 89.056 69.6442 88.701 61.6012 85.865C54.8792 83.657 45.5642 76.666 38.7562 76.679C33.1362 76.934 36.3232 79.092 35.3222 81.204C34.1952 83.587 29.0092 85.661 32.8652 88.458C28.0392 95.238 36.1382 94.534 41.2602 95.34C40.3472 101.379 35.9372 103.179 44.5072 106.263C48.1972 107.36 48.4202 105.524 49.1722 110.086C49.6212 112.562 47.1882 114.973 51.2502 115.275C48.8612 119.648 54.4702 124.891 59.2852 123.606C62.6672 122.614 66.3072 115.598 69.3952 113.177C73.9012 109.807 79.6202 107.978 84.5312 105.124C89.1752 102.144 93.6962 99.429 99.6142 100.607L102.045 98.195Z" fill="#97A327"/>
<g opacity="0.4">
<path d="M95.5059 98.341C92.1779 95.65 88.3149 93.756 84.2829 92.502C80.2439 91.249 76.0449 90.539 71.8169 90.274C67.5909 89.935 63.3359 90.049 59.0979 90.353C56.9779 90.506 54.8609 90.726 52.7499 91.005C51.6919 91.129 50.6399 91.297 49.5829 91.442L46.4229 91.959C50.5449 90.829 54.7679 90.059 59.0279 89.587C63.2889 89.121 67.5949 89.013 71.8869 89.278C76.1669 89.63 80.4539 90.34 84.5229 91.776C85.5379 92.134 86.5209 92.585 87.5189 92.985C88.4959 93.434 89.4359 93.969 90.3889 94.46C91.3039 95.025 92.1769 95.658 93.0669 96.251C93.9039 96.924 94.7029 97.641 95.5059 98.341Z" fill="#D1DB6F"/>
</g>
<g opacity="0.4">
<path d="M84.4565 95.706C82.2585 95.46 80.0685 95.417 77.8975 95.593C75.7295 95.781 73.5785 96.125 71.4675 96.653C69.3505 97.158 67.2784 97.84 65.2294 98.6C64.2054 98.984 63.1945 99.404 62.1925 99.851L60.6854 100.521C60.1914 100.763 59.6945 101.001 59.1895 101.23C60.0795 100.571 61.0235 99.992 61.9715 99.414C62.9395 98.873 63.9284 98.368 64.9334 97.891C66.9484 96.949 69.0665 96.222 71.2325 95.682C73.4025 95.166 75.6294 94.837 77.8644 94.828L79.5375 94.869L81.2025 95.01L82.8465 95.295C83.3875 95.42 83.9245 95.56 84.4565 95.706Z" fill="#D1DB6F"/>
</g>
<g opacity="0.4">
<path d="M80.4922 99.979C77.4092 100.248 74.6292 101.411 71.9782 102.846C69.3152 104.265 66.7922 106.005 64.0342 107.407C66.3362 105.36 68.7662 103.459 71.5042 101.966C72.8772 101.238 74.3222 100.608 75.8472 100.229C77.3632 99.837 78.9662 99.717 80.4922 99.979Z" fill="#D1DB6F"/>
</g>
<path d="M67.4512 101.508C74.8422 102.749 82.6862 114.858 86.7782 120.374C91.6732 126.805 95.0122 134.264 102.019 138.518C103.478 135.849 97.2392 130.368 95.4852 128.105C92.0562 123.796 89.0512 119.336 86.2622 114.802C81.8692 108.434 76.8362 102.289 69.7032 99.041L67.4512 101.508Z" fill="#D15D16"/>
<path d="M87.9457 100.112C89.8167 98.822 95.2777 100.717 97.6547 101.074C101.599 101.881 104.978 103.763 108.895 104.891C115.165 106.692 123.392 110.096 129.697 109.494C129.788 106.451 122.283 105.995 119.985 104.682C116.413 103.264 113.036 101.378 109.462 99.96C101.994 97.099 94.1977 96.294 86.3887 97.575L87.9457 100.112Z" fill="#DE741D"/>
<path d="M74.4668 116.844C80.6598 105.962 92.4678 104.848 103.534 108.812C109.314 110.731 114.244 115.152 119.826 117.538C114.322 110.344 108.115 105.818 98.9228 104.419C89.2908 102.5 82.9858 106.957 76.0308 113.442L74.4668 116.844Z" fill="#DE741D"/>
<path d="M110.58 134.502C114.439 128.564 117.021 118.663 108.399 116.188C101.195 113.989 94.0512 115.004 86.8662 114.573C89.5982 108.7 107.12 112.229 111.743 114.537C121.603 119.527 115.765 128.031 112.437 135.297L110.58 134.502Z" fill="#D15D16"/>
<path d="M104.85 85.723C101.544 80.135 100.388 73.959 94.1456 70.318C86.6716 66.534 80.0176 62.846 74.0646 56.74C69.0186 51.779 63.7716 41.381 57.6626 38.378C52.5126 36.113 54.4126 39.459 52.5796 40.911C50.5126 42.548 44.9426 42.107 47.1596 46.322C39.8286 50.26 47.3996 53.221 51.6346 56.212C48.1376 61.222 43.3866 60.877 49.7016 67.445C52.5216 70.062 53.5366 68.516 52.1876 72.939C51.4916 75.357 48.2426 76.438 51.7486 78.511C47.6676 81.371 50.3736 88.556 55.2566 89.539C58.7276 90.152 65.1006 85.476 68.9436 84.675C74.4766 83.653 80.4136 84.55 86.0806 84.167C91.5646 83.555 96.8216 83.127 101.603 86.805L104.85 85.723Z" fill="#97A327"/>
<g opacity="0.4">
<path d="M98.9248 82.951C97.1348 79.064 94.5118 75.653 91.4538 72.742C88.3888 69.829 84.9398 67.33 81.2678 65.218C77.6298 63.041 73.7658 61.256 69.8318 59.65C67.8638 58.847 65.8688 58.106 63.8528 57.42C62.8498 57.062 61.8318 56.747 60.8208 56.407L57.7588 55.47C61.9548 56.284 66.0818 57.466 70.1088 58.932C74.1348 60.404 78.0428 62.216 81.7728 64.356C85.4538 66.569 88.9808 69.106 91.9928 72.197C92.7438 72.968 93.4248 73.808 94.1418 74.609C94.8188 75.445 95.4238 76.34 96.0608 77.204C96.6308 78.116 97.1318 79.071 97.6668 79.997C98.1178 80.971 98.5148 81.968 98.9248 82.951Z" fill="#D1DB6F"/>
</g>
<g opacity="0.4">
<path d="M90.1888 75.692C88.3278 74.497 86.3828 73.487 84.3598 72.683C82.3328 71.89 80.2528 71.245 78.1268 70.782C76.0058 70.296 73.8458 69.989 71.6718 69.762C70.5838 69.652 69.4908 69.58 68.3948 69.537L66.7468 69.47C66.1968 69.468 65.6458 69.461 65.0918 69.442C66.1818 69.246 67.2848 69.145 68.3908 69.047C69.4978 68.991 70.6088 68.977 71.7208 68.995C73.9458 69.044 76.1658 69.331 78.3468 69.808C80.5208 70.308 82.6628 71 84.6698 71.984L86.1508 72.763L87.5808 73.628L88.9278 74.612C89.3578 74.962 89.7768 75.326 90.1888 75.692Z" fill="#D1DB6F"/>
</g>
<g opacity="0.4">
<path d="M84.7403 77.763C81.8573 76.639 78.8493 76.449 75.8383 76.559C72.8223 76.649 69.7903 77.09 66.6963 77.125C69.6663 76.31 72.6873 75.684 75.8033 75.56C77.3563 75.517 78.9313 75.592 80.4663 75.929C81.9983 76.25 83.4883 76.853 84.7403 77.763Z" fill="#D1DB6F"/>
</g>
<g opacity="0.7">
<path d="M33.436 54.811C21.902 64.586 20.476 81.861 30.254 93.396C40.031 104.929 57.302 106.353 68.836 96.579C80.371 86.803 81.798 69.528 72.023 57.993C62.246 46.459 44.971 45.034 33.436 54.811ZM64.466 91.421C55.781 98.783 42.773 97.71 35.41 89.024C28.047 80.337 29.12 67.33 37.806 59.968C46.493 52.604 59.501 53.677 66.864 62.365C74.227 71.05 73.154 84.059 64.466 91.421Z" fill="#FDFCFF"/>
<path d="M68.0782 61.334C71.8752 65.75 73.8142 71.703 73.3342 77.524C72.8972 83.348 70.0462 88.942 65.5792 92.73C61.1392 96.548 55.1512 98.497 49.2982 98.013C43.4422 97.573 37.8162 94.705 34.0072 90.214C30.1972 85.723 28.2922 79.701 28.8172 73.852C29.2992 67.998 32.2032 62.411 36.6972 58.656C41.1662 54.87 47.1522 52.974 52.9682 53.497C58.7882 53.977 64.3442 56.865 68.0782 61.334ZM68.0782 61.334C64.3112 56.891 58.7492 54.057 52.9572 53.622C47.1682 53.144 41.2492 55.072 36.8582 58.848C32.4412 62.594 29.6242 68.125 29.1912 73.884C28.7162 79.641 30.6352 85.524 34.3872 89.893C38.0802 94.312 43.5712 97.167 49.3282 97.642C55.0802 98.159 60.9982 96.285 65.4172 92.541C69.8612 88.827 72.7322 83.304 73.2092 77.515C73.7282 71.729 71.8432 65.777 68.0782 61.334Z" fill="#E7E7E3"/>
<path d="M69.4933 60.137C73.6053 64.923 75.7023 71.373 75.1803 77.678C74.7043 83.986 71.6153 90.044 66.7763 94.145C61.9663 98.278 55.4813 100.386 49.1443 99.86C42.8043 99.381 36.7143 96.276 32.5923 91.413C28.4673 86.552 26.4033 80.033 26.9703 73.701C27.4913 67.363 30.6333 61.312 35.4983 57.243C40.3373 53.142 46.8203 51.088 53.1203 51.652C59.4263 52.17 65.4453 55.297 69.4933 60.137ZM69.4933 60.137C65.4133 55.323 59.3863 52.251 53.1113 51.777C46.8383 51.257 40.4233 53.344 35.6613 57.434C30.8733 61.494 27.8173 67.488 27.3463 73.731C26.8293 79.972 28.9063 86.352 32.9733 91.09C36.9803 95.88 42.9353 98.974 49.1763 99.487C55.4123 100.046 61.8273 98.013 66.6163 93.954C71.4313 89.927 74.5413 83.94 75.0563 77.667C75.6173 71.399 73.5733 64.95 69.4933 60.137Z" fill="#E7E7E3"/>
</g>
<g opacity="0.7">
<path d="M117.599 83.919C127.526 72.515 126.33 55.223 114.925 45.296C104.882 36.552 90.2793 36.447 80.1543 44.333L84.3123 49.66C91.9353 43.728 102.928 43.811 110.489 50.392C119.075 57.871 119.977 70.891 112.501 79.481C111.629 80.48 110.676 81.367 109.668 82.162L113.826 87.488C115.166 86.436 116.439 85.253 117.599 83.919Z" fill="#FDFCFF"/>
<path d="M111.786 84.875C116.693 80.937 119.96 75.062 120.67 68.847C121.414 62.636 119.6 56.179 115.72 51.302C111.932 46.344 106.102 43.036 99.9053 42.246C96.8093 41.82 93.6313 42.078 90.6143 42.886C87.5883 43.675 84.7083 45.057 82.1943 46.948C84.6583 44.993 87.5143 43.526 90.5493 42.65C93.5893 41.8 96.8033 41.514 99.9463 41.916C106.235 42.66 112.205 45.966 116.114 50.995C120.031 56.012 121.81 62.599 121 68.888C120.608 72.031 119.585 75.091 118.013 77.835C116.415 80.563 114.29 82.972 111.786 84.875Z" fill="#E7E7E3"/>
<path d="M110.646 83.414C115.176 79.78 118.177 74.346 118.806 68.617C119.475 62.897 117.834 56.946 114.26 52.441C110.761 47.869 105.379 44.85 99.675 44.108C93.967 43.337 87.981 44.928 83.332 48.405C87.867 44.778 93.898 43.007 99.722 43.726C105.542 44.401 111.051 47.487 114.653 52.133C118.273 56.76 119.95 62.848 119.186 68.663C118.815 71.568 117.86 74.392 116.401 76.921C114.924 79.439 112.96 81.661 110.646 83.414Z" fill="#E7E7E3"/>
</g>
<g opacity="0.7">
<path d="M119.69 68.537C108.156 78.314 106.729 95.587 116.505 107.122C126.281 118.656 143.557 120.082 155.09 110.306C166.624 100.53 168.051 83.253 158.275 71.72C148.498 60.186 131.225 58.763 119.69 68.537ZM150.719 105.15C142.033 112.51 129.027 111.438 121.662 102.751C114.3 94.064 115.374 81.057 124.061 73.695C132.745 66.331 145.755 67.404 153.118 76.091C160.481 84.778 159.407 97.788 150.719 105.15Z" fill="#FDFCFF"/>
<path d="M154.332 75.062C158.128 79.478 160.067 85.432 159.587 91.253C159.15 97.077 156.299 102.672 151.832 106.459C147.391 110.276 141.403 112.225 135.55 111.741C129.694 111.301 124.068 108.434 120.259 103.942C116.449 99.451 114.544 93.429 115.069 87.58C115.551 81.726 118.456 76.139 122.95 72.384C127.419 68.598 133.405 66.702 139.222 67.225C145.042 67.705 150.597 70.593 154.332 75.062ZM154.332 75.062C150.565 70.62 145.002 67.786 139.211 67.35C133.422 66.872 127.503 68.8 123.112 72.575C118.695 76.321 115.877 81.851 115.444 87.611C114.969 93.368 116.888 99.251 120.639 103.62C124.333 108.039 129.824 110.893 135.581 111.368C141.334 111.885 147.251 110.011 151.671 106.268C156.115 102.554 158.986 97.031 159.463 91.242C159.982 85.457 158.097 79.506 154.332 75.062Z" fill="#E7E7E3"/>
<path d="M155.745 73.862C159.856 78.648 161.954 85.098 161.431 91.403C160.955 97.711 157.867 103.77 153.029 107.871C148.219 112.004 141.734 114.112 135.397 113.587C129.057 113.109 122.966 110.003 118.846 105.139C114.72 100.279 112.656 93.76 113.223 87.427C113.743 81.089 116.886 75.038 121.751 70.969C126.59 66.868 133.072 64.813 139.373 65.378C145.678 65.896 151.697 69.022 155.745 73.862ZM155.745 73.862C151.664 69.049 145.638 65.977 139.362 65.503C133.089 64.984 126.674 67.07 121.912 71.161C117.123 75.22 114.067 81.215 113.597 87.458C113.08 93.699 115.158 100.078 119.226 104.817C123.232 109.608 129.187 112.702 135.428 113.214C141.664 113.773 148.079 111.74 152.868 107.681C157.683 103.654 160.792 97.666 161.307 91.393C161.868 85.125 159.825 78.676 155.745 73.862Z" fill="#E7E7E3"/>
</g>
<path d="M90.1006 118.385C105.044 118.177 117.008 132.641 132.679 129.441C132.357 125.562 124.841 127.192 121.825 126.782C117.51 126.587 113.787 124.995 109.775 123.059C103.634 119.664 97.5736 115.311 90.2306 116.793L90.1006 118.385Z" fill="#DE741D"/>
<path d="M114.754 98.969C118.462 96.405 120.383 90.367 122.971 86.487C126.742 81.064 132.058 76.819 136.392 71.69C140.429 67.129 144.398 62.353 145.108 56.214C143.233 60.109 139.628 64.535 137.189 68.129C134.832 71.228 132.272 73.674 129.281 76.255C125.643 79.035 122.636 82.332 120.262 86.142C117.738 90.237 116.181 95.925 113.175 99.222L114.754 98.969Z" fill="#DE741D"/>
<path d="M70.0249 129.444C70.5369 128.003 74.2629 126.877 75.7009 126.13C78.1709 125.007 80.7589 124.704 83.3369 123.767C87.4699 122.271 93.3029 120.873 96.5029 118.051C95.3509 116.356 91.0749 119.075 89.3019 119.268C86.7939 119.909 84.2099 120.218 81.6979 120.855C76.4949 122.248 71.9249 124.89 68.1729 128.676L70.0249 129.444Z" fill="#975297"/>
<path d="M84.1768 116.36C90.2918 114.737 99.3468 120.852 103.879 123.456C109.263 126.458 113.664 130.733 120.189 131.427C120.705 128.987 114.49 127.138 112.573 126.097C108.848 124.138 105.423 121.928 102.149 119.59C97.1758 116.462 91.7528 113.721 85.3638 113.799L84.1768 116.36Z" fill="#975297"/>
<path d="M70.1514 118.07C85.0934 117.861 97.0604 132.326 112.73 129.128C112.408 125.247 104.893 126.875 101.876 126.467C97.5604 126.271 93.8394 124.68 89.8274 122.744C83.6874 119.348 77.6284 114.997 70.2854 116.479L70.1514 118.07Z" fill="#A555A1"/>
<path d="M50.2598 124.689C56.4538 113.807 68.2588 112.693 79.3288 116.655C85.1078 118.576 90.0388 122.997 95.6188 125.379C90.1158 118.187 83.9078 113.662 74.7158 112.265C65.0838 110.347 58.7788 114.801 51.8228 121.289L50.2598 124.689Z" fill="#A555A1"/>
<g opacity="0.7">
<path d="M19.6699 88.178C10.9369 100.519 13.858 117.605 26.202 126.338C37.071 134.03 51.6109 132.671 60.8939 123.811L56.2239 118.93C49.2339 125.594 38.288 126.612 30.106 120.824C20.812 114.244 18.6099 101.378 25.1869 92.082C25.9539 91.001 26.8159 90.022 27.7379 89.132L23.0679 84.249C21.8379 85.43 20.6909 86.733 19.6699 88.178Z" fill="#FDFCFF"/>
<path d="M25.3582 86.644C20.8702 91.054 18.2092 97.227 18.1252 103.481C18.0072 109.735 20.4602 115.977 24.8082 120.442C29.0732 124.997 35.2062 127.703 41.4512 127.867C44.5752 127.98 47.7102 127.404 50.6312 126.299C53.5632 125.211 56.2902 123.548 58.6022 121.415C56.3462 123.607 53.6512 125.351 50.7192 126.527C47.7802 127.677 44.6102 128.284 41.4432 128.2C35.1112 128.09 28.8392 125.401 24.4472 120.787C20.0472 116.188 17.6162 109.812 17.7932 103.474C17.8682 100.307 18.5782 97.16 19.8682 94.273C21.1852 91.398 23.0582 88.788 25.3582 86.644Z" fill="#E7E7E3"/>
<path d="M26.638 87.982C22.496 92.053 20.055 97.759 20.003 103.522C19.91 109.281 22.139 115.037 26.147 119.161C30.087 123.359 35.744 125.823 41.494 125.989C47.251 126.184 53.047 124.001 57.324 120.076C53.175 124.139 47.352 126.505 41.486 126.373C35.628 126.285 29.838 123.767 25.787 119.506C21.721 115.265 19.443 109.376 19.621 103.514C19.699 100.587 20.367 97.681 21.564 95.019C22.781 92.367 24.512 89.958 26.638 87.982Z" fill="#E7E7E3"/>
</g>
<g opacity="0.5">
<path d="M86.8794 78.521C86.0334 78.905 85.3074 79.575 84.8384 80.582C84.2694 81.803 84.0954 83.2 84.2984 84.528C84.7164 87.246 86.8144 89.473 89.6814 89.366C91.5184 89.298 93.3764 88.587 94.3074 86.907C95.5484 84.662 94.7704 81.69 93.0514 79.919C91.4784 78.297 88.8514 77.629 86.8794 78.521ZM92.1304 85.525C91.6134 86.457 90.5824 86.854 89.5604 86.892C87.9674 86.951 86.8004 85.712 86.5704 84.204C86.4574 83.466 86.5524 82.688 86.8704 82.01C87.1334 81.451 87.5334 81.079 88.0044 80.867C89.0994 80.37 90.5584 80.741 91.4334 81.642C92.3884 82.625 92.8204 84.276 92.1304 85.525Z" fill="#B2D3F6"/>
</g>
<g opacity="0.5">
<path d="M123.114 79.699C124.326 73.4 126.425 67.101 127.637 60.803C128.447 56.903 131.341 42.256 122.461 45.841C122.159 45.947 121.883 46.092 121.611 46.247C116.657 49.068 116.59 59.383 116.02 64.055C115.158 72.951 116.489 82.112 113.435 90.74L113.847 91.013C114.508 90.953 115.112 90.828 115.683 90.669C120.557 89.3 122.334 84.475 123.114 79.699Z" fill="#B2D3F6"/>
</g>
<g opacity="0.5">
<path d="M108.489 106.648C108.326 107.561 108.472 108.54 109.034 109.497C109.722 110.655 110.775 111.587 111.985 112.17C114.465 113.362 117.485 112.889 119.018 110.462C120.002 108.907 120.463 106.973 119.601 105.256C118.451 102.964 115.559 101.93 113.127 102.345C110.897 102.727 108.864 104.519 108.489 106.648ZM117.232 106.273C117.711 107.225 117.455 108.301 116.909 109.168C116.057 110.513 114.38 110.777 113.003 110.115C112.329 109.791 111.741 109.271 111.362 108.628C111.049 108.096 110.97 107.556 111.058 107.046C111.267 105.862 112.396 104.867 113.633 104.654C114.986 104.423 116.595 104.997 117.232 106.273Z" fill="#B2D3F6"/>
</g>
<g opacity="0.5">
<path d="M135.539 107.006C137.069 93.28 138.103 77.267 127.346 66.888L126.228 65.77C126.685 67.61 126.999 69.476 127.247 71.351C127.656 74.416 127.841 77.51 127.807 80.586C127.616 86.768 125.029 92.189 124.374 98.071C123.774 103.464 123.773 112.396 126.742 116.948C128.815 120.009 130.422 120.465 131.665 119.543C134.126 117.71 135.16 110.426 135.539 107.006Z" fill="#B2D3F6"/>
</g>
<g opacity="0.5">
<path d="M84.689 88.745C83.671 82.549 77.917 76.861 72.129 75.382C65.772 73.754 59.977 72.548 53.611 72.876C46.195 73.259 38.606 73.595 33.869 80.319C31.28 83.999 31.031 90.682 33.088 94.72C34.096 96.58 35.284 98.321 36.601 99.955C40.812 105.184 46.798 109.984 52.942 112.397C56.977 113.979 60.747 115.668 65.227 115.512C70.203 115.334 74.158 113.793 77.58 110.114C79.599 107.942 82.199 103.572 83.197 101.532C83.514 100.882 83.787 100.204 83.987 99.479C84.949 95.983 85.278 92.329 84.689 88.745Z" fill="#B2D3F6"/>
</g>
<g opacity="0.5">
<path d="M112.58 79.228C113.101 76.564 111.898 66.509 107.967 65.35C107.327 65.162 106.623 65.198 105.835 65.548L104.951 65.652C104.031 72.576 99.5007 78.674 95.7267 84.137C93.5437 87.283 84.5407 94.589 85.9937 98.209C86.6387 99.967 87.7517 100.974 89.1067 101.455C93.4587 102.99 100.333 99.003 102.427 96.24C106.116 91.818 111.773 84.76 112.58 79.228Z" fill="#B2D3F6"/>
</g>
<path opacity="0.5" d="M94.3333 57.038C92.7063 57.626 92.4163 60.476 91.3373 60.816L91.1713 60.788C90.1673 59.605 88.6903 57.15 87.1083 56.385C85.6703 55.811 82.4113 56.987 81.7583 58.932C81.1293 60.702 84.0943 62.371 84.9933 64.22C87.0083 68.638 83.8603 64.891 81.9853 65.95C80.3053 66.875 80.9053 70.549 81.5473 71.846C82.5283 74.219 83.9703 74.793 86.5143 74.861C91.2983 74.783 96.9233 71.602 98.8363 67.135C100.15 64.282 99.7193 55.353 94.3333 57.038Z" fill="#B2D3F6"/>
<path opacity="0.5" d="M49.6008 57.024C44.8718 55.922 49.7598 55.717 50.0668 53.587C50.3608 51.691 47.0858 49.92 45.6688 49.639C43.1888 48.965 41.8548 49.756 40.2458 51.729C37.3858 55.567 36.4678 61.962 38.8378 66.206C40.2948 68.987 47.6288 74.102 49.5858 68.806C50.1128 67.16 48.0338 65.185 48.4198 64.128L48.5448 64.013C50.0978 63.942 52.9388 64.27 54.5138 63.485C55.8468 62.696 56.9058 59.397 55.7658 57.693C54.7458 56.115 51.6108 57.441 49.6008 57.024Z" fill="#B2D3F6"/>
<path opacity="0.5" d="M161.263 100.358C159.639 100.949 159.347 103.799 158.268 104.139L158.101 104.109C157.097 102.925 155.621 100.472 154.041 99.706C152.602 99.133 149.343 100.31 148.69 102.252C148.064 104.023 151.03 105.694 151.925 107.541C153.941 111.96 150.793 108.213 148.918 109.273C147.238 110.197 147.836 113.871 148.479 115.168C149.461 117.544 150.902 118.114 153.447 118.182C158.23 118.105 163.856 114.925 165.768 110.458C167.08 107.605 166.65 98.675 161.263 100.358Z" fill="#B2D3F6"/>
<g opacity="0.5">
<path d="M147.752 86.357C146.985 84.467 146.358 82.527 145.871 80.558C144.974 76.585 145.731 72.7 145.179 68.841C144.673 65.301 143.2 59.605 140.559 57.191C138.73 55.579 137.63 55.553 136.99 56.348C135.724 57.922 136.263 62.738 136.586 64.983C137.874 73.988 139.855 84.375 148.428 89.219L149.322 89.747C148.728 88.65 148.22 87.511 147.752 86.357Z" fill="#B2D3F6"/>
</g>
<path d="M85.8229 76.75C84.9759 77.134 84.2519 77.804 83.7829 78.81C83.2129 80.032 83.0399 81.429 83.2429 82.757C83.6599 85.474 85.7579 87.702 88.6259 87.595C90.4629 87.527 92.3209 86.816 93.2509 85.135C94.4919 82.89 93.7129 79.919 91.9949 78.148C90.4209 76.525 87.7939 75.857 85.8229 76.75ZM91.0729 83.754C90.5559 84.686 89.5249 85.082 88.5029 85.12C86.9119 85.179 85.7439 83.941 85.5139 82.432C85.3999 81.693 85.4959 80.916 85.8129 80.238C86.0769 79.68 86.4769 79.307 86.9469 79.095C88.0429 78.598 89.5019 78.969 90.3769 79.87C91.3319 80.853 91.7639 82.505 91.0729 83.754Z" fill="#505235"/>
<path d="M90.2813 59.045C91.3603 58.705 91.6493 55.855 93.2763 55.266C98.6623 53.58 99.0943 62.511 97.7803 65.364C95.8683 69.831 90.2433 73.012 85.4593 73.09C82.9153 73.023 81.4743 72.448 80.4923 70.074C79.8503 68.777 79.2513 65.104 80.9303 64.179C82.8053 63.119 85.9543 66.867 83.9373 62.448C83.0393 60.6 80.0733 58.93 80.7033 57.16C81.3553 55.217 84.6153 54.04 86.0533 54.613C87.6343 55.38 89.1113 57.834 90.1143 59.016" fill="#E0D9CC"/>
<path d="M85.8308 69.387C87.8428 68.622 86.0358 66.905 84.8678 66.658C83.5178 66.376 82.6238 67.034 83.4298 68.385C83.8168 69.03 85.0518 69.682 85.8308 69.387Z" fill="#75644F"/>
<path d="M92.4153 60.616C90.1773 61.438 91.8853 64.812 93.2363 63.61C94.0733 62.864 94.0443 60.02 92.4153 60.616Z" fill="#75644F"/>
<path d="M114.626 88.898C119.5 87.528 121.277 82.703 122.058 77.927C123.27 71.628 125.37 65.329 126.581 59.031C127.39 55.132 130.284 40.485 121.404 44.07C121.103 44.175 120.826 44.321 120.555 44.474C117.979 52.38 117.787 62.472 117.105 69.322C116.41 75.767 116.996 82.867 114.626 88.898Z" fill="#EDD0A1"/>
<path d="M114.964 62.284C114.102 71.18 115.433 80.341 112.379 88.968L112.791 89.243C113.452 89.182 114.057 89.057 114.626 88.898C116.996 82.867 116.41 75.766 117.105 69.322C117.788 62.472 117.979 52.381 120.555 44.474C115.601 47.298 115.534 57.612 114.964 62.284Z" fill="#C5945B"/>
<path d="M107.434 104.877C107.269 105.79 107.417 106.769 107.979 107.726C108.666 108.884 109.72 109.816 110.93 110.399C113.409 111.59 116.43 111.118 117.963 108.691C118.946 107.135 119.407 105.201 118.546 103.485C117.395 101.192 114.503 100.158 112.072 100.574C109.842 100.955 107.808 102.747 107.434 104.877ZM116.176 104.5C116.655 105.453 116.4 106.528 115.854 107.395C115.001 108.74 113.325 109.004 111.947 108.342C111.273 108.017 110.686 107.498 110.307 106.855C109.993 106.323 109.913 105.782 110.003 105.273C110.211 104.088 111.34 103.093 112.579 102.881C113.931 102.651 115.538 103.226 116.176 104.5Z" fill="#505235"/>
<path d="M35.5439 98.185C39.7559 103.414 45.7409 108.214 51.8859 110.627C55.9209 112.209 59.6909 113.898 64.1699 113.742C69.1479 113.564 73.1009 112.023 76.5239 108.344C78.5429 106.172 81.1419 101.802 82.1409 99.761C67.5039 106.913 47.2019 106.462 35.5439 98.185Z" fill="#F1F1F1"/>
<path d="M82.9299 97.708C83.8919 94.212 84.2229 90.558 83.6319 86.973C82.6149 80.778 76.8619 75.09 71.0719 73.611C64.7159 71.983 58.9199 70.777 52.5559 71.105C45.1399 71.488 37.5499 71.824 32.8129 78.547C30.2229 82.228 29.9749 88.911 32.0309 92.949C33.0399 94.809 34.2279 96.549 35.5439 98.184C47.2009 106.461 67.5039 106.913 82.1399 99.76C82.4579 99.111 82.7309 98.434 82.9299 97.708Z" fill="white"/>
<path d="M61.7826 105.11C60.5546 104.969 59.3296 104.679 58.1266 104.228C51.5076 101.739 47.4446 93.08 48.8226 86.319C51.4906 74.058 65.9626 72.384 74.7106 79.329C80.6166 84.041 80.4466 90.928 76.8486 97.315C73.7686 102.881 67.7656 105.792 61.7826 105.11Z" fill="#E0A026"/>
<path d="M52.2699 82.829C51.0589 84.282 50.2789 86.101 50.2379 87.94C50.1219 92.849 53.9619 97.832 58.0189 100.246C64.8279 104.026 73.4599 101.312 76.2459 93.742C75.1479 93.598 74.2079 93.852 73.2099 94.247C73.9749 93.253 75.9419 90.627 73.9059 90.738C72.4079 90.752 70.6409 93.3 69.1029 93.792C66.1039 94.976 60.0429 93.672 60.3629 89.503C61.5779 89.367 62.7559 89.711 63.8159 89.177C63.5979 88.916 63.4219 88.179 63.2029 87.919C69.6329 87.944 63.4559 81.611 60.9389 80.404C57.7909 78.894 54.3749 80.308 52.2699 82.829Z" fill="#E09223"/>
<path d="M103.033 89.18C105.593 85.717 108.427 81.051 108.96 76.72C109.553 73.224 108.694 68.027 106.911 63.578C106.271 63.39 105.567 63.426 104.778 63.775L103.896 63.879C102.974 70.803 98.4451 76.901 94.6711 82.364C92.4881 85.51 83.4851 92.816 84.9381 96.436C85.5841 98.194 86.6981 99.201 88.0531 99.682C94.4391 98.427 98.5351 94.855 103.033 89.18Z" fill="#EDD0A1"/>
<path d="M108.96 76.72C108.427 81.051 105.593 85.717 103.033 89.18C98.5348 94.856 94.4388 98.427 88.0518 99.684C92.4048 101.219 99.2767 97.231 101.372 94.469C105.06 90.047 110.718 82.989 111.524 77.457C112.046 74.792 110.843 64.737 106.911 63.578C108.694 68.026 109.553 73.224 108.96 76.72Z" fill="#C5945B"/>
<path d="M47.3634 62.355C46.9784 63.413 49.0574 65.386 48.5304 67.033C46.5734 72.33 39.2394 67.216 37.7824 64.434C35.4124 60.191 36.3294 53.795 39.1904 49.957C40.7994 47.984 42.1334 47.193 44.6134 47.866C46.0304 48.148 49.3054 49.919 49.0114 51.815C48.7044 53.945 43.8164 54.149 48.5464 55.251C50.5564 55.669 53.6904 54.342 54.7104 55.92C55.8494 57.624 54.7914 60.923 53.4574 61.712C51.8834 62.497 49.0424 62.169 47.4894 62.24" fill="#E0D9CC"/>
<path d="M41.8944 52.515C41.2724 54.578 43.7344 54.193 44.6414 53.418C45.6904 52.521 45.7164 51.41 44.1544 51.228C43.4064 51.137 42.1374 51.718 41.8944 52.515Z" fill="#75644F"/>
<path d="M44.8176 63.083C45.5316 60.812 41.8186 60.104 41.9456 61.906C42.0256 63.023 44.2926 64.739 44.8176 63.083Z" fill="#75644F"/>
<path d="M157.212 102.368C158.29 102.026 158.583 99.177 160.206 98.587C165.594 96.903 166.024 105.832 164.712 108.686C162.8 113.153 157.175 116.333 152.39 116.411C149.845 116.343 148.405 115.772 147.422 113.396C146.781 112.099 146.183 108.424 147.862 107.501C149.737 106.442 152.885 110.19 150.868 105.771C149.973 103.924 147.007 102.252 147.633 100.482C148.286 98.539 151.545 97.363 152.985 97.936C154.563 98.703 156.042 101.155 157.045 102.339" fill="#E0D9CC"/>
<path d="M152.762 112.708C154.773 111.945 152.966 110.227 151.798 109.982C150.448 109.699 149.554 110.357 150.361 111.707C150.75 112.354 151.982 113.004 152.762 112.708Z" fill="#75644F"/>
<path d="M159.347 103.939C157.11 104.759 158.821 108.135 160.167 106.934C161.005 106.186 160.976 103.342 159.347 103.939Z" fill="#75644F"/>
<path d="M135.528 63.211C136.817 72.216 138.797 82.603 147.37 87.447L148.265 87.976C147.672 86.878 147.164 85.738 146.697 84.584C139.806 76.111 136.118 65.557 135.934 54.575C134.666 56.15 135.207 60.966 135.528 63.211Z" fill="#C5945B"/>
<path d="M146.696 84.585C145.929 82.695 145.301 80.754 144.815 78.786C143.919 74.812 144.675 70.928 144.122 67.068C143.616 63.529 142.143 57.832 139.501 55.418C137.673 53.807 136.574 53.781 135.933 54.576C136.118 65.558 139.806 76.112 146.696 84.585Z" fill="#EDD0A1"/>
<path d="M134.483 105.234C136.011 91.507 137.047 75.495 126.288 65.116L125.172 63.998C125.628 65.838 125.942 67.704 126.191 69.579C133.099 84.647 134.508 101.561 130.608 117.77C133.07 115.939 134.104 108.653 134.483 105.234Z" fill="#C5945B"/>
<path d="M126.191 69.579C126.599 72.645 126.784 75.738 126.75 78.814C126.558 84.996 123.971 90.417 123.317 96.299C122.717 101.692 122.716 110.624 125.684 115.175C127.758 118.236 129.364 118.693 130.608 117.77C134.508 101.561 133.099 84.648 126.191 69.579Z" fill="#EDD0A1"/>
<g opacity="0.5">
<path d="M61.6269 67.803C62.1029 68.603 62.8539 69.246 63.9049 69.6C65.1819 70.028 66.5899 70.043 67.8849 69.693C70.5399 68.971 72.5149 66.636 72.0879 63.799C71.8139 61.979 70.8969 60.214 69.1219 59.481C66.7529 58.5 63.8859 59.608 62.3209 61.514C60.8849 63.26 60.5179 65.947 61.6269 67.803ZM67.9949 61.798C68.9799 62.206 69.4899 63.187 69.6449 64.198C69.8819 65.773 68.7869 67.069 67.3089 67.471C66.5869 67.667 65.8049 67.658 65.0959 67.419C64.5099 67.221 64.0979 66.865 63.8309 66.42C63.2139 65.389 63.4159 63.898 64.2139 62.927C65.0859 61.87 66.6779 61.253 67.9949 61.798Z" fill="#B2D3F6"/>
</g>
<path d="M59.6698 67.153C60.1438 67.952 60.8968 68.596 61.9468 68.95C63.2238 69.378 64.6328 69.392 65.9288 69.042C68.5818 68.321 70.5588 65.987 70.1308 63.149C69.8568 61.329 68.9378 59.565 67.1638 58.831C64.7948 57.851 61.9288 58.958 60.3648 60.866C58.9278 62.612 58.5608 65.297 59.6698 67.153ZM66.0358 61.149C67.0218 61.557 67.5318 62.537 67.6868 63.55C67.9218 65.123 66.8268 66.42 65.3528 66.822C64.6298 67.018 63.8458 67.008 63.1388 66.771C62.5538 66.574 62.1398 66.215 61.8748 65.772C61.2578 64.741 61.4608 63.25 62.2568 62.278C63.1288 61.221 64.7208 60.604 66.0358 61.149Z" fill="#505235"/>
</g>
</svg>
