<svg width="45" height="44" viewBox="0 0 45 44" fill="none" xmlns="http://www.w3.org/2000/svg">
<g clip-path="url(#clip0_8789_11455)">
<path d="M44.25 22C44.25 31.9657 37.6231 40.3822 28.5359 43.0872C28.5369 42.9916 28.5392 42.8962 28.5392 42.8006C28.5392 27.8125 17.4778 15.6621 3.83322 15.6621C2.91946 15.6621 2.01779 15.7185 1.12988 15.8246C3.79932 6.68063 12.244 0 22.25 0C34.4005 0 44.25 9.84958 44.25 22Z" fill="#925B44"/>
<path d="M44.25 15.125C44.25 19.6139 42.2943 23.6456 39.1884 26.4154C38.8937 26.6782 38.6087 26.9505 38.3327 27.2308C36.3055 29.2923 34.7928 31.8194 33.9402 34.5919C32.9334 37.8662 31.0834 40.7713 28.645 43.0547C26.6211 43.6687 24.4743 44 22.25 44C10.0996 44 0.25 34.1504 0.25 22C0.25 19.7757 0.581329 17.6289 1.19531 15.6054C3.4787 13.1666 6.38345 11.3166 9.65814 10.3098C12.4306 9.45715 14.9577 7.94452 17.0192 5.91727C17.2995 5.64133 17.5718 5.35632 17.8346 5.06158C20.6041 1.95575 24.6361 0 29.1247 0C37.4868 0 44.25 6.76321 44.25 15.125Z" fill="#F9EECF"/>
<path d="M40.8434 5.5574C38.2374 3.42676 34.907 2.14844 31.2731 2.14844C26.7845 2.14844 22.7525 4.10419 19.9831 7.21002C19.2083 8.07846 18.3536 8.867 17.4338 9.56659C15.7486 10.8483 13.8442 11.8315 11.8066 12.4583C6.78024 14.0038 2.62436 17.5343 0.251678 22.1346C0.251343 22.0896 0.25 22.045 0.25 22C0.25 19.7757 0.581329 17.6289 1.19531 15.6054C3.4787 13.1666 6.38345 11.3166 9.65814 10.3098C12.4306 9.45715 14.9577 7.94452 17.0192 5.91727C17.2995 5.64133 17.5718 5.35632 17.8346 5.06158C20.6041 1.95575 24.6361 0 29.1247 0C33.8542 0 38.0712 2.16455 40.8434 5.5574Z" fill="#F7E6B0"/>
<path d="M39.0935 15.125C39.0935 17.9633 37.8773 20.6757 35.7561 22.5673C32.5895 25.3912 30.2574 29.0254 29.0117 33.0762C27.2301 38.8693 22.088 42.8325 16.0838 43.1228C8.89154 41.0268 3.22302 35.3582 1.12695 28.166C1.41733 22.1618 5.38052 17.0197 11.1732 15.2381C15.2247 13.9924 18.8586 11.66 21.6825 8.49338C23.5738 6.37247 26.2865 5.15625 29.1248 5.15625C31.7915 5.15625 34.2961 6.1922 36.177 8.07275C38.0576 9.95364 39.0935 12.4583 39.0935 15.125Z" fill="#EA5569"/>
<path d="M26.8906 27.5C26.8906 27.9747 26.5059 28.3594 26.0312 28.3594C20.3449 28.3594 15.7188 23.7332 15.7188 18.0469C15.7188 17.5722 16.1035 17.1875 16.5781 17.1875C17.0528 17.1875 17.4375 17.5722 17.4375 18.0469C17.4375 22.7855 21.2926 26.6406 26.0312 26.6406C26.5059 26.6406 26.8906 27.0253 26.8906 27.5ZM22.8086 32.4414C16.6483 32.4414 11.6367 27.4298 11.6367 21.2695C11.6367 20.7949 11.252 20.4102 10.7773 20.4102C10.3027 20.4102 9.91797 20.7949 9.91797 21.2695C9.91797 24.7154 11.2581 27.9532 13.6915 30.3866C16.1249 32.8201 19.3627 34.1602 22.8086 34.1602C23.2833 34.1602 23.668 33.7755 23.668 33.3008C23.668 32.8261 23.2833 32.4414 22.8086 32.4414ZM18.2969 36.9531C12.1366 36.9531 7.125 31.9416 7.125 25.7812C7.125 25.3066 6.7403 24.9219 6.26562 24.9219C5.79095 24.9219 5.40625 25.3066 5.40625 25.7812C5.40625 29.2271 6.74634 32.4649 9.17978 34.8983C11.6132 37.3318 14.851 38.6719 18.2969 38.6719C18.7715 38.6719 19.1562 38.2872 19.1562 37.8125C19.1562 37.3378 18.7715 36.9531 18.2969 36.9531Z" fill="#E43950"/>
<path d="M30.7483 18.4672C28.4075 20.808 25.3983 21.5941 24.027 20.2228C22.6557 18.8515 23.4419 15.8424 25.7827 13.5016C28.1235 11.1608 31.1326 10.3746 32.5039 11.7459C33.8752 13.1172 33.0891 16.1264 30.7483 18.4672Z" fill="#F7E6B0"/>
<path d="M30.7489 18.4672C28.4081 20.808 25.3989 21.5941 24.0276 20.2228C23.9575 20.153 23.8947 20.0775 23.8359 19.9993C24.125 19.5471 24.4472 19.0811 24.7994 18.6058C25.0142 18.3164 25.4298 18.3 25.6826 18.5571C25.6843 18.5588 25.6859 18.5608 25.688 18.5625C26.4026 19.2775 28.1365 18.7028 29.5605 17.2788C30.9845 15.8551 31.5592 14.1213 30.8442 13.4063C30.812 13.374 30.7777 13.3445 30.7418 13.3176C30.4478 13.0984 30.4444 12.6566 30.7277 12.4243C31.1742 12.0591 31.6156 11.7174 32.0493 11.4015C32.2155 11.4958 32.3683 11.61 32.5045 11.7459C33.8759 13.1172 33.0897 16.1264 30.7489 18.4672Z" fill="#F9EECF"/>
</g>
<defs>
<clipPath id="clip0_8789_11455">
<rect width="44" height="44" fill="white" transform="translate(0.25)"/>
</clipPath>
</defs>
</svg>
