<svg width="45" height="44" viewBox="0 0 45 44" fill="none" xmlns="http://www.w3.org/2000/svg">
<g clip-path="url(#clip0_8789_11274)">
<path d="M44.75 22C44.75 34.1504 34.9004 44 22.75 44C19.3823 44 16.1919 43.2423 13.3385 41.8895C11.1646 37.2939 7.44641 33.5724 2.85278 31.3951C1.50497 28.5457 0.75 25.3613 0.75 22C0.75 9.84958 10.5996 0 22.75 0C34.9004 0 44.75 9.84958 44.75 22Z" fill="#2B6C7E"/>
<path d="M38.2973 38.4245C34.0189 42.7032 27.3795 40.3654 20.4172 34.8235L13.3472 41.8935C8.75223 39.7179 5.03207 35.9977 2.85645 31.4028L9.92648 24.3327C4.38419 17.3704 2.04675 10.7311 6.3255 6.45269C11.7285 1.04937 25.6359 1.45623 34.4647 10.2853C43.2937 19.114 43.7006 33.0211 38.2973 38.4245Z" fill="#F7E6B0"/>
<path d="M35.6972 11.6136C26.7899 4.00078 13.1712 4.60201 7.42648 10.3467C5.85477 11.9184 5.0293 13.7201 4.82217 15.6812C3.59824 12.0907 3.88895 8.88881 6.32541 6.45269C11.7287 1.04937 25.6358 1.45623 34.4649 10.2853C34.8959 10.7163 35.3062 11.1598 35.6972 11.6136ZM14.1152 14.3364C15.3525 16.3624 15.128 19.0063 13.4183 20.716L9.86395 24.2699L2.81641 31.3175C3.19574 32.1272 3.62241 32.91 4.09372 33.6623L15.2293 22.5267C17.2428 20.5132 17.1978 17.2033 15.1286 15.1341C14.8161 14.8219 14.4754 14.5563 14.1152 14.3364Z" fill="#F5DC90"/>
<path d="M31.4645 38.7625C30.8569 39.3704 30.1305 39.7894 29.356 40.023C26.5611 39.1284 23.521 37.2945 20.4169 34.8235L23.9712 31.2692C25.985 29.2557 29.2946 29.3007 31.3642 31.3699C33.4334 33.4391 33.4784 36.749 31.4645 38.7625ZM5.98709 13.2851C5.37915 13.8927 4.96021 14.6191 4.72656 15.3935C5.62119 18.1885 7.39264 21.1661 9.86368 24.27L13.4804 20.7784C15.4943 18.7646 15.4489 15.455 13.3797 13.3854C11.3105 11.3162 8.00058 11.2712 5.98709 13.2851Z" fill="#F1CA50"/>
</g>
<defs>
<clipPath id="clip0_8789_11274">
<rect width="44" height="44" fill="white" transform="translate(0.75)"/>
</clipPath>
</defs>
</svg>
