<svg width="45" height="44" viewBox="0 0 45 44" fill="none" xmlns="http://www.w3.org/2000/svg">
<g clip-path="url(#clip0_8789_11711)">
<path d="M44.75 22C44.75 28.5343 41.9013 34.4032 37.3782 38.4325C36.4131 39.2922 35.3288 39.9391 34.2227 40.6199C30.8731 42.6817 26.972 42.9688 22.75 42.9688C10.5996 42.9688 3.46277 32.8117 2.54599 22C2.17907 17.6692 2.23782 13.6815 4.41311 10.2695C5.04858 9.27286 5.53466 8.25067 6.3175 7.37183C10.3468 2.84869 16.2158 0 22.75 0C34.9004 0 44.75 9.84958 44.75 22Z" fill="#2B6C7E"/>
<path d="M37.465 24.6094C38.0676 26.7588 38.3905 29.0251 38.3905 31.3672C38.3905 33.8208 38.0354 36.1911 37.3771 38.4315C35.7251 39.9029 33.85 41.1295 31.8086 42.0533C29.0462 43.3038 25.9796 43.2266 22.7503 43.2266C10.6311 43.2266 1.48005 33.3884 1.48005 21.2692C1.48038 18.1731 1.39008 15.9565 2.54487 13.2844C3.48447 11.1098 4.76481 9.11711 6.3184 7.37285C8.55882 6.71455 10.9291 6.35939 13.3827 6.35939C15.7249 6.35939 17.9911 6.68232 20.1409 7.28489C20.9761 7.51887 21.5065 8.33897 21.3769 9.197L19.0308 24.7413C18.9445 25.3133 19.4366 25.8054 20.0086 25.7192L35.5529 23.373C36.411 23.2434 37.2311 23.7738 37.465 24.6094ZM44.7331 17.2815C43.006 8.5904 36.1595 1.74394 27.4684 0.0167969C26.9877 -0.0788757 26.5245 0.247418 26.4513 0.732159L23.4153 20.8456C23.3723 21.1316 23.6184 21.378 23.9044 21.3347L44.0178 18.2987C44.5025 18.2255 44.8288 17.7622 44.7331 17.2815Z" fill="#F5C02C"/>
<path d="M37.6379 25.2626C37.3241 25.0981 36.9578 25.0293 36.5842 25.0857L21.0399 27.4322C20.4679 27.5185 19.9758 27.026 20.062 26.454L20.1768 25.694L35.5529 23.373C36.411 23.2434 37.2311 23.7738 37.4654 24.609C37.5258 24.8259 37.5829 25.0437 37.6379 25.2626ZM23.9044 21.3347L25.369 21.1134L28.3906 1.09739C28.4443 0.73988 28.7105 0.469647 29.0392 0.389752C28.5229 0.247083 27.9992 0.122205 27.4684 0.0167969C26.9877 -0.0788757 26.5245 0.247418 26.4513 0.732159L23.4153 20.8456C23.3723 21.1316 23.6184 21.3776 23.9044 21.3347ZM21.3894 9.07649C21.4545 8.26344 20.9369 7.50779 20.1406 7.28489C17.9911 6.68232 15.7249 6.35939 13.3828 6.35939C10.9292 6.35939 8.55884 6.71455 6.31842 7.37284C4.85211 9.01908 3.62885 10.8869 2.70636 12.9198C2.65131 13.0407 2.5986 13.1629 2.5459 13.2847C3.12497 13.1954 5.84879 9.16645 9.87106 8.485C11.3478 8.23491 12.8624 8.07209 14.414 8.07209C16.7561 8.07209 19.0224 8.39503 21.1722 8.9976C21.2474 9.01875 21.3192 9.04628 21.3894 9.07649Z" fill="#CD9E00"/>
<path d="M34.5778 34.9514C34.6299 35.3723 34.5453 35.7977 34.3358 36.1669C33.8118 37.0907 33.274 38.1928 32.7741 39.3993C32.3904 40.3255 32.0668 41.2235 31.809 42.0543C29.0463 43.3041 25.9794 44 22.75 44C10.6033 44 0.75 34.1467 0.75 22C0.75 18.7706 1.44824 15.7031 2.69803 12.9403C3.52887 12.6825 4.4245 12.3595 5.35068 11.9758C6.55716 11.476 7.65924 10.9386 8.58307 10.4142C8.95233 10.2047 9.37766 10.1201 9.79861 10.1725C10.853 10.3031 12.077 10.3783 13.3828 10.3783C14.683 10.3783 15.9015 10.3038 16.9526 10.1742C17.3782 10.1215 17.8096 10.2027 18.1826 10.4142C18.9956 10.8754 19.9466 11.3471 20.9849 11.7942L19.0309 24.7413C18.9442 25.3133 19.4367 25.8054 20.0087 25.7191L32.9557 23.7651C33.4029 24.8034 33.8742 25.7544 34.3358 26.5674C34.5473 26.9404 34.6282 27.3718 34.5758 27.7974C34.4459 28.8485 34.3717 30.067 34.3717 31.3672C34.3717 32.673 34.4469 33.897 34.5778 34.9514ZM41.5884 17.3691C41.1275 16.5567 40.6549 15.5879 40.2158 14.5275C39.776 13.4657 39.4249 12.4458 39.1765 11.5448C39.0771 11.185 38.8653 10.8681 38.5706 10.6384C37.8334 10.0641 37.0254 9.34938 36.213 8.53701C35.4006 7.72463 34.6859 6.91661 34.1115 6.17943C33.8819 5.88469 33.565 5.67287 33.2052 5.5735C32.3042 5.32509 31.2843 4.97396 30.2225 4.5342C29.1621 4.09511 28.1933 3.62245 27.3809 3.16155C27.0556 2.97692 26.6806 2.90172 26.3097 2.94771C26.2456 2.95577 26.1791 2.96282 26.1136 2.9702L23.4153 20.8455C23.3724 21.1315 23.6184 21.3776 23.9044 21.3346L35.9934 19.5098L36.0092 19.5887C36.1489 20.2866 36.828 20.7395 37.5262 20.5998C38.2104 20.4632 38.6575 19.8079 38.5437 19.1248L41.7798 18.6363C41.7872 18.5709 41.7942 18.5044 41.8023 18.4403C41.8483 18.0694 41.7731 17.6944 41.5884 17.3691Z" fill="#FDF7BD"/>
<path d="M13.2109 26.2109C13.2109 25.7363 13.5956 25.3515 14.0703 25.3515C14.545 25.3515 14.9297 25.7363 14.9297 26.2109C14.9297 26.6856 14.545 27.0703 14.0703 27.0703C13.5956 27.0703 13.2109 26.6856 13.2109 26.2109ZM29.9688 18.9062C30.4434 18.9062 30.8281 18.5215 30.8281 18.0469C30.8281 17.5722 30.4434 17.1875 29.9688 17.1875C29.4941 17.1875 29.1094 17.5722 29.1094 18.0469C29.1094 18.5215 29.4941 18.9062 29.9688 18.9062ZM25.6719 34.375C25.1972 34.375 24.8125 34.7597 24.8125 35.2344C24.8125 35.709 25.1972 36.0937 25.6719 36.0937C26.1465 36.0937 26.5312 35.709 26.5312 35.2344C26.5312 34.7597 26.1465 34.375 25.6719 34.375ZM23.9044 21.3346L25.4057 21.108L25.7383 18.9029C26.1818 18.869 26.5312 18.499 26.5312 18.0469C26.5312 17.684 26.306 17.3745 25.9881 17.2482L28.059 3.52947C27.823 3.4066 27.5961 3.28374 27.3809 3.16155C27.0556 2.97692 26.6806 2.90172 26.3097 2.94771C26.2456 2.95577 26.1791 2.96282 26.1136 2.9702L23.4153 20.8455C23.3724 21.1315 23.6184 21.3776 23.9044 21.3346ZM31.8426 41.9466C29.903 42.4585 27.8693 42.7317 25.7689 42.7317C18.3826 42.7317 11.7822 39.357 7.4256 34.0658C7.55014 33.9168 7.625 33.7251 7.625 33.5156C7.625 33.0409 7.2403 32.6562 6.76562 32.6562C6.63705 32.6562 6.51587 32.6851 6.40643 32.7358C3.64334 28.8542 2.01825 24.1068 2.01825 18.9814C2.01825 16.8793 2.29083 14.848 2.80344 12.9074C2.77121 12.9101 2.73395 12.9141 2.70374 12.9259C1.44858 15.693 0.75 18.7636 0.75 22C0.75 34.1504 10.5996 44 22.75 44C25.9871 44 29.0587 43.3011 31.8265 42.0452C31.8412 42.0123 31.8409 41.9771 31.8426 41.9466ZM38.5625 15.4687C38.0878 15.4687 37.7031 15.8534 37.7031 16.3281C37.7031 16.8028 38.0878 17.1875 38.5625 17.1875C39.0372 17.1875 39.4219 16.8028 39.4219 16.3281C39.4219 15.8534 39.0372 15.4687 38.5625 15.4687ZM35.125 12.0312C34.6503 12.0312 34.2656 12.4159 34.2656 12.8906C34.2656 13.3653 34.6503 13.75 35.125 13.75C35.5997 13.75 35.9844 13.3653 35.9844 12.8906C35.9844 12.4159 35.5997 12.0312 35.125 12.0312ZM12.7812 34.375C13.2559 34.375 13.6406 33.9903 13.6406 33.5156C13.6406 33.0409 13.2559 32.6562 12.7812 32.6562C12.3066 32.6562 11.9219 33.0409 11.9219 33.5156C11.9219 33.9903 12.3066 34.375 12.7812 34.375ZM4.1875 17.1875C4.66217 17.1875 5.04688 16.8028 5.04688 16.3281C5.04688 15.8534 4.66217 15.4687 4.1875 15.4687C3.71283 15.4687 3.32812 15.8534 3.32812 16.3281C3.32812 16.8028 3.71283 17.1875 4.1875 17.1875Z" fill="#FCF498"/>
<path d="M31.001 36.0206C31.2175 36.2931 31.1352 36.7614 30.8361 37.1401C30.4508 37.6279 29.9741 38.163 29.4346 38.7024C28.8952 39.2419 28.3601 39.7186 27.8723 40.1036C27.4936 40.403 27.0254 40.4853 26.7528 40.2684C26.7343 40.254 26.7169 40.2382 26.7001 40.2214C26.6833 40.205 26.6678 40.1872 26.6534 40.1691C26.4365 39.8965 26.5188 39.4282 26.8182 39.0495C27.2033 38.5618 27.68 38.0267 28.2194 37.4872C28.7589 36.9474 29.294 36.4711 29.7817 36.0857C30.1604 35.7866 30.6287 35.7043 30.9013 35.9209C30.9197 35.9353 30.9372 35.9511 30.954 35.9679C30.9708 35.9846 30.9862 36.0024 31.001 36.0206ZM21.3223 28.4732C20.7049 28.4007 19.9896 28.3594 19.2265 28.3594C18.4635 28.3594 17.7481 28.4007 17.1308 28.4732C16.6514 28.5296 16.2624 28.8025 16.2227 29.1482C16.2201 29.1714 16.2187 29.1949 16.2187 29.2187C16.2187 29.2426 16.2201 29.2661 16.2227 29.2892C16.2624 29.635 16.6514 29.9079 17.1308 29.9643C17.7481 30.0368 18.4635 30.0781 19.2265 30.0781C19.9896 30.0781 20.7049 30.0368 21.3223 29.9643C21.8016 29.9079 22.1907 29.635 22.2303 29.2892C22.233 29.2661 22.2343 29.2426 22.2343 29.2187C22.2343 29.1949 22.233 29.1714 22.2303 29.1482C22.191 28.8025 21.8016 28.5296 21.3223 28.4732ZM6.08413 20.8768C5.54467 20.3373 5.00957 19.8606 4.52181 19.4752C4.14315 19.1761 3.67486 19.0939 3.40227 19.3108C3.38381 19.3252 3.36635 19.341 3.34957 19.3577C3.33279 19.3742 3.31734 19.392 3.30257 19.4101C3.08605 19.6827 3.1683 20.151 3.4674 20.5297C3.85277 21.0174 4.32946 21.5525 4.86892 22.092C5.40838 22.6318 5.94347 23.1081 6.43123 23.4935C6.8099 23.7926 7.27819 23.8748 7.55077 23.6583C7.56924 23.6439 7.58669 23.6281 7.60348 23.6113C7.62026 23.5945 7.6357 23.5771 7.65047 23.5586C7.867 23.2864 7.78475 22.8181 7.48565 22.4391C7.10027 21.9513 6.62359 21.4162 6.08413 20.8768ZM16.2892 24.9178C16.635 24.8786 16.9079 24.4892 16.9643 24.0098C17.0368 23.3924 17.0781 22.6771 17.0781 21.9141C17.0781 21.151 17.0368 20.4357 16.9643 19.8183C16.9079 19.339 16.635 18.9499 16.2892 18.9103C16.266 18.9076 16.2425 18.9062 16.2187 18.9062C16.1949 18.9062 16.1714 18.9076 16.1482 18.9103C15.8025 18.9499 15.5295 19.339 15.4731 19.8183C15.4006 20.4357 15.3593 21.151 15.3593 21.9141C15.3593 22.6771 15.4006 23.3924 15.4731 24.0098C15.5295 24.4892 15.8025 24.8782 16.1482 24.9178C16.1714 24.9205 16.1949 24.9219 16.2187 24.9219C16.2425 24.9219 16.266 24.9205 16.2892 24.9178ZM36.7215 14.5362C36.7071 14.5177 36.6916 14.5003 36.6749 14.4835C36.6581 14.4667 36.6406 14.4513 36.6222 14.4365C36.3496 14.22 35.8813 14.3022 35.5026 14.6013C35.0149 14.9867 34.4798 15.4634 33.9403 16.0028C33.4008 16.5423 32.9242 17.0774 32.5388 17.5651C32.2397 17.9438 32.1574 18.4121 32.374 18.6847C32.3887 18.7031 32.4042 18.7206 32.421 18.7374C32.4377 18.7542 32.4552 18.7696 32.4737 18.784C32.7462 19.0009 33.2145 18.9187 33.5932 18.6196C34.081 18.2342 34.6161 17.7575 35.1555 17.218C35.695 16.6786 36.1717 16.1435 36.5567 15.6557C36.8561 15.2771 36.9384 14.8088 36.7215 14.5362Z" fill="#08B772"/>
<path d="M32.5469 30.0781C32.5469 31.9768 31.0077 33.5156 29.1094 33.5156C27.211 33.5156 25.6719 31.9768 25.6719 30.0781C25.6719 28.1798 27.211 26.6406 29.1094 26.6406C31.0077 26.6406 32.5469 28.1798 32.5469 30.0781ZM17.9375 31.7969C16.0392 31.7969 14.5 33.336 14.5 35.2344C14.5 37.1331 16.0392 38.6719 17.9375 38.6719C19.8358 38.6719 21.375 37.1331 21.375 35.2344C21.375 33.336 19.8358 31.7969 17.9375 31.7969ZM6.76562 24.9219C4.86728 24.9219 3.32812 26.461 3.32812 28.3594C3.32812 30.2577 4.86728 31.7969 6.76562 31.7969C8.66397 31.7969 10.2031 30.2577 10.2031 28.3594C10.2031 26.461 8.66397 24.9219 6.76562 24.9219ZM11.0625 13.75C9.16415 13.75 7.625 15.2892 7.625 17.1875C7.625 19.0862 9.16415 20.625 11.0625 20.625C12.9608 20.625 14.5 19.0862 14.5 17.1875C14.5 15.2892 12.9608 13.75 11.0625 13.75ZM29.6623 13.5949C31.5609 13.5949 33.0998 12.0558 33.0998 10.1574C33.0998 8.25873 31.5609 6.71991 29.6623 6.71991C27.7639 6.71991 26.2248 8.25873 26.2248 10.1574C26.2248 12.0558 27.7639 13.5949 29.6623 13.5949Z" fill="#EF7280"/>
<path d="M26.2248 10.1574C26.2248 8.25873 27.7639 6.71991 29.6623 6.71991C29.9516 6.71991 30.2319 6.75583 30.5002 6.82297C29.8677 6.98141 29.3054 7.31577 28.8663 7.76962C28.9435 7.74713 29.0248 7.73438 29.1094 7.73438C29.584 7.73438 29.9688 8.11908 29.9688 8.59375C29.9688 9.06842 29.584 9.45312 29.1094 9.45312C28.6508 9.45312 28.2775 9.09393 28.2523 8.64175C28.0274 9.09897 27.9005 9.61325 27.9005 10.1574C27.9005 10.7348 28.0439 11.279 28.2957 11.7567C28.4101 11.4169 28.7307 11.1719 29.1094 11.1719C29.584 11.1719 29.9688 11.5566 29.9688 12.0312C29.9688 12.4613 29.6522 12.8168 29.24 12.8795C29.6079 13.1639 30.0352 13.375 30.5002 13.4915C30.2319 13.5587 29.9516 13.5946 29.6623 13.5946C27.7639 13.5949 26.2248 12.0558 26.2248 10.1574ZM9.30078 17.1875C9.30078 16.7729 9.37463 16.3758 9.50925 16.0079C9.78519 16.309 10.2451 16.3792 10.6019 16.1526C11.0027 15.8981 11.1212 15.367 10.8671 14.9662C10.7637 14.8041 10.615 14.6889 10.4482 14.6252C10.8564 14.2599 11.3522 13.9907 11.9004 13.8534C11.6322 13.7863 11.3515 13.75 11.0625 13.75C9.16415 13.75 7.625 15.2892 7.625 17.1875C7.625 19.0862 9.16415 20.625 11.0625 20.625C11.3515 20.625 11.6322 20.5891 11.9004 20.5219C10.4069 20.1476 9.30078 18.7968 9.30078 17.1875ZM8.24435 27.5C7.76968 27.5 7.38498 27.8847 7.38498 28.3594C7.38498 28.834 7.76968 29.2188 8.24435 29.2188C8.71902 29.2188 9.10373 28.834 9.10373 28.3594C9.10373 27.8847 8.71902 27.5 8.24435 27.5ZM11.5231 17.6034C11.1223 17.8579 11.0038 18.3889 11.2579 18.7898C11.5123 19.1902 12.0434 19.3091 12.4442 19.0546C12.8447 18.8005 12.9635 18.2694 12.7091 17.8686C12.4546 17.4678 11.9239 17.3493 11.5231 17.6034ZM7.07211 30.2336C7.07211 29.7589 6.68741 29.3742 6.21274 29.3742C5.83408 29.3742 5.51349 29.6189 5.39902 29.959C5.14691 29.4813 5.00391 28.9371 5.00391 28.3594C5.00391 27.8156 5.1308 27.3013 5.35571 26.8441C5.38089 27.2962 5.75418 27.6554 6.21274 27.6554C6.68741 27.6554 7.07211 27.2704 7.07211 26.7961C7.07211 26.3214 6.68741 25.9367 6.21274 25.9367C6.12814 25.9367 6.04691 25.9491 5.9697 25.9719C6.40878 25.5177 6.97107 25.1837 7.60352 25.0253C7.3353 24.9581 7.05466 24.9219 6.76562 24.9219C4.86728 24.9219 3.32812 26.461 3.32812 28.3594C3.32812 30.2581 4.86728 31.7969 6.76562 31.7969C7.05466 31.7969 7.3353 31.7606 7.60352 31.6935C7.13858 31.577 6.71124 31.3658 6.34299 31.0818C6.75555 31.0187 7.07211 30.6636 7.07211 30.2336ZM18.244 37.1086C18.244 36.6339 17.8593 36.2492 17.3846 36.2492C17.006 36.2492 16.6854 36.4939 16.5709 36.834C16.3188 36.3563 16.1758 35.8121 16.1758 35.2344C16.1758 33.6251 17.2819 32.2746 18.7754 31.9003C18.5072 31.8331 18.2265 31.7969 17.9375 31.7969C16.0392 31.7969 14.5 33.336 14.5 35.2344C14.5 37.1331 16.0392 38.6719 17.9375 38.6719C18.2265 38.6719 18.5072 38.636 18.7754 38.5688C18.3105 38.4523 17.8831 38.2408 17.5149 37.9568C17.9274 37.8937 18.244 37.5386 18.244 37.1086ZM30.5918 29.2188C30.1171 29.2188 29.7324 29.6035 29.7324 30.0781C29.7324 30.5528 30.1171 30.9375 30.5918 30.9375C31.0665 30.9375 31.4512 30.5528 31.4512 30.0781C31.4512 29.6035 31.0665 29.2188 30.5918 29.2188ZM29.4159 31.9523C29.4159 31.4776 29.0312 31.0929 28.5565 31.0929C28.1778 31.0929 27.8572 31.3376 27.7428 31.6777C27.4907 31.2 27.3477 30.6559 27.3477 30.0781C27.3477 29.5343 27.4745 29.02 27.6995 28.5628C27.7246 29.015 28.0979 29.3742 28.5565 29.3742C29.0312 29.3742 29.4159 28.9891 29.4159 28.5148C29.4159 28.0401 29.0312 27.6554 28.5565 27.6554C28.4719 27.6554 28.3907 27.6678 28.3134 27.6907C28.7525 27.2365 29.3148 26.9025 29.9473 26.744C29.679 26.6769 29.3984 26.6406 29.1094 26.6406C27.211 26.6406 25.6719 28.1798 25.6719 30.0781C25.6719 31.9768 27.211 33.5156 29.1094 33.5156C29.3984 33.5156 29.679 33.4797 29.9473 33.4126C29.4823 33.2961 29.055 33.0846 28.6871 32.8006C29.0993 32.7375 29.4159 32.3823 29.4159 31.9523ZM18.3672 33.5156C17.8925 33.5156 17.5078 33.9003 17.5078 34.375C17.5078 34.8497 17.8925 35.2344 18.3672 35.2344C18.8419 35.2344 19.2266 34.8497 19.2266 34.375C19.2266 33.9003 18.8419 33.5156 18.3672 33.5156Z" fill="#EA5569"/>
</g>
<defs>
<clipPath id="clip0_8789_11711">
<rect width="44" height="44" fill="white" transform="translate(0.75)"/>
</clipPath>
</defs>
</svg>
