<svg width="45" height="44" viewBox="0 0 45 44" fill="none" xmlns="http://www.w3.org/2000/svg">
<g clip-path="url(#clip0_8789_11678)">
<path d="M44.25 22C44.25 34.1504 34.4004 44 22.25 44C21.3362 44 20.4359 43.9433 19.5514 43.8352C16.1105 40.0942 11.3772 37.546 6.0528 36.8867C2.45047 32.9688 0.25 27.7417 0.25 22C0.25 9.84958 10.0996 0 22.25 0C34.4004 0 44.25 9.84958 44.25 22Z" fill="#E31E7F"/>
<path d="M35.7461 8.50546C35.736 8.51721 35.726 8.52896 35.7149 8.54037L31.4674 12.7879C31.1918 13.0632 30.7453 13.0632 30.47 12.7879C30.1944 12.5123 30.1944 12.0658 30.47 11.7906L34.6538 7.60681C36.1194 6.17877 36.1499 3.82489 34.7222 2.35925C33.6339 1.24206 31.84 1.2189 30.7231 2.30688C29.8852 3.12329 29.8678 4.46875 30.6838 5.30664C31.2827 5.92129 32.2697 5.93405 32.8843 5.33551C33.3204 4.91052 33.3294 4.2106 32.9048 3.77454C32.6332 3.49557 32.6389 3.0491 32.9179 2.77753C33.1968 2.50595 33.643 2.51166 33.9149 2.79062C34.882 3.78326 34.8612 5.37814 33.8682 6.34527C32.6967 7.48663 30.8154 7.46213 29.6741 6.29056C28.3152 4.89575 28.3447 2.65567 29.7392 1.29712C31.413 -0.33368 34.1015 -0.298432 35.732 1.37533C37.6659 3.36063 37.6596 6.52621 35.7461 8.50546Z" fill="#FDCB6B"/>
<path d="M34.7488 9.50247C34.7384 9.51421 34.7287 9.5263 34.7173 9.53738L30.4697 13.7849C30.4318 13.8232 30.3898 13.8554 30.3459 13.8833L15.189 29.0402L15.1749 29.0261C15.1702 29.0506 15.1651 29.0757 15.1608 29.0999C12.0388 32.5958 11.0717 37.3351 12.2547 41.6035C9.88905 40.395 7.7715 38.7709 5.99736 36.8272C3.58809 32.011 4.26317 26.0461 8.02327 21.8744L8.01018 21.8617L19.5261 10.3457C22.6645 7.20699 27.7536 7.20699 30.892 10.3457C31.072 10.5257 31.2103 10.7308 31.3117 10.9486L33.6565 8.60381C35.1218 7.17611 35.1527 4.82189 33.7246 3.35626C32.6366 2.2394 30.8427 2.2159 29.7258 3.30422C28.888 4.12029 28.8705 5.46609 29.6866 6.30398C30.2854 6.9183 31.2724 6.93139 31.887 6.33251C32.3231 5.90786 32.3322 5.2076 31.9075 4.77154C31.6356 4.49291 31.6413 4.04644 31.9203 3.77486C32.1992 3.50295 32.6457 3.50866 32.9173 3.78762C33.8847 4.7806 33.8636 6.37548 32.871 7.34261C31.6994 8.48397 29.8178 8.45913 28.6765 7.2879C27.3179 5.89309 27.3471 3.65301 28.7419 2.29412C30.4157 0.663659 33.1039 0.698571 34.7347 2.37234C36.6687 4.35763 36.6623 7.52288 34.7488 9.50247Z" fill="#FDDFA6"/>
<path d="M30.0827 14.1461L27.5154 16.7139C27.4439 16.6645 27.3871 16.5937 27.3562 16.5074C26.9826 15.4624 26.1907 14.5698 25.0893 14.1001C23.9876 13.6305 22.7955 13.6772 21.7827 14.131C21.6068 14.2099 21.3997 14.1619 21.2799 14.0112C20.9754 13.6278 20.5987 13.2958 20.1607 13.0357L16.7262 16.4701C16.8262 16.543 16.9608 16.5591 17.0773 16.5051C18.1005 16.03 19.3137 15.974 20.4336 16.4513C21.5531 16.9287 22.3527 17.8431 22.7183 18.9103C22.7707 19.0627 22.9221 19.1611 23.0825 19.1439C23.673 19.0808 24.2846 19.1453 24.8765 19.3527L22.2957 21.9335C22.1597 21.9007 22.0456 21.8009 21.9962 21.6637C21.6226 20.6183 20.831 19.726 19.7293 19.2564C18.6279 18.7868 17.4358 18.8331 16.423 19.2873C16.2471 19.3662 16.0397 19.3182 15.9198 19.1671C15.6449 18.8213 15.3106 18.5175 14.9258 18.2701L11.8099 21.386C11.91 21.4589 12.0446 21.4753 12.1611 21.4213C13.1846 20.9459 14.3978 20.8902 15.5173 21.3676C16.6372 21.8449 17.4368 22.759 17.8024 23.8265C17.8548 23.9789 18.0062 24.077 18.1663 24.0598C18.7571 23.9967 19.3687 24.0612 19.9606 24.2686L17.3798 26.8494C17.2438 26.8169 17.1297 26.7172 17.0803 26.5795C16.7067 25.5342 15.9148 24.6419 14.8134 24.1723C13.712 23.7027 12.5199 23.749 11.5068 24.2032C11.3309 24.2821 11.1238 24.2341 11.0039 24.083C10.729 23.7372 10.3947 23.4338 10.01 23.1864L9.35367 23.8423L9.36677 23.8554C8.42011 24.8977 7.64466 26.035 7.03907 27.2281C7.20121 27.3167 7.35663 27.4158 7.50434 27.5242C7.63392 27.6199 7.81418 27.6118 7.93604 27.5067C8.79105 26.7699 9.94248 26.3848 11.1503 26.5383C12.3578 26.6917 13.3766 27.3526 14.0201 28.2795C14.1118 28.4121 14.2843 28.4648 14.4341 28.4047C14.9561 28.1942 15.5274 28.0892 16.1186 28.1106L15.189 29.0402L15.1749 29.0261C15.1702 29.0509 15.1652 29.0758 15.1608 29.1003C14.67 29.6498 14.2326 30.2299 13.8483 30.8341C13.2058 30.0855 12.295 29.5629 11.2393 29.4286C10.0512 29.2778 8.91727 29.6481 8.06696 30.3615C7.91892 30.4853 7.70676 30.4957 7.54999 30.3836C7.10956 30.0671 6.60065 29.8361 6.04508 29.7129C5.75202 30.6955 5.56571 31.6969 5.48581 32.6979C5.87085 32.8345 6.22736 33.0255 6.54694 33.2612C6.67652 33.3569 6.85679 33.3488 6.97864 33.2437C7.83332 32.5069 8.98508 32.1218 10.1929 32.2753C11.1271 32.3938 11.9476 32.8174 12.5696 33.4321C12.2933 34.1927 12.0886 34.9736 11.9546 35.7641C11.4622 35.4546 10.8969 35.2438 10.2815 35.1656C9.09385 35.0148 7.95987 35.3851 7.10923 36.0985C6.96152 36.2223 6.74936 36.2327 6.5926 36.1203C6.27839 35.8947 5.92927 35.7131 5.55362 35.5818C5.57108 35.7168 5.59055 35.8514 5.61204 35.9853C3.67609 31.3309 4.47941 25.8061 8.02332 21.8745L8.01023 21.8617L19.5262 10.3461C22.0076 7.8643 25.7083 7.34532 28.7004 8.78813C26.3646 8.60954 23.9009 9.42696 21.9895 11.2149C21.9982 11.2263 22.0076 11.237 22.0164 11.2484C22.1151 11.3757 22.2906 11.4173 22.437 11.3491C23.4602 10.8741 24.6734 10.8181 25.7932 11.2954C26.9128 11.7728 27.7124 12.6872 28.0783 13.7544C28.1303 13.9068 28.2817 14.0051 28.4422 13.988C28.982 13.9303 29.5392 13.9793 30.0827 14.1461ZM12.7952 43.1883C12.7979 43.1893 12.8002 43.1903 12.8026 43.1913C12.7989 43.1819 12.7952 43.1725 12.7912 43.1635C12.7925 43.1715 12.7939 43.1799 12.7952 43.1883Z" fill="#FDCB6B"/>
<path d="M30.4946 36.8172C29.9679 37.6366 29.3156 38.4436 28.5234 39.2358C25.9453 41.814 22.7639 43.3571 19.5627 43.8365C15.7221 43.3686 12.1872 41.911 9.22002 39.7266C7.72249 35.605 11.3584 29.8452 16.1652 28.0959C16.1652 28.0952 16.1655 28.0948 16.1655 28.0942C15.7768 29.7512 15.9591 31.1466 16.8141 32.0016C17.0464 32.2343 17.319 32.4169 17.6261 32.5522C20.41 33.7775 23.5588 30.4588 22.2265 27.7333C21.8397 26.9424 21.3234 26.2086 20.6756 25.5607C20.4926 25.3774 20.3026 25.2052 20.1066 25.0431C19.986 25.6406 19.6695 26.2438 19.1673 26.7464C18.2978 27.6158 17.1243 27.9314 16.2051 27.6326C15.9067 26.7135 16.2222 25.5402 17.0917 24.6708C17.3663 24.3962 17.6714 24.177 17.989 24.0148C17.6714 23.8527 17.3663 23.6335 17.0917 23.3589C16.2222 22.4894 15.9067 21.3159 16.2051 20.3971C17.1243 20.0983 18.2978 20.4138 19.1673 21.2833C19.603 21.719 19.8978 22.231 20.0475 22.7486C23.6391 20.9926 27.8473 21.4051 30.554 24.1115C30.6695 24.227 30.7806 24.3455 30.8877 24.4663C30.8887 24.4647 30.8894 24.4633 30.8904 24.4616C30.8924 24.4667 30.8944 24.4717 30.8964 24.4767C33.8277 27.7924 33.6286 33.0369 30.4946 36.8172Z" fill="#FFF5F5"/>
<path d="M30.495 36.8172C29.9683 37.6366 29.3161 38.4436 28.5239 39.2358C25.9457 41.814 22.7644 43.3572 19.5632 43.8365C18.2694 43.6787 17.0099 43.4092 15.7954 43.0369C17.3674 42.9701 18.9583 42.6253 20.489 42.0087C19.5585 41.5058 18.8203 40.6478 18.4953 39.5537C18.1486 38.3869 18.3426 37.1881 18.9314 36.2253C19.0153 36.088 18.9942 35.9088 18.8787 35.7963C18.3493 35.28 17.9509 34.6133 17.7575 33.8359C17.6541 33.4196 17.6272 32.9916 17.6662 32.5686C18.5769 32.955 19.5239 32.859 20.339 32.4595C20.3608 32.5643 20.386 32.6687 20.4169 32.7731C20.6189 33.4535 20.9812 34.0427 21.4501 34.512C21.5864 34.6483 21.6106 34.8597 21.5119 35.0252C20.9452 35.98 20.7633 37.1589 21.1044 38.3066C21.4182 39.3634 22.1182 40.1989 23.0037 40.7079C23.9296 40.1137 24.8121 39.4081 25.6298 38.5906C26.3714 37.8488 26.9823 37.0931 27.4755 36.3257C27.5107 36.2831 27.5436 36.2394 27.5779 36.1968C27.3697 35.9897 27.1851 35.7638 27.0283 35.5217C26.9404 35.3864 26.7688 35.3307 26.6178 35.3861C25.5583 35.7745 24.3445 35.7292 23.2686 35.1602C22.1923 34.5912 21.4719 33.6137 21.1963 32.5193C21.1571 32.3632 21.0141 32.2528 20.8529 32.2564C20.8032 32.2578 20.7532 32.2554 20.7032 32.2548C21.4209 31.7999 22.001 31.1057 22.3065 30.3168C22.6576 31.1903 23.3065 31.9493 24.2038 32.4236C25.2626 32.9836 26.4543 33.0366 27.5013 32.6683C27.6833 32.6042 27.8857 32.6693 27.9928 32.8298C28.2563 33.2253 28.592 33.5777 28.9915 33.8688C29.6796 32.2903 29.9291 30.6055 29.731 29.01C29.3732 29.0046 29.0234 28.9499 28.6904 28.8481C28.549 28.8052 28.396 28.8673 28.3224 28.9952C27.8085 29.8925 26.931 30.5766 25.8407 30.8123C24.7507 31.0479 23.6687 30.7878 22.8298 30.1829C22.7103 30.0966 22.5452 30.1033 22.4344 30.201C22.3944 30.2359 22.3535 30.2698 22.3122 30.303C22.5901 29.5773 22.6355 28.7723 22.3427 28.0005C23.097 28.3926 23.9866 28.5356 24.8826 28.3419C25.9548 28.11 26.8219 27.4443 27.3392 26.5681C27.4288 26.4161 27.6091 26.3422 27.7789 26.3919C28.1731 26.5067 28.5903 26.5564 29.0153 26.5352C28.7145 25.9041 28.3285 25.3099 27.8518 24.7708C27.8498 24.7661 27.8481 24.7614 27.8461 24.7567C27.8454 24.7584 27.8444 24.7597 27.8437 24.7611C27.743 24.648 27.6393 24.5372 27.5309 24.4291C27.4298 24.3277 27.3264 24.23 27.221 24.1357C27.081 25.0384 26.6164 25.8934 25.8467 26.5087C24.9756 27.2053 23.8909 27.454 22.8708 27.2858C22.7251 27.262 22.5804 27.3416 22.5243 27.4782C22.4632 27.6289 22.3911 27.7756 22.3098 27.9183C22.2843 27.8562 22.2571 27.7944 22.2273 27.7333C21.8429 26.9464 21.3296 26.2163 20.6868 25.5711C20.7656 25.5181 20.863 25.4936 20.9624 25.5083C21.9681 25.6604 23.0316 25.4086 23.8886 24.7235C24.5227 24.2163 24.9491 23.5465 25.1579 22.8214C24.0141 22.329 22.758 22.1138 21.4834 22.1702C24.7144 21.139 28.2019 21.7586 30.5545 24.1112C30.6699 24.2267 30.7811 24.3452 30.8885 24.466C30.8895 24.4647 30.8902 24.463 30.8912 24.4613C30.8932 24.4663 30.8952 24.4714 30.8972 24.4764C33.8281 27.7924 33.6291 33.0369 30.495 36.8172ZM15.9669 40.8515C15.2532 40.0012 14.883 38.8673 15.034 37.6792C15.1847 36.4912 15.8273 35.4858 16.7306 34.8409C16.8874 34.7288 16.9505 34.5257 16.881 34.3461C16.641 33.7275 16.547 33.0423 16.6366 32.338C16.6557 32.1883 16.6839 32.0423 16.7182 31.8989C16.1445 31.2581 15.9122 30.347 15.9847 29.2671C14.8548 29.8398 14.0028 30.919 13.7745 32.2383C13.6379 33.0275 13.7339 33.7983 14.0101 34.4841C14.0702 34.6338 14.0172 34.8064 13.8849 34.898C12.9578 35.5415 12.2971 36.5604 12.1437 37.7679C11.9903 38.9753 12.3753 40.1271 13.1122 40.9818C13.2172 41.104 13.2253 41.2842 13.1296 41.4138C13.0199 41.5632 12.9198 41.7206 12.8302 41.8851C13.6332 42.2665 14.463 42.6002 15.316 42.8832C15.4385 42.3236 15.6708 41.8113 15.9891 41.3678C16.1012 41.2117 16.0908 40.9992 15.9669 40.8515Z" fill="#FDE5BD"/>
<path d="M23.8736 10.8039C24.2865 11.2172 24.2865 11.8866 23.8736 12.2995C23.4606 12.7127 22.7909 12.7127 22.378 12.2995C21.9651 11.8866 21.9651 11.2172 22.378 10.8039C22.7909 10.391 23.4606 10.391 23.8736 10.8039Z" fill="#2B6C7E"/>
</g>
<defs>
<clipPath id="clip0_8789_11678">
<rect width="44" height="44" fill="white" transform="translate(0.25)"/>
</clipPath>
</defs>
</svg>
