<svg width="45" height="44" viewBox="0 0 45 44" fill="none" xmlns="http://www.w3.org/2000/svg">
<g clip-path="url(#clip0_8789_9894)">
<path d="M44.75 22C44.75 34.1504 34.9004 44 22.75 44C10.5996 44 0.75 34.1504 0.75 22C0.75 9.84958 10.5996 0 22.75 0C34.9004 0 44.75 9.84958 44.75 22Z" fill="#04D481"/>
<path d="M31.5421 30.3443C31.7099 30.5122 31.7099 30.7841 31.5421 30.9519L18.8408 43.6536C9.82437 42.0362 2.71405 34.9259 1.09668 25.9095L13.7983 13.2082C13.9662 13.0403 14.2381 13.0403 14.4059 13.2082L14.7503 13.5526C15.0531 13.8554 15.1935 14.2844 15.1277 14.7077L14.9417 15.9065C14.9239 16.0213 15.0233 16.1203 15.1381 16.1025L16.3368 15.9166C16.7598 15.8508 17.1888 15.9911 17.4916 16.2939C17.7944 16.5967 17.9347 17.0257 17.8689 17.4487L17.683 18.6474C17.6652 18.7622 17.7642 18.8616 17.879 18.8438L19.0778 18.6575C19.5011 18.592 19.9301 18.732 20.2329 19.0348C20.5357 19.3376 20.6757 19.7666 20.6102 20.1899L20.4242 21.3887C20.4061 21.5035 20.5055 21.6025 20.6203 21.5847L21.819 21.3988C22.2423 21.333 22.671 21.4733 22.9738 21.7761C23.2766 22.0789 23.4169 22.5079 23.3511 22.9309L23.1652 24.1296C23.1474 24.2444 23.2464 24.3438 23.3615 24.326L24.5603 24.14C24.9833 24.0742 25.4123 24.2146 25.7151 24.517C26.0179 24.8198 26.1579 25.2492 26.0924 25.6721L25.9064 26.8709C25.8886 26.9857 25.9877 27.0851 26.1025 27.067L27.3012 26.881C27.7245 26.8152 28.1536 26.9555 28.4564 27.2583C28.7592 27.5611 28.8991 27.9901 28.8333 28.4131L28.6474 29.6118C28.6296 29.7267 28.7289 29.826 28.8438 29.8082L30.0425 29.6223C30.4655 29.5565 30.8945 29.6968 31.1973 29.9996L31.5421 30.3443Z" fill="#962437"/>
<path d="M35.0306 24.7537L18.6001 41.1842C18.0969 41.6877 17.2805 41.6877 16.7773 41.1842C16.2737 40.6807 16.2737 39.8646 16.7773 39.3611L17.6887 38.4496C17.1852 38.9532 16.3691 38.9532 15.8659 38.4496C15.3623 37.9461 15.3623 37.13 15.8659 36.6265L14.9541 37.5382C14.4509 38.0414 13.6349 38.0414 13.1313 37.5382C12.6278 37.0347 12.6278 36.2186 13.1313 35.7151L10.8661 37.9807C10.3625 38.4839 9.54645 38.4839 9.04291 37.9807C8.5397 37.4771 8.5397 36.6611 9.04291 36.1575L13.4351 31.7653C12.9319 32.2689 12.1155 32.2689 11.6123 31.7653C11.1088 31.2621 11.1088 30.4457 11.6123 29.9425L14.9279 26.6269C14.4251 26.9807 13.7262 26.934 13.2763 26.4842C12.7728 25.981 12.7728 25.1646 13.2763 24.6614L16.3258 21.6119C15.8222 22.1155 15.0062 22.1155 14.5026 21.6119C13.9994 21.1084 13.9994 20.2923 14.5026 19.7888L4.32742 29.9637C3.82422 30.4669 3.00781 30.4669 2.50461 29.9637C2.00107 29.4601 2.00107 28.644 2.50461 28.1405L20.4306 10.2141C20.9342 9.71094 21.7502 9.71094 22.2538 10.2141C22.7573 10.7177 22.7573 11.5338 22.2538 12.0373L32.4286 1.86243C32.9322 1.35889 33.7483 1.35889 34.2518 1.86243C34.755 2.36563 34.755 3.18204 34.2518 3.68524L31.2024 6.73468C31.7059 6.23148 32.522 6.23148 33.0252 6.73468C33.5287 7.23822 33.5287 8.05429 33.0252 8.55783L28.2137 13.3693C28.7166 13.0152 29.4155 13.0618 29.8653 13.5117C30.3688 14.0152 30.3688 14.8313 29.8653 15.3348L25.4731 19.727C25.9766 19.2235 26.7927 19.2235 27.2962 19.727C27.7998 20.2302 27.7998 21.0466 27.2962 21.5498L29.5615 19.2846C30.065 18.781 30.8811 18.781 31.3846 19.2846C31.8882 19.7881 31.8882 20.6042 31.3846 21.1074L32.2961 20.196C32.7996 19.6928 33.6157 19.6928 34.1192 20.196C34.6224 20.6995 34.6224 21.5156 34.1192 22.0191L33.2075 22.9305C33.711 22.4273 34.5271 22.4273 35.0306 22.9305C35.5341 23.4341 35.5341 24.2505 35.0306 24.7537Z" fill="#FDED32"/>
<path d="M30.2296 14.0743C30.3514 14.5083 30.2423 14.9934 29.9009 15.3348L11.9746 33.2612C11.6332 33.6026 11.1481 33.7117 10.714 33.5901C10.5922 33.1561 10.7016 32.671 11.0427 32.3293L28.969 14.4032C29.3104 14.0618 29.7955 13.9527 30.2296 14.0743ZM22.5825 10.7768C22.1484 10.6549 21.663 10.764 21.3216 11.1054L3.39525 29.0318C3.05385 29.3732 2.94509 29.8582 3.06661 30.2923C3.50066 30.4141 3.98573 30.305 4.32713 29.9636L22.2535 12.0373C22.5949 11.6959 22.704 11.2108 22.5825 10.7768ZM15.0646 21.9406C15.4987 22.0621 15.9837 21.953 16.3251 21.6116L34.2515 3.68523C34.5929 3.34383 34.702 2.85875 34.5802 2.4247C34.1461 2.30318 33.661 2.41228 33.3196 2.75368L15.3933 20.6797C15.0519 21.0211 14.9428 21.5065 15.0646 21.9406ZM33.3539 7.29729C32.9198 7.17544 32.4347 7.28454 32.0933 7.62594L14.167 25.5523C13.8256 25.8937 13.7165 26.3788 13.838 26.8128C14.272 26.9347 14.7571 26.8256 15.0989 26.4842L33.0249 8.55782C33.3663 8.21642 33.4754 7.73134 33.3539 7.29729ZM34.4835 20.7586C34.0494 20.6371 33.5643 20.7462 33.2226 21.0876L15.2966 39.0136C14.9552 39.355 14.8461 39.8404 14.9676 40.2745C15.4017 40.396 15.8871 40.2869 16.2285 39.9455L34.1545 22.0191C34.4959 21.6777 34.605 21.1926 34.4835 20.7586ZM27.6605 20.2896C27.2265 20.1678 26.7414 20.2769 26.4 20.6183L9.83183 37.1868C9.49043 37.5282 9.381 38.0132 9.50285 38.4473C9.93691 38.5688 10.422 38.4597 10.7634 38.1183L27.3315 21.5502C27.6729 21.2088 27.7824 20.7237 27.6605 20.2896ZM35.3949 23.4932C34.9608 23.3716 34.4758 23.4807 34.1344 23.8218L16.7585 41.2204C16.4171 41.5622 16.3084 42.0473 16.4299 42.4813C16.8639 42.6028 17.349 42.4937 17.6904 42.1523L35.0662 24.7537C35.4073 24.4123 35.5167 23.9272 35.3949 23.4932ZM31.7489 19.8472C31.3149 19.7253 30.8298 19.8348 30.4884 20.1758L12.562 38.1022C12.2206 38.4436 12.1115 38.9287 12.2334 39.3627C12.6671 39.4846 13.1525 39.3755 13.4939 39.0341L31.4199 21.1077C31.7613 20.7663 31.8708 20.2812 31.7489 19.8472Z" fill="#FCF498"/>
<path d="M22.2543 10.2141C22.7578 10.7177 22.7578 11.5338 22.2543 12.0373C21.7507 12.5408 20.9347 12.5408 20.4311 12.0373C19.9279 11.5338 19.9279 10.7177 20.4311 10.2141C20.9347 9.71094 21.7507 9.71094 22.2543 10.2141ZM34.2523 3.68524C34.7555 3.18204 34.7555 2.36563 34.2523 1.86243C33.7487 1.35889 32.9327 1.35889 32.4291 1.86243C31.9259 2.36563 31.9259 3.18204 32.4291 3.68524C32.9327 4.18878 33.7487 4.18878 34.2523 3.68524ZM33.0257 8.55783C33.5292 8.05429 33.5292 7.23822 33.0257 6.73468C32.5225 6.23148 31.7064 6.23148 31.2028 6.73468C30.6993 7.23822 30.6993 8.05429 31.2028 8.55783C31.7064 9.06137 32.5225 9.06137 33.0257 8.55783ZM25.5095 19.727C25.0059 20.2306 25.0059 21.0466 25.5095 21.5502C26.013 22.0534 26.8291 22.0534 27.3323 21.5502C27.8358 21.0466 27.8358 20.2306 27.3323 19.727C26.8291 19.2238 26.013 19.2238 25.5095 19.727ZM29.5979 19.2849C29.0944 19.7881 29.0944 20.6045 29.5979 21.1077C30.1011 21.6113 30.9175 21.6113 31.4207 21.1077C31.9242 20.6045 31.9242 19.7881 31.4207 19.2849C30.9175 18.7814 30.1011 18.7814 29.5979 19.2849ZM29.9017 13.512C29.3982 13.0085 28.5821 13.0085 28.0785 13.512C27.5753 14.0152 27.5753 14.8316 28.0785 15.3348C28.5821 15.8383 29.3982 15.8383 29.9017 15.3348C30.4049 14.8316 30.4049 14.0152 29.9017 13.512ZM35.0667 22.9309C34.5635 22.4273 33.7474 22.4273 33.2439 22.9309C32.7403 23.4341 32.7403 24.2505 33.2439 24.7537C33.7474 25.2572 34.5635 25.2572 35.0667 24.7537C35.5702 24.2505 35.5702 23.4341 35.0667 22.9309ZM34.1553 22.0191C34.6588 21.5159 34.6588 20.6995 34.1553 20.1963C33.6521 19.6928 32.8357 19.6928 32.3325 20.1963C31.8289 20.6995 31.8289 21.5159 32.3325 22.0191C32.8357 22.5227 33.6521 22.5227 34.1553 22.0191Z" fill="#E8CE00"/>
<path d="M29.7192 32.1675C29.8871 32.3353 29.8871 32.6072 29.7192 32.7751L18.8408 43.6536C9.82437 42.0362 2.71405 34.9259 1.09668 25.9095L11.9752 15.031C12.143 14.8632 12.4149 14.8632 12.5828 15.031L12.9275 15.3758C13.2303 15.6786 13.3703 16.1076 13.3048 16.5305L13.1189 17.7293C13.1011 17.8441 13.2001 17.9435 13.3149 17.9257L14.5137 17.7394C14.937 17.6739 15.366 17.8139 15.6688 18.1167C15.9713 18.4195 16.1116 18.8485 16.0458 19.2718L15.8598 20.4702C15.842 20.5854 15.9414 20.6844 16.0562 20.6666L17.2549 20.4807C17.6779 20.4149 18.1069 20.5552 18.4097 20.858C18.7125 21.1608 18.8528 21.5898 18.787 22.0128L18.6011 23.2115C18.5833 23.3263 18.6823 23.4257 18.7975 23.4079L19.9959 23.2219C20.4192 23.1561 20.8482 23.2964 21.151 23.5989C21.4538 23.9017 21.5938 24.3307 21.5283 24.754L21.3423 25.9528C21.3246 26.0676 21.4236 26.1666 21.5384 26.1488L22.7372 25.9629C23.1605 25.8971 23.5895 26.0374 23.8919 26.3402C24.1947 26.643 24.3351 27.072 24.2693 27.495L24.0833 28.6937C24.0655 28.8085 24.1649 28.9079 24.2797 28.8901L25.4784 28.7041C25.9014 28.6383 26.3304 28.7787 26.6332 29.0811C26.936 29.3839 27.0763 29.8129 27.0105 30.2362L26.8246 31.435C26.8068 31.5498 26.9058 31.6488 27.0206 31.631L28.2194 31.4451C28.6427 31.3796 29.0717 31.5196 29.3745 31.8224L29.7192 32.1675Z" fill="#E43950"/>
<path d="M12.9275 15.3758C13.2303 15.6786 13.3703 16.1076 13.3048 16.5305L13.1994 17.21L1.77075 28.6387C1.49045 27.7518 1.26385 26.841 1.09668 25.9095L11.9752 15.031C12.143 14.8632 12.4153 14.8632 12.5831 15.031L12.9275 15.3758Z" fill="#C92E43"/>
<path d="M16.0281 39.6605C13.8528 39.6028 11.1129 38.2798 8.79187 35.9585C6.47055 33.6375 5.14758 30.8976 5.08984 28.7223L8.8476 24.9648C11.0229 25.0222 13.7625 26.3456 16.0838 28.6665C18.4051 30.9875 19.7281 33.7274 19.7855 35.9027L16.0281 39.6605Z" fill="#FDE803"/>
<path d="M14.1087 26.9948L7.11957 33.9839C6.76675 33.4864 6.45657 32.9825 6.19238 32.4807L12.6055 26.0676C13.1073 26.3318 13.6112 26.642 14.1087 26.9948ZM16.6744 29.2909L9.41571 36.5496C9.85648 36.9451 10.3083 37.3059 10.7659 37.6302L17.755 30.6411C17.4307 30.1835 17.0699 29.7317 16.6744 29.2909ZM18.2397 31.3712L11.496 38.115C12.0284 38.4443 12.5635 38.7236 13.0912 38.9505L19.0753 32.9664C18.8484 32.4387 18.5691 31.904 18.2397 31.3712ZM9.93704 25.0901L5.21484 29.8123C5.33167 30.4068 5.52805 31.0275 5.79929 31.6586L11.783 25.6745C11.1523 25.4033 10.5316 25.2069 9.93704 25.0901ZM14.8016 27.5175L7.64224 34.6768C7.99237 35.1135 8.37573 35.5429 8.79132 35.9585L16.0833 28.6665C15.6677 28.2509 15.2383 27.8676 14.8016 27.5175ZM19.408 33.8493L13.9741 39.2832C14.6911 39.5148 15.384 39.6434 16.0275 39.6602L19.7853 35.9027C19.7682 35.2592 19.6396 34.566 19.408 33.8493Z" fill="#FDF061"/>
<path d="M18.8823 36.8051L18.1273 37.5601C18.0699 35.3848 16.7466 32.6448 14.4257 30.3239C12.1047 28.0029 9.36475 26.6796 7.18945 26.6222L7.94443 25.8672L8.84677 24.9645C11.0221 25.0222 13.762 26.3452 16.083 28.6665C18.4043 30.9875 19.7273 33.7274 19.785 35.9027L18.8823 36.8051Z" fill="#E8CE00"/>
<path d="M10.8812 26.5772L10.1263 27.3318C9.49548 27.0606 8.87445 26.8642 8.28027 26.7474L9.93759 25.0901C10.5321 25.2069 11.1528 25.4033 11.7839 25.6745L10.8812 26.5772ZM19.4085 33.8493L18.6535 34.6043L17.7509 35.5066C17.9825 36.2237 18.1114 36.9165 18.1282 37.5601L18.8831 36.8054L19.7858 35.9027C19.7687 35.2592 19.6401 34.566 19.4085 33.8493ZM15.3288 29.4212L16.0838 28.6665C15.6682 28.2506 15.2389 27.8676 14.8021 27.5175L13.1448 29.1748C13.5815 29.5249 14.0109 29.9083 14.4265 30.3239L15.3288 29.4212ZM13.3546 27.7498L14.1096 26.9948C13.6118 26.642 13.1079 26.3318 12.606 26.0676L11.7037 26.9703L10.9487 27.7249C11.4506 27.9894 11.9544 28.2993 12.4519 28.6521L13.2069 27.8975L13.3546 27.7498ZM18.3209 33.7214L19.0758 32.9664C18.8489 32.4387 18.5699 31.9036 18.2403 31.3712L17.4857 32.1262L16.583 33.0289C16.9123 33.5613 17.1916 34.096 17.4185 34.6241L18.3209 33.7214ZM17.0006 31.3957L17.7556 30.6407C17.4313 30.1835 17.0704 29.7317 16.675 29.2906L15.0176 30.9479C15.4131 31.389 15.7736 31.8409 16.0982 32.2984L16.8529 31.5434L17.0006 31.3957Z" fill="#FDE803"/>
</g>
<defs>
<clipPath id="clip0_8789_9894">
<rect width="44" height="44" fill="white" transform="translate(0.75)"/>
</clipPath>
</defs>
</svg>
